<svg width="477" height="440" viewBox="0 0 877 440" fill="none" xmlns="http://www.w3.org/2000/svg">
<rect x="1.5" y="1.5" width="797" height="397" rx="8.5" fill="#181F2C" stroke="#181F2C" stroke-width="3"/>
<path d="M82.38 93L72.048 81.552V93H68.772V67.908H72.048V79.536L82.416 67.908H86.556L75.18 80.472L86.664 93H82.38ZM108.323 82.38C108.323 83.004 108.287 83.664 108.215 84.36H92.4468C92.5668 86.304 93.2268 87.828 94.4268 88.932C95.6508 90.012 97.1268 90.552 98.8548 90.552C100.271 90.552 101.447 90.228 102.383 89.58C103.343 88.908 104.015 88.02 104.399 86.916H107.927C107.399 88.812 106.343 90.36 104.759 91.56C103.175 92.736 101.207 93.324 98.8548 93.324C96.9828 93.324 95.3028 92.904 93.8148 92.064C92.3508 91.224 91.1988 90.036 90.3588 88.5C89.5188 86.94 89.0988 85.14 89.0988 83.1C89.0988 81.06 89.5068 79.272 90.3228 77.736C91.1388 76.2 92.2788 75.024 93.7428 74.208C95.2308 73.368 96.9348 72.948 98.8548 72.948C100.727 72.948 102.383 73.356 103.823 74.172C105.263 74.988 106.367 76.116 107.135 77.556C107.927 78.972 108.323 80.58 108.323 82.38ZM104.939 81.696C104.939 80.448 104.663 79.38 104.111 78.492C103.559 77.58 102.803 76.896 101.843 76.44C100.907 75.96 99.8628 75.72 98.7108 75.72C97.0548 75.72 95.6388 76.248 94.4628 77.304C93.3108 78.36 92.6508 79.824 92.4828 81.696H104.939ZM130.647 82.38C130.647 83.004 130.611 83.664 130.539 84.36H114.771C114.891 86.304 115.551 87.828 116.751 88.932C117.975 90.012 119.451 90.552 121.179 90.552C122.595 90.552 123.771 90.228 124.707 89.58C125.667 88.908 126.339 88.02 126.723 86.916H130.251C129.723 88.812 128.667 90.36 127.083 91.56C125.499 92.736 123.531 93.324 121.179 93.324C119.307 93.324 117.627 92.904 116.139 92.064C114.675 91.224 113.523 90.036 112.683 88.5C111.843 86.94 111.423 85.14 111.423 83.1C111.423 81.06 111.831 79.272 112.647 77.736C113.463 76.2 114.603 75.024 116.067 74.208C117.555 73.368 119.259 72.948 121.179 72.948C123.051 72.948 124.707 73.356 126.147 74.172C127.587 74.988 128.691 76.116 129.459 77.556C130.251 78.972 130.647 80.58 130.647 82.38ZM127.263 81.696C127.263 80.448 126.987 79.38 126.435 78.492C125.883 77.58 125.127 76.896 124.167 76.44C123.231 75.96 122.187 75.72 121.035 75.72C119.379 75.72 117.963 76.248 116.787 77.304C115.635 78.36 114.975 79.824 114.807 81.696H127.263ZM138.247 76.908C138.895 75.78 139.855 74.844 141.127 74.1C142.423 73.332 143.923 72.948 145.627 72.948C147.379 72.948 148.963 73.368 150.379 74.208C151.819 75.048 152.947 76.236 153.763 77.772C154.579 79.284 154.987 81.048 154.987 83.064C154.987 85.056 154.579 86.832 153.763 88.392C152.947 89.952 151.819 91.164 150.379 92.028C148.963 92.892 147.379 93.324 145.627 93.324C143.947 93.324 142.459 92.952 141.163 92.208C139.891 91.44 138.919 90.492 138.247 89.364V102.36H134.971V73.272H138.247V76.908ZM151.639 83.064C151.639 81.576 151.339 80.28 150.739 79.176C150.139 78.072 149.323 77.232 148.291 76.656C147.283 76.08 146.167 75.792 144.943 75.792C143.743 75.792 142.627 76.092 141.595 76.692C140.587 77.268 139.771 78.12 139.147 79.248C138.547 80.352 138.247 81.636 138.247 83.1C138.247 84.588 138.547 85.896 139.147 87.024C139.771 88.128 140.587 88.98 141.595 89.58C142.627 90.156 143.743 90.444 144.943 90.444C146.167 90.444 147.283 90.156 148.291 89.58C149.323 88.98 150.139 88.128 150.739 87.024C151.339 85.896 151.639 84.576 151.639 83.064ZM185.889 73.272L174.009 102.288H170.625L174.513 92.784L166.557 73.272H170.193L176.385 89.256L182.505 73.272H185.889ZM197.786 93.324C195.938 93.324 194.258 92.904 192.746 92.064C191.258 91.224 190.082 90.036 189.218 88.5C188.378 86.94 187.958 85.14 187.958 83.1C187.958 81.084 188.39 79.308 189.254 77.772C190.142 76.212 191.342 75.024 192.854 74.208C194.366 73.368 196.058 72.948 197.93 72.948C199.802 72.948 201.494 73.368 203.006 74.208C204.518 75.024 205.706 76.2 206.57 77.736C207.458 79.272 207.902 81.06 207.902 83.1C207.902 85.14 207.446 86.94 206.534 88.5C205.646 90.036 204.434 91.224 202.898 92.064C201.362 92.904 199.658 93.324 197.786 93.324ZM197.786 90.444C198.962 90.444 200.066 90.168 201.098 89.616C202.13 89.064 202.958 88.236 203.582 87.132C204.23 86.028 204.554 84.684 204.554 83.1C204.554 81.516 204.242 80.172 203.618 79.068C202.994 77.964 202.178 77.148 201.17 76.62C200.162 76.068 199.07 75.792 197.894 75.792C196.694 75.792 195.59 76.068 194.582 76.62C193.598 77.148 192.806 77.964 192.206 79.068C191.606 80.172 191.306 81.516 191.306 83.1C191.306 84.708 191.594 86.064 192.17 87.168C192.77 88.272 193.562 89.1 194.546 89.652C195.53 90.18 196.61 90.444 197.786 90.444ZM229.706 73.272V93H226.43V90.084C225.806 91.092 224.93 91.884 223.802 92.46C222.698 93.012 221.474 93.288 220.13 93.288C218.594 93.288 217.214 92.976 215.99 92.352C214.766 91.704 213.794 90.744 213.074 89.472C212.378 88.2 212.03 86.652 212.03 84.828V73.272H215.27V84.396C215.27 86.34 215.762 87.84 216.746 88.896C217.73 89.928 219.074 90.444 220.778 90.444C222.53 90.444 223.91 89.904 224.918 88.824C225.926 87.744 226.43 86.172 226.43 84.108V73.272H229.706ZM238.513 76.476C239.089 75.348 239.905 74.472 240.961 73.848C242.041 73.224 243.349 72.912 244.885 72.912V76.296H244.021C240.349 76.296 238.513 78.288 238.513 82.272V93H235.237V73.272H238.513V76.476ZM255.651 93.324C254.139 93.324 252.783 93.072 251.583 92.568C250.383 92.04 249.435 91.32 248.739 90.408C248.043 89.472 247.659 88.404 247.587 87.204H250.971C251.067 88.188 251.523 88.992 252.339 89.616C253.179 90.24 254.271 90.552 255.615 90.552C256.863 90.552 257.847 90.276 258.567 89.724C259.287 89.172 259.647 88.476 259.647 87.636C259.647 86.772 259.263 86.136 258.495 85.728C257.727 85.296 256.539 84.876 254.931 84.468C253.467 84.084 252.267 83.7 251.331 83.316C250.419 82.908 249.627 82.32 248.955 81.552C248.307 80.76 247.983 79.728 247.983 78.456C247.983 77.448 248.283 76.524 248.883 75.684C249.483 74.844 250.335 74.184 251.439 73.704C252.543 73.2 253.803 72.948 255.219 72.948C257.403 72.948 259.167 73.5 260.511 74.604C261.855 75.708 262.575 77.22 262.671 79.14H259.395C259.323 78.108 258.903 77.28 258.135 76.656C257.391 76.032 256.383 75.72 255.111 75.72C253.935 75.72 252.999 75.972 252.303 76.476C251.607 76.98 251.259 77.64 251.259 78.456C251.259 79.104 251.463 79.644 251.871 80.076C252.303 80.484 252.831 80.82 253.455 81.084C254.103 81.324 254.991 81.6 256.119 81.912C257.535 82.296 258.687 82.68 259.575 83.064C260.463 83.424 261.219 83.976 261.843 84.72C262.491 85.464 262.827 86.436 262.851 87.636C262.851 88.716 262.551 89.688 261.951 90.552C261.351 91.416 260.499 92.1 259.395 92.604C258.315 93.084 257.067 93.324 255.651 93.324ZM285.475 82.38C285.475 83.004 285.439 83.664 285.367 84.36H269.599C269.719 86.304 270.379 87.828 271.579 88.932C272.803 90.012 274.279 90.552 276.007 90.552C277.423 90.552 278.599 90.228 279.535 89.58C280.495 88.908 281.167 88.02 281.551 86.916H285.079C284.551 88.812 283.495 90.36 281.911 91.56C280.327 92.736 278.359 93.324 276.007 93.324C274.135 93.324 272.455 92.904 270.967 92.064C269.503 91.224 268.351 90.036 267.511 88.5C266.671 86.94 266.251 85.14 266.251 83.1C266.251 81.06 266.659 79.272 267.475 77.736C268.291 76.2 269.431 75.024 270.895 74.208C272.383 73.368 274.087 72.948 276.007 72.948C277.879 72.948 279.535 73.356 280.975 74.172C282.415 74.988 283.519 76.116 284.287 77.556C285.079 78.972 285.475 80.58 285.475 82.38ZM282.091 81.696C282.091 80.448 281.815 79.38 281.263 78.492C280.711 77.58 279.955 76.896 278.995 76.44C278.059 75.96 277.015 75.72 275.863 75.72C274.207 75.72 272.791 76.248 271.615 77.304C270.463 78.36 269.803 79.824 269.635 81.696H282.091ZM293.075 66.36V93H289.799V66.36H293.075ZM306.687 75.972H302.547V93H299.271V75.972H296.715V73.272H299.271V71.868C299.271 69.66 299.835 68.052 300.963 67.044C302.115 66.012 303.951 65.496 306.471 65.496V68.232C305.031 68.232 304.011 68.52 303.411 69.096C302.835 69.648 302.547 70.572 302.547 71.868V73.272H306.687V75.972ZM337.6 73.272V93H334.324V90.084C333.7 91.092 332.824 91.884 331.696 92.46C330.592 93.012 329.368 93.288 328.024 93.288C326.488 93.288 325.108 92.976 323.884 92.352C322.66 91.704 321.688 90.744 320.968 89.472C320.272 88.2 319.924 86.652 319.924 84.828V73.272H323.164V84.396C323.164 86.34 323.656 87.84 324.64 88.896C325.624 89.928 326.968 90.444 328.672 90.444C330.424 90.444 331.804 89.904 332.812 88.824C333.82 87.744 334.324 86.172 334.324 84.108V73.272H337.6ZM346.407 76.908C347.055 75.78 348.015 74.844 349.287 74.1C350.583 73.332 352.083 72.948 353.787 72.948C355.539 72.948 357.123 73.368 358.539 74.208C359.979 75.048 361.107 76.236 361.923 77.772C362.739 79.284 363.147 81.048 363.147 83.064C363.147 85.056 362.739 86.832 361.923 88.392C361.107 89.952 359.979 91.164 358.539 92.028C357.123 92.892 355.539 93.324 353.787 93.324C352.107 93.324 350.619 92.952 349.323 92.208C348.051 91.44 347.079 90.492 346.407 89.364V102.36H343.131V73.272H346.407V76.908ZM359.799 83.064C359.799 81.576 359.499 80.28 358.899 79.176C358.299 78.072 357.483 77.232 356.451 76.656C355.443 76.08 354.327 75.792 353.103 75.792C351.903 75.792 350.787 76.092 349.755 76.692C348.747 77.268 347.931 78.12 347.307 79.248C346.707 80.352 346.407 81.636 346.407 83.1C346.407 84.588 346.707 85.896 347.307 87.024C347.931 88.128 348.747 88.98 349.755 89.58C350.787 90.156 351.903 90.444 353.103 90.444C354.327 90.444 355.443 90.156 356.451 89.58C357.483 88.98 358.299 88.128 358.899 87.024C359.499 85.896 359.799 84.576 359.799 83.064ZM366.236 83.064C366.236 81.048 366.644 79.284 367.46 77.772C368.276 76.236 369.392 75.048 370.808 74.208C372.248 73.368 373.856 72.948 375.632 72.948C377.168 72.948 378.596 73.308 379.916 74.028C381.236 74.724 382.244 75.648 382.94 76.8V66.36H386.252V93H382.94V89.292C382.292 90.468 381.332 91.44 380.06 92.208C378.788 92.952 377.3 93.324 375.596 93.324C373.844 93.324 372.248 92.892 370.808 92.028C369.392 91.164 368.276 89.952 367.46 88.392C366.644 86.832 366.236 85.056 366.236 83.064ZM382.94 83.1C382.94 81.612 382.64 80.316 382.04 79.212C381.44 78.108 380.624 77.268 379.592 76.692C378.584 76.092 377.468 75.792 376.244 75.792C375.02 75.792 373.904 76.08 372.896 76.656C371.888 77.232 371.084 78.072 370.484 79.176C369.884 80.28 369.584 81.576 369.584 83.064C369.584 84.576 369.884 85.896 370.484 87.024C371.084 88.128 371.888 88.98 372.896 89.58C373.904 90.156 375.02 90.444 376.244 90.444C377.468 90.444 378.584 90.156 379.592 89.58C380.624 88.98 381.44 88.128 382.04 87.024C382.64 85.896 382.94 84.588 382.94 83.1ZM390.564 83.064C390.564 81.048 390.972 79.284 391.788 77.772C392.604 76.236 393.72 75.048 395.136 74.208C396.576 73.368 398.172 72.948 399.924 72.948C401.652 72.948 403.152 73.32 404.424 74.064C405.696 74.808 406.644 75.744 407.268 76.872V73.272H410.58V93H407.268V89.328C406.62 90.48 405.648 91.44 404.352 92.208C403.08 92.952 401.592 93.324 399.888 93.324C398.136 93.324 396.552 92.892 395.136 92.028C393.72 91.164 392.604 89.952 391.788 88.392C390.972 86.832 390.564 85.056 390.564 83.064ZM407.268 83.1C407.268 81.612 406.968 80.316 406.368 79.212C405.768 78.108 404.952 77.268 403.92 76.692C402.912 76.092 401.796 75.792 400.572 75.792C399.348 75.792 398.232 76.08 397.224 76.656C396.216 77.232 395.412 78.072 394.812 79.176C394.212 80.28 393.912 81.576 393.912 83.064C393.912 84.576 394.212 85.896 394.812 87.024C395.412 88.128 396.216 88.98 397.224 89.58C398.232 90.156 399.348 90.444 400.572 90.444C401.796 90.444 402.912 90.156 403.92 89.58C404.952 88.98 405.768 88.128 406.368 87.024C406.968 85.896 407.268 84.588 407.268 83.1ZM420.112 75.972V87.6C420.112 88.56 420.316 89.244 420.724 89.652C421.132 90.036 421.84 90.228 422.848 90.228H425.26V93H422.308C420.484 93 419.116 92.58 418.204 91.74C417.292 90.9 416.836 89.52 416.836 87.6V75.972H414.28V73.272H416.836V68.304H420.112V73.272H425.26V75.972H420.112ZM447.229 82.38C447.229 83.004 447.193 83.664 447.121 84.36H431.353C431.473 86.304 432.133 87.828 433.333 88.932C434.557 90.012 436.033 90.552 437.761 90.552C439.177 90.552 440.353 90.228 441.289 89.58C442.249 88.908 442.921 88.02 443.305 86.916H446.833C446.305 88.812 445.249 90.36 443.665 91.56C442.081 92.736 440.113 93.324 437.761 93.324C435.889 93.324 434.209 92.904 432.721 92.064C431.257 91.224 430.105 90.036 429.265 88.5C428.425 86.94 428.005 85.14 428.005 83.1C428.005 81.06 428.413 79.272 429.229 77.736C430.045 76.2 431.185 75.024 432.649 74.208C434.137 73.368 435.841 72.948 437.761 72.948C439.633 72.948 441.289 73.356 442.729 74.172C444.169 74.988 445.273 76.116 446.041 77.556C446.833 78.972 447.229 80.58 447.229 82.38ZM443.845 81.696C443.845 80.448 443.569 79.38 443.017 78.492C442.465 77.58 441.709 76.896 440.749 76.44C439.813 75.96 438.769 75.72 437.617 75.72C435.961 75.72 434.545 76.248 433.369 77.304C432.217 78.36 431.557 79.824 431.389 81.696H443.845ZM450.329 83.064C450.329 81.048 450.737 79.284 451.553 77.772C452.369 76.236 453.485 75.048 454.901 74.208C456.341 73.368 457.949 72.948 459.725 72.948C461.261 72.948 462.689 73.308 464.009 74.028C465.329 74.724 466.337 75.648 467.033 76.8V66.36H470.345V93H467.033V89.292C466.385 90.468 465.425 91.44 464.153 92.208C462.881 92.952 461.393 93.324 459.689 93.324C457.937 93.324 456.341 92.892 454.901 92.028C453.485 91.164 452.369 89.952 451.553 88.392C450.737 86.832 450.329 85.056 450.329 83.064ZM467.033 83.1C467.033 81.612 466.733 80.316 466.133 79.212C465.533 78.108 464.717 77.268 463.685 76.692C462.677 76.092 461.561 75.792 460.337 75.792C459.113 75.792 457.997 76.08 456.989 76.656C455.981 77.232 455.177 78.072 454.577 79.176C453.977 80.28 453.677 81.576 453.677 83.064C453.677 84.576 453.977 85.896 454.577 87.024C455.177 88.128 455.981 88.98 456.989 89.58C457.997 90.156 459.113 90.444 460.337 90.444C461.561 90.444 462.677 90.156 463.685 89.58C464.717 88.98 465.533 88.128 466.133 87.024C466.733 85.896 467.033 84.588 467.033 83.1ZM511.759 73.272L505.603 93H502.219L497.467 77.34L492.715 93H489.331L483.139 73.272H486.487L491.023 89.832L495.919 73.272H499.267L504.055 89.868L508.519 73.272H511.759ZM516.702 70.068C516.078 70.068 515.55 69.852 515.118 69.42C514.686 68.988 514.47 68.46 514.47 67.836C514.47 67.212 514.686 66.684 515.118 66.252C515.55 65.82 516.078 65.604 516.702 65.604C517.302 65.604 517.806 65.82 518.214 66.252C518.646 66.684 518.862 67.212 518.862 67.836C518.862 68.46 518.646 68.988 518.214 69.42C517.806 69.852 517.302 70.068 516.702 70.068ZM518.286 73.272V93H515.01V73.272H518.286ZM527.866 75.972V87.6C527.866 88.56 528.07 89.244 528.478 89.652C528.886 90.036 529.594 90.228 530.602 90.228H533.014V93H530.062C528.238 93 526.87 92.58 525.958 91.74C525.046 90.9 524.59 89.52 524.59 87.6V75.972H522.034V73.272H524.59V68.304H527.866V73.272H533.014V75.972H527.866ZM546.775 72.912C548.263 72.912 549.607 73.236 550.807 73.884C552.007 74.508 552.943 75.456 553.615 76.728C554.311 78 554.659 79.548 554.659 81.372V93H551.419V81.84C551.419 79.872 550.927 78.372 549.943 77.34C548.959 76.284 547.615 75.756 545.911 75.756C544.183 75.756 542.803 76.296 541.771 77.376C540.763 78.456 540.259 80.028 540.259 82.092V93H536.983V66.36H540.259V76.08C540.907 75.072 541.795 74.292 542.923 73.74C544.075 73.188 545.359 72.912 546.775 72.912ZM72.048 130.36V157H68.772V130.36H72.048ZM76.4074 147.064C76.4074 145.048 76.8154 143.284 77.6314 141.772C78.4474 140.236 79.5634 139.048 80.9794 138.208C82.4194 137.368 84.0154 136.948 85.7674 136.948C87.4954 136.948 88.9954 137.32 90.2674 138.064C91.5394 138.808 92.4874 139.744 93.1114 140.872V137.272H96.4234V157H93.1114V153.328C92.4634 154.48 91.4914 155.44 90.1954 156.208C88.9234 156.952 87.4354 157.324 85.7314 157.324C83.9794 157.324 82.3954 156.892 80.9794 156.028C79.5634 155.164 78.4474 153.952 77.6314 152.392C76.8154 150.832 76.4074 149.056 76.4074 147.064ZM93.1114 147.1C93.1114 145.612 92.8114 144.316 92.2114 143.212C91.6114 142.108 90.7954 141.268 89.7634 140.692C88.7554 140.092 87.6394 139.792 86.4154 139.792C85.1914 139.792 84.0754 140.08 83.0674 140.656C82.0594 141.232 81.2554 142.072 80.6554 143.176C80.0554 144.28 79.7554 145.576 79.7554 147.064C79.7554 148.576 80.0554 149.896 80.6554 151.024C81.2554 152.128 82.0594 152.98 83.0674 153.58C84.0754 154.156 85.1914 154.444 86.4154 154.444C87.6394 154.444 88.7554 154.156 89.7634 153.58C90.7954 152.98 91.6114 152.128 92.2114 151.024C92.8114 149.896 93.1114 148.588 93.1114 147.1ZM105.956 139.972V151.6C105.956 152.56 106.16 153.244 106.568 153.652C106.976 154.036 107.684 154.228 108.691 154.228H111.104V157H108.152C106.328 157 104.96 156.58 104.048 155.74C103.136 154.9 102.68 153.52 102.68 151.6V139.972H100.124V137.272H102.68V132.304H105.956V137.272H111.104V139.972H105.956ZM133.073 146.38C133.073 147.004 133.037 147.664 132.965 148.36H117.197C117.317 150.304 117.977 151.828 119.177 152.932C120.401 154.012 121.877 154.552 123.605 154.552C125.021 154.552 126.197 154.228 127.133 153.58C128.093 152.908 128.765 152.02 129.149 150.916H132.677C132.149 152.812 131.093 154.36 129.509 155.56C127.925 156.736 125.957 157.324 123.605 157.324C121.733 157.324 120.053 156.904 118.565 156.064C117.101 155.224 115.949 154.036 115.109 152.5C114.269 150.94 113.849 149.14 113.849 147.1C113.849 145.06 114.257 143.272 115.073 141.736C115.889 140.2 117.029 139.024 118.493 138.208C119.981 137.368 121.685 136.948 123.605 136.948C125.477 136.948 127.133 137.356 128.573 138.172C130.013 138.988 131.117 140.116 131.885 141.556C132.677 142.972 133.073 144.58 133.073 146.38ZM129.689 145.696C129.689 144.448 129.413 143.38 128.861 142.492C128.309 141.58 127.553 140.896 126.593 140.44C125.657 139.96 124.613 139.72 123.461 139.72C121.805 139.72 120.389 140.248 119.213 141.304C118.061 142.36 117.401 143.824 117.233 145.696H129.689ZM144.381 157.324C142.869 157.324 141.513 157.072 140.313 156.568C139.113 156.04 138.165 155.32 137.469 154.408C136.773 153.472 136.389 152.404 136.317 151.204H139.701C139.797 152.188 140.253 152.992 141.069 153.616C141.909 154.24 143.001 154.552 144.345 154.552C145.593 154.552 146.577 154.276 147.297 153.724C148.017 153.172 148.377 152.476 148.377 151.636C148.377 150.772 147.993 150.136 147.225 149.728C146.457 149.296 145.269 148.876 143.661 148.468C142.197 148.084 140.997 147.7 140.061 147.316C139.149 146.908 138.357 146.32 137.685 145.552C137.037 144.76 136.713 143.728 136.713 142.456C136.713 141.448 137.013 140.524 137.613 139.684C138.213 138.844 139.065 138.184 140.169 137.704C141.273 137.2 142.533 136.948 143.949 136.948C146.133 136.948 147.897 137.5 149.241 138.604C150.585 139.708 151.305 141.22 151.401 143.14H148.125C148.053 142.108 147.633 141.28 146.865 140.656C146.121 140.032 145.113 139.72 143.841 139.72C142.665 139.72 141.729 139.972 141.033 140.476C140.337 140.98 139.989 141.64 139.989 142.456C139.989 143.104 140.193 143.644 140.601 144.076C141.033 144.484 141.561 144.82 142.185 145.084C142.833 145.324 143.721 145.6 144.849 145.912C146.265 146.296 147.417 146.68 148.305 147.064C149.193 147.424 149.949 147.976 150.573 148.72C151.221 149.464 151.557 150.436 151.581 151.636C151.581 152.716 151.281 153.688 150.681 154.552C150.081 155.416 149.229 156.1 148.125 156.604C147.045 157.084 145.797 157.324 144.381 157.324ZM160.202 139.972V151.6C160.202 152.56 160.406 153.244 160.814 153.652C161.222 154.036 161.93 154.228 162.938 154.228H165.35V157H162.398C160.574 157 159.206 156.58 158.294 155.74C157.382 154.9 156.926 153.52 156.926 151.6V139.972H154.37V137.272H156.926V132.304H160.202V137.272H165.35V139.972H160.202ZM267.622 147.064C267.622 145.048 268.03 143.284 268.846 141.772C269.662 140.236 270.778 139.048 272.194 138.208C273.634 137.368 275.23 136.948 276.982 136.948C278.71 136.948 280.21 137.32 281.482 138.064C282.754 138.808 283.702 139.744 284.326 140.872V137.272H287.638V157H284.326V153.328C283.678 154.48 282.706 155.44 281.41 156.208C280.138 156.952 278.65 157.324 276.946 157.324C275.194 157.324 273.61 156.892 272.194 156.028C270.778 155.164 269.662 153.952 268.846 152.392C268.03 150.832 267.622 149.056 267.622 147.064ZM284.326 147.1C284.326 145.612 284.026 144.316 283.426 143.212C282.826 142.108 282.01 141.268 280.978 140.692C279.97 140.092 278.854 139.792 277.63 139.792C276.406 139.792 275.29 140.08 274.282 140.656C273.274 141.232 272.47 142.072 271.87 143.176C271.27 144.28 270.97 145.576 270.97 147.064C270.97 148.576 271.27 149.896 271.87 151.024C272.47 152.128 273.274 152.98 274.282 153.58C275.29 154.156 276.406 154.444 277.63 154.444C278.854 154.444 279.97 154.156 280.978 153.58C282.01 152.98 282.826 152.128 283.426 151.024C284.026 149.896 284.326 148.588 284.326 147.1ZM302.786 136.912C305.186 136.912 307.13 137.644 308.618 139.108C310.106 140.548 310.85 142.636 310.85 145.372V157H307.61V145.84C307.61 143.872 307.118 142.372 306.134 141.34C305.15 140.284 303.806 139.756 302.102 139.756C300.374 139.756 298.994 140.296 297.962 141.376C296.954 142.456 296.45 144.028 296.45 146.092V157H293.174V137.272H296.45V140.08C297.098 139.072 297.974 138.292 299.078 137.74C300.206 137.188 301.442 136.912 302.786 136.912ZM314.978 147.064C314.978 145.048 315.386 143.284 316.202 141.772C317.018 140.236 318.134 139.048 319.55 138.208C320.99 137.368 322.598 136.948 324.374 136.948C325.91 136.948 327.338 137.308 328.658 138.028C329.978 138.724 330.986 139.648 331.682 140.8V130.36H334.994V157H331.682V153.292C331.034 154.468 330.074 155.44 328.802 156.208C327.53 156.952 326.042 157.324 324.338 157.324C322.586 157.324 320.99 156.892 319.55 156.028C318.134 155.164 317.018 153.952 316.202 152.392C315.386 150.832 314.978 149.056 314.978 147.064ZM331.682 147.1C331.682 145.612 331.382 144.316 330.782 143.212C330.182 142.108 329.366 141.268 328.334 140.692C327.326 140.092 326.21 139.792 324.986 139.792C323.762 139.792 322.646 140.08 321.638 140.656C320.63 141.232 319.826 142.072 319.226 143.176C318.626 144.28 318.326 145.576 318.326 147.064C318.326 148.576 318.626 149.896 319.226 151.024C319.826 152.128 320.63 152.98 321.638 153.58C322.646 154.156 323.762 154.444 324.986 154.444C326.21 154.444 327.326 154.156 328.334 153.58C329.366 152.98 330.182 152.128 330.782 151.024C331.382 149.896 331.682 148.588 331.682 147.1ZM67.548 211.064C67.548 209.048 67.956 207.284 68.772 205.772C69.588 204.236 70.704 203.048 72.12 202.208C73.56 201.368 75.156 200.948 76.908 200.948C78.636 200.948 80.136 201.32 81.408 202.064C82.68 202.808 83.628 203.744 84.252 204.872V201.272H87.564V221H84.252V217.328C83.604 218.48 82.632 219.44 81.336 220.208C80.064 220.952 78.576 221.324 76.872 221.324C75.12 221.324 73.536 220.892 72.12 220.028C70.704 219.164 69.588 217.952 68.772 216.392C67.956 214.832 67.548 213.056 67.548 211.064ZM84.252 211.1C84.252 209.612 83.952 208.316 83.352 207.212C82.752 206.108 81.936 205.268 80.904 204.692C79.896 204.092 78.78 203.792 77.556 203.792C76.332 203.792 75.216 204.08 74.208 204.656C73.2 205.232 72.396 206.072 71.796 207.176C71.196 208.28 70.896 209.576 70.896 211.064C70.896 212.576 71.196 213.896 71.796 215.024C72.396 216.128 73.2 216.98 74.208 217.58C75.216 218.156 76.332 218.444 77.556 218.444C78.78 218.444 79.896 218.156 80.904 217.58C81.936 216.98 82.752 216.128 83.352 215.024C83.952 213.896 84.252 212.588 84.252 211.1ZM96.3761 204.476C96.9521 203.348 97.7681 202.472 98.8241 201.848C99.9041 201.224 101.212 200.912 102.748 200.912V204.296H101.884C98.2121 204.296 96.3761 206.288 96.3761 210.272V221H93.1001V201.272H96.3761V204.476ZM115.134 221.324C113.286 221.324 111.606 220.904 110.094 220.064C108.606 219.224 107.43 218.036 106.566 216.5C105.726 214.94 105.306 213.14 105.306 211.1C105.306 209.084 105.738 207.308 106.602 205.772C107.49 204.212 108.69 203.024 110.202 202.208C111.714 201.368 113.406 200.948 115.278 200.948C117.15 200.948 118.842 201.368 120.354 202.208C121.866 203.024 123.054 204.2 123.918 205.736C124.806 207.272 125.25 209.06 125.25 211.1C125.25 213.14 124.794 214.94 123.882 216.5C122.994 218.036 121.782 219.224 120.246 220.064C118.71 220.904 117.006 221.324 115.134 221.324ZM115.134 218.444C116.31 218.444 117.414 218.168 118.446 217.616C119.478 217.064 120.306 216.236 120.93 215.132C121.578 214.028 121.902 212.684 121.902 211.1C121.902 209.516 121.59 208.172 120.966 207.068C120.342 205.964 119.526 205.148 118.518 204.62C117.51 204.068 116.418 203.792 115.242 203.792C114.042 203.792 112.938 204.068 111.93 204.62C110.946 205.148 110.154 205.964 109.554 207.068C108.954 208.172 108.654 209.516 108.654 211.1C108.654 212.708 108.942 214.064 109.518 215.168C110.118 216.272 110.91 217.1 111.894 217.652C112.878 218.18 113.958 218.444 115.134 218.444ZM147.053 201.272V221H143.777V218.084C143.153 219.092 142.277 219.884 141.149 220.46C140.045 221.012 138.821 221.288 137.477 221.288C135.941 221.288 134.561 220.976 133.337 220.352C132.113 219.704 131.141 218.744 130.421 217.472C129.725 216.2 129.377 214.652 129.377 212.828V201.272H132.617V212.396C132.617 214.34 133.109 215.84 134.093 216.896C135.077 217.928 136.421 218.444 138.125 218.444C139.877 218.444 141.257 217.904 142.265 216.824C143.273 215.744 143.777 214.172 143.777 212.108V201.272H147.053ZM162.197 200.912C164.597 200.912 166.541 201.644 168.029 203.108C169.517 204.548 170.261 206.636 170.261 209.372V221H167.021V209.84C167.021 207.872 166.529 206.372 165.545 205.34C164.561 204.284 163.217 203.756 161.513 203.756C159.785 203.756 158.405 204.296 157.373 205.376C156.365 206.456 155.861 208.028 155.861 210.092V221H152.585V201.272H155.861V204.08C156.509 203.072 157.385 202.292 158.489 201.74C159.617 201.188 160.853 200.912 162.197 200.912ZM174.388 211.064C174.388 209.048 174.796 207.284 175.612 205.772C176.428 204.236 177.544 203.048 178.96 202.208C180.4 201.368 182.008 200.948 183.784 200.948C185.32 200.948 186.748 201.308 188.068 202.028C189.388 202.724 190.396 203.648 191.092 204.8V194.36H194.404V221H191.092V217.292C190.444 218.468 189.484 219.44 188.212 220.208C186.94 220.952 185.452 221.324 183.748 221.324C181.996 221.324 180.4 220.892 178.96 220.028C177.544 219.164 176.428 217.952 175.612 216.392C174.796 214.832 174.388 213.056 174.388 211.064ZM191.092 211.1C191.092 209.612 190.792 208.316 190.192 207.212C189.592 206.108 188.776 205.268 187.744 204.692C186.736 204.092 185.62 203.792 184.396 203.792C183.172 203.792 182.056 204.08 181.048 204.656C180.04 205.232 179.236 206.072 178.636 207.176C178.036 208.28 177.736 209.576 177.736 211.064C177.736 212.576 178.036 213.896 178.636 215.024C179.236 216.128 180.04 216.98 181.048 217.58C182.056 218.156 183.172 218.444 184.396 218.444C185.62 218.444 186.736 218.156 187.744 217.58C188.776 216.98 189.592 216.128 190.192 215.024C190.792 213.896 191.092 212.588 191.092 211.1ZM213.534 203.972V215.6C213.534 216.56 213.738 217.244 214.146 217.652C214.554 218.036 215.262 218.228 216.27 218.228H218.682V221H215.73C213.906 221 212.538 220.58 211.626 219.74C210.714 218.9 210.258 217.52 210.258 215.6V203.972H207.702V201.272H210.258V196.304H213.534V201.272H218.682V203.972H213.534ZM232.443 200.912C233.931 200.912 235.275 201.236 236.475 201.884C237.675 202.508 238.611 203.456 239.283 204.728C239.979 206 240.327 207.548 240.327 209.372V221H237.087V209.84C237.087 207.872 236.595 206.372 235.611 205.34C234.627 204.284 233.283 203.756 231.579 203.756C229.851 203.756 228.471 204.296 227.439 205.376C226.431 206.456 225.927 208.028 225.927 210.092V221H222.651V194.36H225.927V204.08C226.575 203.072 227.463 202.292 228.591 201.74C229.743 201.188 231.027 200.912 232.443 200.912ZM263.678 210.38C263.678 211.004 263.642 211.664 263.57 212.36H247.802C247.922 214.304 248.582 215.828 249.782 216.932C251.006 218.012 252.482 218.552 254.21 218.552C255.626 218.552 256.802 218.228 257.738 217.58C258.698 216.908 259.37 216.02 259.754 214.916H263.282C262.754 216.812 261.698 218.36 260.114 219.56C258.53 220.736 256.562 221.324 254.21 221.324C252.338 221.324 250.658 220.904 249.17 220.064C247.706 219.224 246.554 218.036 245.714 216.5C244.874 214.94 244.454 213.14 244.454 211.1C244.454 209.06 244.862 207.272 245.678 205.736C246.494 204.2 247.634 203.024 249.098 202.208C250.586 201.368 252.29 200.948 254.21 200.948C256.082 200.948 257.738 201.356 259.178 202.172C260.618 202.988 261.722 204.116 262.49 205.556C263.282 206.972 263.678 208.58 263.678 210.38ZM260.294 209.696C260.294 208.448 260.018 207.38 259.466 206.492C258.914 205.58 258.158 204.896 257.198 204.44C256.262 203.96 255.218 203.72 254.066 203.72C252.41 203.72 250.994 204.248 249.818 205.304C248.666 206.36 248.006 207.824 247.838 209.696H260.294ZM303.88 201.272L297.724 221H294.34L289.588 205.34L284.836 221H281.452L275.26 201.272H278.608L283.144 217.832L288.04 201.272H291.388L296.176 217.868L300.64 201.272H303.88ZM315.735 221.324C313.887 221.324 312.207 220.904 310.695 220.064C309.207 219.224 308.031 218.036 307.167 216.5C306.327 214.94 305.907 213.14 305.907 211.1C305.907 209.084 306.339 207.308 307.203 205.772C308.091 204.212 309.291 203.024 310.803 202.208C312.315 201.368 314.007 200.948 315.879 200.948C317.751 200.948 319.443 201.368 320.955 202.208C322.467 203.024 323.655 204.2 324.519 205.736C325.407 207.272 325.851 209.06 325.851 211.1C325.851 213.14 325.395 214.94 324.483 216.5C323.595 218.036 322.383 219.224 320.847 220.064C319.311 220.904 317.607 221.324 315.735 221.324ZM315.735 218.444C316.911 218.444 318.015 218.168 319.047 217.616C320.079 217.064 320.907 216.236 321.531 215.132C322.179 214.028 322.503 212.684 322.503 211.1C322.503 209.516 322.191 208.172 321.567 207.068C320.943 205.964 320.127 205.148 319.119 204.62C318.111 204.068 317.019 203.792 315.843 203.792C314.643 203.792 313.539 204.068 312.531 204.62C311.547 205.148 310.755 205.964 310.155 207.068C309.555 208.172 309.255 209.516 309.255 211.1C309.255 212.708 309.543 214.064 310.119 215.168C310.719 216.272 311.511 217.1 312.495 217.652C313.479 218.18 314.559 218.444 315.735 218.444ZM333.435 204.476C334.011 203.348 334.827 202.472 335.883 201.848C336.963 201.224 338.271 200.912 339.807 200.912V204.296H338.943C335.271 204.296 333.435 206.288 333.435 210.272V221H330.159V201.272H333.435V204.476ZM346.864 194.36V221H343.588V194.36H346.864ZM351.224 211.064C351.224 209.048 351.632 207.284 352.448 205.772C353.264 204.236 354.38 203.048 355.796 202.208C357.236 201.368 358.844 200.948 360.62 200.948C362.156 200.948 363.584 201.308 364.904 202.028C366.224 202.724 367.232 203.648 367.928 204.8V194.36H371.24V221H367.928V217.292C367.28 218.468 366.32 219.44 365.048 220.208C363.776 220.952 362.288 221.324 360.584 221.324C358.832 221.324 357.236 220.892 355.796 220.028C354.38 219.164 353.264 217.952 352.448 216.392C351.632 214.832 351.224 213.056 351.224 211.064ZM367.928 211.1C367.928 209.612 367.628 208.316 367.028 207.212C366.428 206.108 365.612 205.268 364.58 204.692C363.572 204.092 362.456 203.792 361.232 203.792C360.008 203.792 358.892 204.08 357.884 204.656C356.876 205.232 356.072 206.072 355.472 207.176C354.872 208.28 354.572 209.576 354.572 211.064C354.572 212.576 354.872 213.896 355.472 215.024C356.072 216.128 356.876 216.98 357.884 217.58C358.892 218.156 360.008 218.444 361.232 218.444C362.456 218.444 363.572 218.156 364.58 217.58C365.612 216.98 366.428 216.128 367.028 215.024C367.628 213.896 367.928 212.588 367.928 211.1ZM377.82 221.216C377.196 221.216 376.668 221 376.236 220.568C375.804 220.136 375.588 219.608 375.588 218.984C375.588 218.36 375.804 217.832 376.236 217.4C376.668 216.968 377.196 216.752 377.82 216.752C378.42 216.752 378.924 216.968 379.332 217.4C379.764 217.832 379.98 218.36 379.98 218.984C379.98 219.608 379.764 220.136 379.332 220.568C378.924 221 378.42 221.216 377.82 221.216Z" fill="white"/>
<path d="M182.913 139.972V151.6C182.913 152.56 183.117 153.244 183.525 153.652C183.933 154.036 184.641 154.228 185.649 154.228H188.061V157H185.109C183.285 157 181.917 156.58 181.005 155.74C180.093 154.9 179.637 153.52 179.637 151.6V139.972H177.081V137.272H179.637V132.304H182.913V137.272H188.061V139.972H182.913ZM210.03 146.38C210.03 147.004 209.994 147.664 209.922 148.36H194.154C194.274 150.304 194.934 151.828 196.134 152.932C197.358 154.012 198.834 154.552 200.562 154.552C201.978 154.552 203.154 154.228 204.09 153.58C205.05 152.908 205.722 152.02 206.106 150.916H209.634C209.106 152.812 208.05 154.36 206.466 155.56C204.882 156.736 202.914 157.324 200.562 157.324C198.69 157.324 197.01 156.904 195.522 156.064C194.058 155.224 192.906 154.036 192.066 152.5C191.226 150.94 190.806 149.14 190.806 147.1C190.806 145.06 191.214 143.272 192.03 141.736C192.846 140.2 193.986 139.024 195.45 138.208C196.938 137.368 198.642 136.948 200.562 136.948C202.434 136.948 204.09 137.356 205.53 138.172C206.97 138.988 208.074 140.116 208.842 141.556C209.634 142.972 210.03 144.58 210.03 146.38ZM206.646 145.696C206.646 144.448 206.37 143.38 205.818 142.492C205.266 141.58 204.51 140.896 203.55 140.44C202.614 139.96 201.57 139.72 200.418 139.72C198.762 139.72 197.346 140.248 196.17 141.304C195.018 142.36 194.358 143.824 194.19 145.696H206.646ZM213.13 147.1C213.13 145.06 213.538 143.284 214.354 141.772C215.17 140.236 216.298 139.048 217.738 138.208C219.202 137.368 220.87 136.948 222.742 136.948C225.166 136.948 227.158 137.536 228.718 138.712C230.302 139.888 231.346 141.52 231.85 143.608H228.322C227.986 142.408 227.326 141.46 226.342 140.764C225.382 140.068 224.182 139.72 222.742 139.72C220.87 139.72 219.358 140.368 218.206 141.664C217.054 142.936 216.478 144.748 216.478 147.1C216.478 149.476 217.054 151.312 218.206 152.608C219.358 153.904 220.87 154.552 222.742 154.552C224.182 154.552 225.382 154.216 226.342 153.544C227.302 152.872 227.962 151.912 228.322 150.664H231.85C231.322 152.68 230.266 154.3 228.682 155.524C227.098 156.724 225.118 157.324 222.742 157.324C220.87 157.324 219.202 156.904 217.738 156.064C216.298 155.224 215.17 154.036 214.354 152.5C213.538 150.964 213.13 149.164 213.13 147.1ZM246.013 136.912C247.501 136.912 248.845 137.236 250.045 137.884C251.245 138.508 252.181 139.456 252.853 140.728C253.549 142 253.897 143.548 253.897 145.372V157H250.657V145.84C250.657 143.872 250.165 142.372 249.181 141.34C248.197 140.284 246.853 139.756 245.149 139.756C243.421 139.756 242.041 140.296 241.009 141.376C240.001 142.456 239.497 144.028 239.497 146.092V157H236.221V130.36H239.497V140.08C240.145 139.072 241.033 138.292 242.161 137.74C243.313 137.188 244.597 136.912 246.013 136.912ZM348.903 147.064C348.903 145.048 349.311 143.284 350.127 141.772C350.943 140.236 352.059 139.048 353.475 138.208C354.915 137.368 356.523 136.948 358.299 136.948C359.835 136.948 361.263 137.308 362.583 138.028C363.903 138.724 364.911 139.648 365.607 140.8V130.36H368.919V157H365.607V153.292C364.959 154.468 363.999 155.44 362.727 156.208C361.455 156.952 359.967 157.324 358.263 157.324C356.511 157.324 354.915 156.892 353.475 156.028C352.059 155.164 350.943 153.952 350.127 152.392C349.311 150.832 348.903 149.056 348.903 147.064ZM365.607 147.1C365.607 145.612 365.307 144.316 364.707 143.212C364.107 142.108 363.291 141.268 362.259 140.692C361.251 140.092 360.135 139.792 358.911 139.792C357.687 139.792 356.571 140.08 355.563 140.656C354.555 141.232 353.751 142.072 353.151 143.176C352.551 144.28 352.251 145.576 352.251 147.064C352.251 148.576 352.551 149.896 353.151 151.024C353.751 152.128 354.555 152.98 355.563 153.58C356.571 154.156 357.687 154.444 358.911 154.444C360.135 154.444 361.251 154.156 362.259 153.58C363.291 152.98 364.107 152.128 364.707 151.024C365.307 149.896 365.607 148.588 365.607 147.1ZM392.456 146.38C392.456 147.004 392.42 147.664 392.348 148.36H376.58C376.7 150.304 377.36 151.828 378.56 152.932C379.784 154.012 381.26 154.552 382.988 154.552C384.404 154.552 385.58 154.228 386.516 153.58C387.476 152.908 388.148 152.02 388.532 150.916H392.06C391.532 152.812 390.476 154.36 388.892 155.56C387.308 156.736 385.34 157.324 382.988 157.324C381.116 157.324 379.436 156.904 377.948 156.064C376.484 155.224 375.332 154.036 374.492 152.5C373.652 150.94 373.232 149.14 373.232 147.1C373.232 145.06 373.64 143.272 374.456 141.736C375.272 140.2 376.412 139.024 377.876 138.208C379.364 137.368 381.068 136.948 382.988 136.948C384.86 136.948 386.516 137.356 387.956 138.172C389.396 138.988 390.5 140.116 391.268 141.556C392.06 142.972 392.456 144.58 392.456 146.38ZM389.072 145.696C389.072 144.448 388.796 143.38 388.244 142.492C387.692 141.58 386.936 140.896 385.976 140.44C385.04 139.96 383.996 139.72 382.844 139.72C381.188 139.72 379.772 140.248 378.596 141.304C377.444 142.36 376.784 143.824 376.616 145.696H389.072ZM404.124 153.976L410.244 137.272H413.736L405.996 157H402.18L394.44 137.272H397.968L404.124 153.976ZM434.96 146.38C434.96 147.004 434.924 147.664 434.852 148.36H419.084C419.204 150.304 419.864 151.828 421.064 152.932C422.288 154.012 423.764 154.552 425.492 154.552C426.908 154.552 428.084 154.228 429.02 153.58C429.98 152.908 430.652 152.02 431.036 150.916H434.564C434.036 152.812 432.98 154.36 431.396 155.56C429.812 156.736 427.844 157.324 425.492 157.324C423.62 157.324 421.94 156.904 420.452 156.064C418.988 155.224 417.836 154.036 416.996 152.5C416.156 150.94 415.736 149.14 415.736 147.1C415.736 145.06 416.144 143.272 416.96 141.736C417.776 140.2 418.916 139.024 420.38 138.208C421.868 137.368 423.572 136.948 425.492 136.948C427.364 136.948 429.02 137.356 430.46 138.172C431.9 138.988 433.004 140.116 433.772 141.556C434.564 142.972 434.96 144.58 434.96 146.38ZM431.576 145.696C431.576 144.448 431.3 143.38 430.748 142.492C430.196 141.58 429.44 140.896 428.48 140.44C427.544 139.96 426.5 139.72 425.348 139.72C423.692 139.72 422.276 140.248 421.1 141.304C419.948 142.36 419.288 143.824 419.12 145.696H431.576ZM442.56 130.36V157H439.284V130.36H442.56ZM466.143 146.38C466.143 147.004 466.107 147.664 466.035 148.36H450.267C450.387 150.304 451.047 151.828 452.247 152.932C453.471 154.012 454.947 154.552 456.675 154.552C458.091 154.552 459.267 154.228 460.203 153.58C461.163 152.908 461.835 152.02 462.219 150.916H465.747C465.219 152.812 464.163 154.36 462.579 155.56C460.995 156.736 459.027 157.324 456.675 157.324C454.803 157.324 453.123 156.904 451.635 156.064C450.171 155.224 449.019 154.036 448.179 152.5C447.339 150.94 446.919 149.14 446.919 147.1C446.919 145.06 447.327 143.272 448.143 141.736C448.959 140.2 450.099 139.024 451.563 138.208C453.051 137.368 454.755 136.948 456.675 136.948C458.547 136.948 460.203 137.356 461.643 138.172C463.083 138.988 464.187 140.116 464.955 141.556C465.747 142.972 466.143 144.58 466.143 146.38ZM462.759 145.696C462.759 144.448 462.483 143.38 461.931 142.492C461.379 141.58 460.623 140.896 459.663 140.44C458.727 139.96 457.683 139.72 456.531 139.72C454.875 139.72 453.459 140.248 452.283 141.304C451.131 142.36 450.471 143.824 450.303 145.696H462.759ZM473.743 140.908C474.391 139.78 475.351 138.844 476.623 138.1C477.919 137.332 479.419 136.948 481.123 136.948C482.875 136.948 484.459 137.368 485.875 138.208C487.315 139.048 488.443 140.236 489.259 141.772C490.075 143.284 490.483 145.048 490.483 147.064C490.483 149.056 490.075 150.832 489.259 152.392C488.443 153.952 487.315 155.164 485.875 156.028C484.459 156.892 482.875 157.324 481.123 157.324C479.443 157.324 477.955 156.952 476.659 156.208C475.387 155.44 474.415 154.492 473.743 153.364V166.36H470.467V137.272H473.743V140.908ZM487.135 147.064C487.135 145.576 486.835 144.28 486.235 143.176C485.635 142.072 484.819 141.232 483.787 140.656C482.779 140.08 481.663 139.792 480.439 139.792C479.239 139.792 478.123 140.092 477.091 140.692C476.083 141.268 475.267 142.12 474.643 143.248C474.043 144.352 473.743 145.636 473.743 147.1C473.743 148.588 474.043 149.896 474.643 151.024C475.267 152.128 476.083 152.98 477.091 153.58C478.123 154.156 479.239 154.444 480.439 154.444C481.663 154.444 482.779 154.156 483.787 153.58C484.819 152.98 485.635 152.128 486.235 151.024C486.835 149.896 487.135 148.576 487.135 147.064ZM518.519 136.912C520.055 136.912 521.423 137.236 522.623 137.884C523.823 138.508 524.771 139.456 525.467 140.728C526.163 142 526.511 143.548 526.511 145.372V157H523.271V145.84C523.271 143.872 522.779 142.372 521.795 141.34C520.835 140.284 519.527 139.756 517.871 139.756C516.167 139.756 514.811 140.308 513.803 141.412C512.795 142.492 512.291 144.064 512.291 146.128V157H509.051V145.84C509.051 143.872 508.559 142.372 507.575 141.34C506.615 140.284 505.307 139.756 503.651 139.756C501.947 139.756 500.591 140.308 499.583 141.412C498.575 142.492 498.071 144.064 498.071 146.128V157H494.795V137.272H498.071V140.116C498.719 139.084 499.583 138.292 500.663 137.74C501.767 137.188 502.979 136.912 504.299 136.912C505.955 136.912 507.419 137.284 508.691 138.028C509.963 138.772 510.911 139.864 511.535 141.304C512.087 139.912 512.999 138.832 514.271 138.064C515.543 137.296 516.959 136.912 518.519 136.912ZM549.885 146.38C549.885 147.004 549.849 147.664 549.777 148.36H534.009C534.129 150.304 534.789 151.828 535.989 152.932C537.213 154.012 538.689 154.552 540.417 154.552C541.833 154.552 543.009 154.228 543.945 153.58C544.905 152.908 545.577 152.02 545.961 150.916H549.489C548.961 152.812 547.905 154.36 546.321 155.56C544.737 156.736 542.769 157.324 540.417 157.324C538.545 157.324 536.865 156.904 535.377 156.064C533.913 155.224 532.761 154.036 531.921 152.5C531.081 150.94 530.661 149.14 530.661 147.1C530.661 145.06 531.069 143.272 531.885 141.736C532.701 140.2 533.841 139.024 535.305 138.208C536.793 137.368 538.497 136.948 540.417 136.948C542.289 136.948 543.945 137.356 545.385 138.172C546.825 138.988 547.929 140.116 548.697 141.556C549.489 142.972 549.885 144.58 549.885 146.38ZM546.501 145.696C546.501 144.448 546.225 143.38 545.673 142.492C545.121 141.58 544.365 140.896 543.405 140.44C542.469 139.96 541.425 139.72 540.273 139.72C538.617 139.72 537.201 140.248 536.025 141.304C534.873 142.36 534.213 143.824 534.045 145.696H546.501ZM563.822 136.912C566.222 136.912 568.166 137.644 569.654 139.108C571.142 140.548 571.886 142.636 571.886 145.372V157H568.646V145.84C568.646 143.872 568.154 142.372 567.17 141.34C566.186 140.284 564.842 139.756 563.138 139.756C561.41 139.756 560.03 140.296 558.998 141.376C557.99 142.456 557.486 144.028 557.486 146.092V157H554.21V137.272H557.486V140.08C558.134 139.072 559.01 138.292 560.114 137.74C561.242 137.188 562.478 136.912 563.822 136.912ZM581.233 139.972V151.6C581.233 152.56 581.437 153.244 581.845 153.652C582.253 154.036 582.961 154.228 583.969 154.228H586.381V157H583.429C581.605 157 580.237 156.58 579.325 155.74C578.413 154.9 577.957 153.52 577.957 151.6V139.972H575.401V137.272H577.957V132.304H581.233V137.272H586.381V139.972H581.233Z" fill="#F7DC3D"/>
<circle r="102.5" transform="matrix(-1 0 0 1 723 335)" fill="#F7DC3D" stroke="white" stroke-width="5"/>
<mask id="mask0_28_20156" style="mask-type:alpha" maskUnits="userSpaceOnUse" x="623" y="235" width="200" height="200">
<circle r="97.5" transform="matrix(-1 0 0 1 723 335)" fill="white" stroke="white" stroke-width="5"/>
</mask>
<g mask="url(#mask0_28_20156)">
<path fill-rule="evenodd" clip-rule="evenodd" d="M674.834 374.158C676.292 368.529 677.634 366.142 680.225 364.186C682.649 362.355 686.187 360.818 691.349 359.696C696.726 358.76 696.878 355.98 698.226 351.511C698.62 350.167 700.569 349.81 701.41 350.778C701.528 350.651 701.652 350.534 701.78 350.429C701.666 349.788 702.603 347.951 702.572 347.339C702.245 340.941 704.348 337.729 709.597 336.535C710.738 336.275 718.492 336.122 719.605 336.428C724.471 337.767 729.261 342.016 728.528 347.136C730.055 349.122 731.55 350.334 733.906 350.974C737.576 351.438 735.733 403.166 729.359 434.157C726.625 447.453 661.24 424.822 664.195 418.162C663.776 416.942 664.539 415.6 664.195 414.339C663.945 413.427 663.307 413.05 662.985 412.147C662.533 410.875 663.025 409.17 663.534 407.873C663.743 407.226 663.15 406.531 662.985 405.871C662.204 402.759 663.993 403.034 665.283 400.954C665.264 400.947 664.928 399.462 664.93 399.47C664.732 398.409 665.227 397.051 665.659 396.166C665.951 395.568 666.575 395.194 667.196 395.262C666.571 393.15 665.78 391.393 664.93 389.358C663.426 385.772 661.996 382.02 659.837 378.773C658.952 377.444 659.667 376.221 661.098 376.131C665.73 375.838 670.311 375.174 674.834 374.158Z" fill="#D08B5B"/>
<path fill-rule="evenodd" clip-rule="evenodd" d="M682.065 374.593L692.638 392.398C692.638 392.398 690.129 392.647 689.114 393.132C688.099 393.617 683.439 399.513 683.439 399.513L682.698 402.759L684.453 405.377L683.769 407.02C683.769 407.02 683.28 405.907 682.065 405.042C680.849 404.178 678.168 402.759 678.168 402.759C678.168 402.759 679.059 402.285 679.059 401.728C679.059 401.172 679.844 398.796 678.168 397.899C676.493 397.002 667.835 394.902 667.835 394.902L659.06 376.484L682.065 374.593Z" fill="#EC7495"/>
<path fill-rule="evenodd" clip-rule="evenodd" d="M729.23 351.095L695.657 356.958L680.225 364.185L677.706 366.116L692.637 392.397L715.693 396.583L721.567 411.765L720.368 428.878L682.861 424.428L666.682 422.515L662.879 437.793L663.566 444.079L664.565 447.266L704.674 458.041C704.674 458.041 725.097 456.071 728.718 456.071C732.338 456.071 758.883 458.694 758.883 458.694L765.024 458.041C765.024 458.041 778.613 443.79 780.72 438.718C782.828 433.646 787.385 402.815 787.385 402.815L786.883 398.077L775.143 368.014C775.143 368.014 773.576 366.597 771.599 364.185C769.623 361.773 729.23 351.095 729.23 351.095Z" fill="white"/>
<path fill-rule="evenodd" clip-rule="evenodd" d="M668.467 394.522C671.501 394.676 674.539 395.393 677.283 396.694C678.406 397.227 679.424 397.996 679.721 399.262C679.872 399.908 679.835 400.576 679.755 401.229C679.695 401.723 679.68 402.355 679.248 402.689C679.174 402.746 679.096 402.789 679.014 402.821C680.026 403.276 680.99 403.822 681.847 404.385C682.63 404.899 683.435 405.692 683.796 406.586C683.826 406.485 683.857 406.39 683.887 406.3C684.503 404.488 685.451 403.004 686.946 402.007C687.116 401.391 688.937 398.742 690.628 398.842C692.481 398.951 693.971 399.085 695.646 399.933C696.257 399.92 696.866 399.928 697.469 399.955C697.572 399.958 697.567 400.098 697.469 400.11C696.98 400.171 696.491 400.24 696.003 400.319C694.841 400.505 693.683 400.739 692.55 401.031C691.191 401.381 689.786 401.732 688.516 402.343C686.052 403.531 684.528 406.635 684.841 409.336C684.892 409.779 685.065 411.118 685.683 410.98C686.204 410.863 686.412 409.779 686.594 409.378C687.083 408.312 687.963 407.616 689.019 407.144C690.259 406.59 691.586 406.215 692.872 405.779C693.6 405.531 694.328 405.282 695.057 405.036C695.804 404.781 696.513 404.43 697.308 404.608C697.788 404.716 697.844 405.286 697.574 405.612C697.164 406.11 696.555 406.257 695.964 406.462C695.184 406.731 694.406 407.001 693.628 407.271C692.425 407.687 691.165 408.039 689.992 408.548L690.028 408.632C690.124 408.605 690.236 408.7 690.217 408.816C690.042 409.894 689.797 411.14 690.069 412.219C690.283 413.075 691.038 414.023 692.018 413.771C691.864 413.631 691.807 413.39 691.911 413.167C692.299 412.341 697.387 409.08 697.84 410.291C697.855 410.334 697.809 410.365 697.772 410.359C697.385 410.279 696.737 410.935 696.428 411.143C695.981 411.443 695.528 411.736 695.086 412.044C694.602 412.381 694.13 412.734 693.67 413.098C693.308 413.385 693.036 413.683 692.621 413.828C692.838 413.931 693.011 414.123 693.084 414.367C693.272 415.005 693.633 415.546 694.261 415.828C694.918 416.121 695.66 415.936 696.352 416.008C697.296 416.103 698.12 416.549 698.807 417.187C700.252 418.529 700.976 420.894 702.996 421.529C704.203 421.907 705.542 421.669 706.763 421.497C708.127 421.306 709.456 421.154 710.83 421.354C712.145 421.546 713.389 421.998 714.59 422.551C715.716 423.069 716.961 423.656 717.96 424.428C718.166 423.797 718.374 423.172 718.531 422.528C718.903 421.004 719.103 419.452 719.152 417.886C719.197 416.396 719.113 414.899 718.985 413.415C718.921 412.674 718.821 411.936 718.757 411.195C718.74 411.008 718.707 410.808 718.682 410.609C716.898 409.561 715.024 408.758 713.134 407.932C713.129 407.931 713.124 407.927 713.119 407.926C713.061 407.899 713.004 407.874 712.945 407.849C712.947 407.846 712.948 407.842 712.952 407.839C712.736 407.707 712.585 407.532 712.495 407.336C709.772 405.539 707.496 403.086 705.799 400.225C705.088 399.025 704.404 397.781 703.473 396.731C702.482 395.61 701.306 394.943 699.85 394.597C698.148 394.191 696.394 393.948 694.651 393.809C693.698 393.735 692.634 393.618 691.596 393.623C690.873 393.628 690.166 393.689 689.516 393.868C688.554 394.131 687.992 394.859 687.388 395.595C686.81 396.301 686.236 397.009 685.697 397.745C685.187 398.443 684.705 399.164 684.287 399.92C684.036 400.373 683.803 400.839 683.607 401.32C683.539 401.49 683.448 401.683 683.406 401.86C683.365 402.038 683.442 402.227 683.241 402.227C684.069 402.238 684.62 404.294 683.796 404.245C682.639 404.178 682.057 402.797 682.284 401.572C682.688 399.386 684.874 396.745 685.306 396.186C686.262 394.95 687.247 393.338 688.777 392.763C688.798 392.755 688.822 392.747 688.844 392.74C688.398 392.32 688.047 391.818 687.711 391.306C687.364 390.78 686.951 390.177 686.837 389.552C686.765 389.155 687.262 388.928 687.498 389.276C687.841 389.784 688.007 390.427 688.263 390.985C688.524 391.551 688.842 392.086 689.093 392.657C689.697 392.472 690.35 392.387 691.014 392.359C690.176 391.23 688.743 389.051 688.571 388.771C687.778 387.476 687.023 386.14 686.302 384.803C685.522 383.354 684.854 381.845 684.108 380.379C683.684 379.548 683.257 378.711 682.787 377.905C682.625 377.628 682.451 377.352 682.253 377.1C682.215 377.05 682.166 377.009 682.121 376.962C682.069 376.934 682.016 376.902 681.986 376.885C681.715 376.731 681.619 376.371 681.429 376.142C681.124 375.775 680.766 375.731 680.307 375.726C679.33 375.716 678.349 375.754 677.374 375.781C675.939 375.821 674.507 375.878 673.074 375.953C672.641 375.976 672.209 375.999 671.776 376.026C669.692 376.149 667.61 376.311 665.534 376.509C663.696 376.684 661.859 376.969 660.019 377.105C662.51 382.993 665.271 388.773 668.397 394.352C668.429 394.409 668.452 394.466 668.467 394.522ZM682.284 409.689C682.685 409.873 683.075 410.101 683.438 410.36C683.378 409.956 683.363 409.529 683.38 409.101C683.08 409.421 682.697 409.604 682.284 409.689ZM665.139 399.562C665.167 399.565 665.194 399.58 665.207 399.608C665.763 400.749 665.53 402.023 664.623 402.918C664.148 403.384 663.112 403.91 663.146 404.676C663.174 405.296 663.852 405.815 664.141 406.327C664.411 406.803 664.511 407.326 664.295 407.842C664.019 408.503 663.248 408.767 662.983 409.416C662.649 410.24 663.192 411.235 663.574 411.952C663.929 412.617 664.387 413.281 664.692 413.984C666.732 415.035 671.361 416.944 671.918 417.051C672.597 417.182 673.279 417.307 673.961 417.424C675.272 417.65 676.585 417.86 677.902 418.045C678.652 418.15 679.403 418.253 680.155 418.334C680.811 418.404 681.551 418.499 682.079 418.008C683.145 417.015 682.548 415.352 681.874 414.349C681.86 414.329 681.86 414.311 681.865 414.294C681.229 414.146 680.595 413.973 679.962 413.851C678.746 413.618 677.521 413.422 676.294 413.247C673.774 412.888 671.237 412.652 668.703 412.414C668.076 412.354 668.069 411.371 668.703 411.43C672.343 411.761 676.001 412.076 679.593 412.774C680.493 412.947 681.387 413.143 682.275 413.365C682.695 413.468 683.145 413.63 683.585 413.635C683.612 413.635 683.639 413.635 683.666 413.633C684.528 413.606 684.653 412.872 684.18 412.261C684.121 412.186 684.061 412.111 683.999 412.039C683.162 411.046 682.12 410.384 681.045 409.697C679.842 409.534 678.642 409.171 677.464 408.905C674.555 408.245 671.647 407.586 668.737 406.928C668.166 406.798 668.409 405.925 668.979 406.054C671.188 406.552 673.397 407.049 675.606 407.547L678.84 408.277C679.485 408.422 680.292 408.713 681.052 408.818C681.427 408.87 681.79 408.876 682.118 408.8C683.177 408.55 683.231 407.233 682.774 406.45C682.262 405.571 681.295 405.021 680.436 404.523C678.948 403.659 677.365 403.037 675.819 402.321C675.544 402.261 675.27 402.201 674.996 402.141C673.399 401.792 671.575 401.62 670.072 400.979C669.622 400.789 669.868 400.083 670.313 400.093C671.48 400.118 672.699 400.531 673.839 400.776C675.072 401.042 676.308 401.307 677.541 401.572C677.665 401.599 678.398 401.832 678.508 401.78C678.578 401.747 678.604 401.504 678.627 401.344C678.702 400.817 678.757 400.265 678.675 399.737C678.495 398.552 677.502 397.996 676.498 397.542C674.263 396.531 671.811 395.898 669.371 395.645C668.809 395.586 668.246 395.55 667.681 395.531C667.017 395.511 666.469 395.395 666.133 396.046C665.604 397.072 665.313 398.391 665.139 399.562ZM668.244 436.758C668.731 435.081 668.598 433.291 668.932 431.581C669.104 430.699 669.339 429.823 669.596 428.962C669.803 428.266 670.149 427.526 670.188 426.8C670.19 426.751 670.133 426.723 670.093 426.746C669.406 427.137 668.878 427.984 668.486 428.649C668.017 429.444 667.659 430.277 667.37 431.152C666.794 432.896 666.321 435 667.064 436.758C667.285 437.281 668.061 437.386 668.244 436.758ZM687.256 449.451C687.982 448.947 688.511 448.242 689.126 447.62C689.732 447.009 688.785 446.067 688.18 446.678C687.654 447.209 687.198 447.872 686.58 448.301C686.283 448.507 686.145 448.88 686.34 449.212C686.512 449.505 686.959 449.657 687.256 449.451ZM691.304 430.075C689.979 429.504 688.676 428.883 687.289 428.473C686.46 428.227 686.109 429.513 686.933 429.757C688.21 430.136 689.408 430.7 690.629 431.225C691.412 431.562 692.093 430.414 691.304 430.075ZM705.3 429.676C705.624 428.88 704.328 428.537 704.009 429.322C703.641 430.225 703.22 431.104 702.852 432.007C702.528 432.803 703.824 433.146 704.143 432.362C704.511 431.459 704.932 430.579 705.3 429.676ZM719.113 445.567C719.329 445.853 719.689 446.009 720.029 445.806C720.314 445.636 720.488 445.185 720.269 444.895C719.631 444.048 718.985 443.212 718.237 442.457C717.631 441.846 716.684 442.788 717.29 443.4C717.958 444.073 718.543 444.811 719.113 445.567ZM721.089 356.402C720.474 356.819 719.936 357.327 719.411 357.849C718.8 358.456 719.747 359.398 720.358 358.791C720.8 358.351 721.246 357.904 721.764 357.552C722.064 357.349 722.198 356.97 722.004 356.641C721.831 356.345 721.387 356.199 721.089 356.402ZM700.992 377.842C701.339 378.534 701.652 379.213 701.671 380C701.693 380.857 703.031 380.857 703.01 380C702.984 378.97 702.603 378.077 702.148 377.169C701.762 376.401 700.608 377.077 700.992 377.842ZM693.618 360.622C692.898 360.145 692.229 361.3 692.942 361.773C693.52 362.156 694.099 362.54 694.677 362.924C695.397 363.401 696.066 362.247 695.353 361.774C694.775 361.39 694.196 361.006 693.618 360.622ZM725.601 390.729C725.723 391.576 727.013 391.213 726.892 390.375C726.703 389.079 726.474 387.8 726.12 386.537C725.889 385.711 724.598 386.064 724.829 386.892C725.183 388.154 725.413 389.433 725.601 390.729ZM730.295 405.991C731.156 405.973 731.156 404.64 730.295 404.658C729.515 404.675 728.748 404.879 727.996 405.066C727.159 405.274 727.516 406.559 728.352 406.351C728.988 406.193 729.635 406.005 730.295 405.991ZM732.027 436.735C732.323 436.878 732.627 437.007 732.926 437.143C733.526 437.416 734.124 437.689 734.723 437.962C735.971 438.532 737.217 439.104 738.463 439.678C740.956 440.826 743.469 441.935 745.969 443.071C748.518 444.23 751.06 445.404 753.599 446.584C754.795 447.14 756 447.675 757.203 448.216C758.232 448.679 759.503 449.488 760.632 449.564C760.69 449.568 760.71 449.495 760.676 449.457C760.25 448.975 759.569 448.694 759.009 448.38C758.436 448.059 757.853 447.758 757.272 447.452C756.061 446.813 754.849 446.18 753.627 445.564C751.182 444.333 748.732 443.111 746.282 441.89C743.783 440.644 741.288 439.391 738.767 438.19C737.58 437.624 736.392 437.061 735.204 436.499C734.56 436.194 733.915 435.89 733.271 435.587C732.993 435.456 732.717 435.314 732.433 435.197C732.055 435.041 731.767 435.073 731.377 434.977C730.742 434.821 730.466 435.626 730.954 435.976C731.356 436.265 731.568 436.512 732.027 436.735ZM740.965 450.396C741.102 450.064 740.815 449.66 740.497 449.577C740.117 449.477 739.812 449.707 739.674 450.042C739.307 450.93 738.784 451.746 738.111 452.434C737.51 453.049 738.456 453.992 739.058 453.376C739.901 452.513 740.507 451.505 740.965 450.396ZM747.54 429.01C748.15 428.403 747.204 427.461 746.593 428.068L744.858 429.795C744.248 430.402 745.195 431.344 745.805 430.737L747.54 429.01ZM765.341 426.195C766.588 426.559 768.043 426.894 768.894 427.953C768.935 428.005 769.005 427.938 768.98 427.887C767.891 425.64 764.769 424.853 762.607 424.066C761.078 423.509 759.509 423.047 757.927 422.635C758.085 420.839 757.649 418.914 757.498 417.126C757.336 415.218 757.204 413.305 757.136 411.391C757.067 409.438 757.051 407.472 757.115 405.519C757.179 403.573 757.433 401.65 757.544 399.711C757.555 399.523 757.293 399.514 757.236 399.669C756.579 401.469 756.298 403.463 756.085 405.361C755.864 407.316 755.791 409.265 755.819 411.232C755.848 413.253 755.967 415.27 756.129 417.286C756.206 418.241 756.295 419.195 756.379 420.15C756.443 420.878 756.473 421.601 756.622 422.306C755.668 422.073 754.712 421.852 753.758 421.638C750.718 420.955 747.665 420.322 744.638 419.584C743.152 419.221 741.687 418.787 740.208 418.402C738.815 418.039 737.345 417.599 735.914 417.437C735.404 417.379 735.339 418.074 735.677 418.31C736.839 419.122 738.383 419.688 739.726 420.142C741.073 420.599 742.474 420.927 743.855 421.265C746.735 421.97 749.643 422.546 752.546 423.146C755.445 423.746 758.35 424.341 761.216 425.081C762.597 425.438 763.973 425.795 765.341 426.195ZM772.177 390.551C772.922 390.987 773.595 389.835 772.852 389.401C771.88 388.833 770.845 388.407 769.801 387.991C768.999 387.672 768.655 388.961 769.445 389.276C770.383 389.649 771.303 390.041 772.177 390.551ZM774.876 440.05C775.623 440.482 776.296 439.33 775.551 438.9C774.505 438.296 773.358 437.893 772.274 437.365C771.502 436.989 770.824 438.139 771.598 438.515C772.683 439.044 773.829 439.446 774.876 440.05ZM776.09 411.952C775.367 412.635 774.403 412.957 773.493 413.316C772.7 413.629 773.048 414.917 773.849 414.601C774.982 414.154 776.136 413.745 777.036 412.894C777.662 412.302 776.714 411.362 776.09 411.952ZM768.095 373.793C767.301 374.103 767.649 375.391 768.451 375.078C769.341 374.731 770.26 374.466 771.15 374.119C771.944 373.809 771.597 372.521 770.794 372.834C769.904 373.181 768.985 373.446 768.095 373.793ZM753.992 358.637C753.148 358.495 752.789 359.779 753.636 359.921C754.688 360.098 755.723 360.305 756.721 360.689C757.526 360.999 757.872 359.71 757.077 359.404C756.079 359.02 755.044 358.813 753.992 358.637ZM749.332 395.54C750.106 395.161 749.427 394.012 748.657 394.389C747.845 394.786 747.004 395.094 746.118 395.281C745.274 395.46 745.633 396.744 746.474 396.566C747.471 396.355 748.419 395.986 749.332 395.54ZM744.931 374.753C744.098 374.525 743.745 375.811 744.575 376.037C746.035 376.435 747.539 376.642 749.01 376.997C749.848 377.199 750.202 375.914 749.366 375.712C747.895 375.358 746.391 375.151 744.931 374.753ZM726.261 368.229C725.414 368.385 725.775 369.669 726.617 369.514C727.513 369.349 728.422 369.347 729.331 369.346C730.193 369.346 730.192 368.013 729.331 368.014C728.298 368.014 727.279 368.042 726.261 368.229ZM665.37 375.19C667.557 374.982 669.747 374.815 671.941 374.69C672.044 374.685 672.144 374.679 672.246 374.674C672.258 374.65 672.273 374.629 672.288 374.605C673.004 373.559 673.531 372.514 673.988 371.331C674.425 370.205 674.848 369.045 675.521 368.029C676.288 366.871 677.324 365.966 678.459 365.181C679.148 365.641 679.787 366.181 680.372 366.753C680.987 367.355 681.934 366.413 681.319 365.811C680.799 365.303 680.244 364.833 679.658 364.409C680.335 364 681.026 363.615 681.699 363.232C684.225 361.798 686.81 360.473 689.449 359.26C690.676 358.695 691.918 358.194 693.168 357.686C693.841 357.413 694.505 357.062 695.178 356.745C695.129 356.272 695.271 355.743 695.636 355.431C695.906 355.203 696.115 355.118 696.436 354.957C696.508 354.932 696.552 354.917 696.572 354.908C696.557 354.912 696.513 354.925 696.441 354.948C696.271 355.027 696.257 355.003 696.401 354.88C696.409 354.61 696.943 354.041 697.065 353.763C697.49 352.808 697.623 351.799 698.25 350.93C699.115 349.732 700.568 349.279 701.922 349.686C702.062 348.245 702.099 346.741 702.645 345.455C702.66 345.421 702.708 345.405 702.73 345.444C703.299 346.408 703.348 347.482 703.391 348.595C703.433 349.639 703.393 350.706 703.256 351.744C703.343 351.811 703.431 351.874 703.523 351.936C703.955 352.219 704.42 352.437 704.909 352.599C705.839 352.905 706.815 353.038 707.791 353.085C710.309 353.205 712.905 352.951 715.382 352.522C717.887 352.087 721.728 351.434 723.957 350.187C725.428 349.364 726.785 348.36 728.161 347.387C727.662 345.788 727.534 344.07 728.037 342.719C728.097 342.558 728.351 342.528 728.4 342.719C728.714 344.008 728.806 345.304 729.225 346.578C729.231 346.596 729.238 346.616 729.245 346.634C729.375 346.546 729.506 346.46 729.636 346.373C729.938 346.175 730.348 346.323 730.528 346.606C733.419 351.138 737.995 351.398 742.802 352.207C748.062 353.093 753.348 354.049 758.405 355.783C763.242 357.442 767.864 359.856 771.525 363.464C772.354 364.281 773.129 365.151 773.861 366.059C773.153 366.148 772.451 366.286 771.758 366.503C770.938 366.759 771.29 368.045 772.114 367.788C773.005 367.509 773.905 367.371 774.815 367.303C777.303 370.69 779.243 374.531 780.92 378.311C784.138 385.559 786.232 393.278 787.196 401.137C786.667 400.821 786.128 400.52 785.576 400.241C784.809 399.852 784.132 401.002 784.9 401.391C785.753 401.823 786.581 402.299 787.384 402.815C787.735 406.255 787.871 409.717 787.788 413.173C787.592 421.414 786.475 429.896 783.946 437.758C782.706 441.617 781.062 445.444 778.614 448.705C777.506 450.182 776.248 451.515 774.765 452.626C774.047 453.165 773.287 453.647 772.486 454.053C771.453 454.579 770.108 454.752 769.218 455.497C768.925 455.742 768.699 456.065 768.528 456.429C768.627 457.122 768.639 457.817 768.448 458.509C768.388 458.726 768.224 458.902 768.021 458.987C768.018 459.047 768.018 459.106 768.018 459.162C768.018 459.189 767.978 459.196 767.973 459.169C767.964 459.117 767.956 459.066 767.947 459.013C767.882 459.034 767.814 459.044 767.743 459.044C765.201 459.054 762.656 458.992 760.111 458.906C760.307 458.306 760.521 457.711 760.725 457.111C761.003 456.296 759.71 455.95 759.434 456.757C759.195 457.459 758.945 458.154 758.722 458.858C755.995 458.757 753.268 458.636 750.547 458.546C744.758 458.355 738.971 458.291 733.181 458.17C724.189 457.98 715.132 457.592 706.126 457.972C705.815 457.314 705.466 456.671 705.136 456.022C704.746 455.257 703.591 455.932 703.98 456.695C704.209 457.146 704.447 457.591 704.674 458.041C702.85 458.135 701.028 458.26 699.209 458.43C696.107 458.719 693.034 459.234 689.935 459.554C686.784 459.88 683.701 459.822 680.575 459.304C680.013 459.211 679.681 458.873 679.544 458.453C679.539 458.451 679.536 458.448 679.532 458.443C679.372 458.256 679.221 458.102 679.066 457.967C678.88 457.847 678.679 457.745 678.443 457.655C678.003 457.489 677.544 457.387 677.079 457.319C676.567 457.242 676.048 457.235 675.536 457.172C675.104 457.117 674.683 457.036 674.261 456.936C673.503 456.756 672.783 456.521 672.067 456.209C671.443 455.938 670.879 455.549 670.347 455.124C669.245 454.323 668.292 453.3 667.458 452.237C666.973 451.616 666.516 450.972 666.101 450.301C665.378 449.138 664.762 447.931 664.14 446.713C663.914 446.353 663.708 445.983 663.519 445.606C664.736 445.249 665.964 444.958 667.254 444.938C668.116 444.924 668.116 443.592 667.254 443.605C665.775 443.629 664.375 443.973 662.985 444.382C662.918 444.203 662.853 444.023 662.792 443.84C662.627 443.459 662.49 443.068 662.376 442.671C662.309 442.491 662.242 442.312 662.175 442.132C662.024 441.509 661.874 440.884 661.721 440.26C661.419 439.26 661.179 438.246 661.004 437.219C660.856 436.542 660.742 435.861 660.665 435.172C660.431 433.501 660.24 431.834 660.227 430.146C660.247 429.105 660.314 428.065 660.428 427.031C660.476 426.328 660.558 425.629 660.669 424.934C660.813 423.902 660.955 422.88 661.194 421.86C661.373 421.171 661.552 420.481 661.732 419.792C662.178 418.355 662.705 416.945 663.313 415.568C663.346 415.482 663.516 415.292 663.618 415.29C663.694 415.288 663.802 415.358 663.767 415.452C663.763 415.46 663.76 415.47 663.756 415.478C663.792 415.4 663.825 415.32 663.86 415.242C663.89 415.168 664.007 415.022 664.098 415.024C664.103 415.024 664.108 415.024 664.115 415.025C664.091 415.009 664.069 414.987 664.048 414.962C663.447 414.254 663.057 413.323 662.627 412.504C662.27 411.828 661.934 411.115 661.837 410.35C661.752 409.679 661.867 409.018 662.29 408.475C662.772 407.857 663.679 407.567 663.176 406.675C662.603 405.659 661.762 404.778 662.6 403.624C663.027 403.036 663.703 402.713 664.205 402.201C664.782 401.61 665.057 400.819 665.042 400.011C665.007 400.031 664.96 400.022 664.943 399.971C664.458 398.512 664.809 396.911 665.306 395.49C665.577 394.719 666.151 394.507 666.819 394.469C663.927 388.848 661.221 383.137 658.81 377.295C658.729 377.103 658.651 376.912 658.572 376.72C658.455 376.434 658.702 376.053 658.989 375.989C661.074 375.535 663.246 375.39 665.37 375.19Z" fill="black"/>
<path fill-rule="evenodd" clip-rule="evenodd" d="M689.635 305.574C690.032 300.453 689.417 295.087 691.396 290.22C694.848 282.145 704.526 279.453 712.029 276.379C715.035 275.493 725.15 275.369 728.67 274.197C736.635 271.543 738.539 268.382 744.868 273.434C745.936 274.297 746.605 275.235 747.093 276.517L747.073 276.522C747.212 277.056 747.063 277.589 746.749 277.997C749.493 280.794 750.642 284.988 749.233 288.712C744.638 298.403 744.854 303.643 746.335 314.062C748.268 323.788 743.85 327.34 736.533 332.633C736.831 333.209 736.893 333.974 736.504 334.482C728.043 346.34 712.09 352.002 698.421 345.983C692.872 343.52 690.395 337.627 688.982 332.31C687.335 326.357 686.829 320.083 688.17 314.018C688.71 311.213 689.415 308.429 689.635 305.574Z" fill="#D08B5B"/>
<path fill-rule="evenodd" clip-rule="evenodd" d="M750.237 291.049L745.206 294.391L727.197 275.457L733.19 270.753C733.19 270.753 744.063 278.767 746.2 280.882C748.338 282.997 750.237 291.049 750.237 291.049Z" fill="#9E7CC1"/>
<path fill-rule="evenodd" clip-rule="evenodd" d="M738.441 248.846C737.414 248.692 736.638 249.327 736.269 250.223L736.25 250.271C736.131 250.576 735.999 250.873 735.857 251.164C733.287 249.907 729.62 250.23 727.993 252.776C726.833 254.595 727.541 256.753 727.978 258.682L728.266 259.952C727.71 260.305 727.292 260.936 727.311 261.589L727.314 261.64L727.431 263.412C727.06 263.037 726.721 262.629 726.419 262.194C726.21 261.813 725.984 261.438 725.742 261.075C724.318 258.938 721.12 260.795 722.295 263.083C722.521 263.525 722.775 263.943 723.047 264.346C723.354 264.94 723.606 265.552 723.8 266.179C723.244 266.421 722.816 266.957 722.771 267.767C722.666 269.657 723.661 271.234 725.245 272.225C725.711 272.516 726.191 272.573 726.627 272.465C726.704 272.568 726.781 272.671 726.854 272.776C726.223 273.288 725.654 273.87 725.164 274.517C723.692 274.297 722.21 274.194 720.729 274.19C718.919 273.306 716.751 273.324 714.806 273.656C713.553 273.869 712.351 274.283 711.118 274.582C709.819 274.895 708.5 274.906 707.186 275.119C705.529 275.388 704.076 276.15 703.163 277.368C702.159 277.398 701.104 277.807 700.229 278.364C698.191 279.659 696.166 280.973 694.133 282.277C693.353 282.778 693.062 283.577 693.205 284.469L693.215 284.526L693.283 284.896L693.123 285.123C692.501 285.999 691.824 286.917 691.421 287.883C690.677 288.954 690.004 290.077 689.407 291.234C688.604 292.79 687.941 294.438 687.492 296.131C687.38 296.559 687.268 296.99 687.195 297.426C687.09 298.042 687.252 298.52 687.34 299.112C687.45 299.861 687.49 300.62 687.607 301.372C687.686 301.87 688.11 302.114 688.554 302.128C688.387 303.395 688.267 304.671 688.152 305.937C687.99 307.745 687.879 309.559 687.784 311.372C687.293 312.084 686.29 312.647 685.565 312.841C684.561 313.11 683.509 312.818 682.561 312.477C681.964 312.262 681.475 313.01 681.766 313.509C682.679 315.078 684.633 315.071 686.113 314.377C686.739 314.084 687.288 313.659 687.696 313.106C687.671 313.632 687.644 314.159 687.617 314.687L687.592 315.165C687.292 320.749 686.642 326.526 687.694 332.055C689.516 341.633 697.464 348.926 707.172 349.492C712.267 349.79 716.51 348.289 718.619 347.452C720.729 346.615 719.909 344.908 718.445 345.396C715.922 346.236 711.287 347.488 707.139 346.948C697.363 345.673 689.073 340.8 689.925 319.813C690.046 316.837 690.418 313.859 690.498 310.883C690.575 307.973 690.546 305.062 690.675 302.154L690.718 301.162C690.768 300.003 690.822 298.838 690.909 297.678C691.014 297.228 691.101 296.772 691.229 296.33C691.578 295.13 692.034 293.962 692.6 292.848C692.726 292.943 692.866 293.011 693.018 293.038C694.172 293.244 695.254 293.186 696.334 292.706C696.839 292.485 697.283 292.19 697.697 291.825C697.894 291.654 698.026 291.487 698.13 291.314C698.652 291.322 699.175 291.166 699.502 290.791C699.876 290.364 699.938 289.923 699.791 289.515L699.776 289.474L699.813 289.46C700.254 290.598 701.132 291.599 702.096 292.275C703.619 293.348 705.524 293.657 707.351 293.686C709.368 293.716 711.496 293.406 713.486 293.089C714.013 293.006 714.535 292.911 715.048 292.783C715.068 292.803 715.088 292.826 715.11 292.846C716.818 294.477 719.221 294.896 721.389 293.965C722.641 293.428 723.692 292.561 724.62 291.569C724.633 292.089 724.66 292.608 724.705 293.123L724.724 293.327C724.816 294.286 724.994 295.302 725.721 295.994C726.895 297.115 728.598 296.665 729.952 295.936C729.951 295.971 729.951 296.007 729.951 296.044C729.585 297.283 729.217 298.524 728.85 299.764L728.771 300.029C728.504 300.91 728.211 301.792 728.13 302.714C727.977 304.476 729.152 306.216 731.116 305.625C732.146 305.316 732.972 304.452 733.763 303.76L734.262 303.33C732.971 307.539 732.076 311.897 731.993 316.289C731.988 316.527 732.193 316.707 732.42 316.715C732.951 316.737 733.523 316.632 734.057 316.42C734.087 316.419 734.117 316.417 734.149 316.412C735.061 316.28 735.907 315.952 736.654 315.468C736.482 316.012 736.405 316.597 736.45 317.208C736.462 317.356 736.694 317.408 736.727 317.245C737.158 315.131 739.638 313.534 741.775 313.939C744.07 314.374 745.76 316.342 746.174 318.582C746.618 320.989 745.768 323.772 744.194 325.629C743.469 326.485 742.515 327.199 741.383 327.379C740.865 327.46 740.328 327.432 739.825 327.286C739.611 327.222 739.411 327.134 739.207 327.051C738.91 326.931 738.562 326.913 738.282 326.786C737.646 326.501 737.006 327.086 737.328 327.737C737.609 328.305 737.861 328.688 738.327 328.981C737.95 329.441 737.607 330.08 737.48 330.252C736.832 331.124 736.174 331.949 735.436 332.747C734.685 333.556 733.865 334.295 732.998 334.98L732.634 335.267C731.799 335.927 731.072 336.539 730.483 337.486C730.019 338.234 730.62 339.248 731.49 339.237C734.212 339.198 736.191 336.814 737.601 334.73C737.801 334.432 737.99 334.117 738.165 333.794C738.228 333.896 738.299 333.991 738.377 334.077L738.222 334.494C737.761 335.719 739.746 336.52 740.323 335.376C740.742 334.547 741.228 333.757 741.769 333.011C742.088 332.966 742.4 332.773 742.574 332.523C743.013 331.889 743.506 331.248 743.921 330.571C744.152 330.353 744.389 330.143 744.631 329.939C744.701 330 744.773 330.062 744.841 330.127C745.145 330.818 745.521 331.449 745.987 332.044L746.087 332.171C746.98 333.292 748.142 334.441 749.581 334.715C750.02 334.798 750.442 334.254 750.053 333.906C749.046 333.003 747.856 332.388 746.927 331.381C746.47 330.884 746.05 330.338 745.689 329.765L745.606 329.632C745.546 329.534 745.484 329.436 745.421 329.336C745.84 329.051 746.259 328.765 746.678 328.478C747.832 329.461 749.335 329.911 750.611 330.725L750.738 330.808C751.892 331.577 753.108 329.875 752.183 328.941C751.163 327.915 750.311 326.691 749.408 325.551C749.833 324.77 750.034 323.848 750.109 322.915C750.139 322.651 750.162 322.387 750.185 322.123C750.833 322.133 751.485 321.911 752.036 321.53L752.244 321.382C752.914 321.595 753.617 321.698 754.29 321.68C755.873 321.633 756.521 319.83 755.531 318.689C754.521 317.523 752.752 317.268 751.351 317.834C751.306 317.811 751.259 317.786 751.214 317.761C751.281 317.455 751.266 317.177 751.19 316.932L751.212 316.784C751.52 316.312 751.723 315.774 751.8 315.205C751.86 314.755 751.848 314.308 751.743 313.863C751.709 313.715 751.636 313.562 751.581 313.407C751.695 313.121 751.762 312.824 751.783 312.526C751.815 312.488 751.846 312.45 751.876 312.408C752.572 311.434 752.431 310.261 751.769 309.473C751.766 309.423 751.762 309.373 751.755 309.323C751.794 309.236 751.829 309.149 751.862 309.06C752.508 308.41 752.983 307.627 752.894 306.657C752.842 306.087 752.607 305.573 752.251 305.189C752.314 305.003 752.32 304.787 752.244 304.607C752.812 303.101 752.74 301.286 752.331 299.601C752.421 299.345 752.468 299.067 752.458 298.772C752.411 297.521 751.326 296.372 750.04 296.387C749.885 296.388 749.74 296.408 749.601 296.438L749.599 296.408C749.55 296.033 749.446 295.686 749.295 295.375C749.37 295.348 749.438 295.309 749.499 295.258C750.323 295.696 751.194 296.032 752.109 296.26C752.781 296.428 753.469 295.666 753.051 295.037C752.858 294.745 752.644 294.483 752.413 294.243C752.741 294.245 753.074 294.267 753.41 294.31C754.015 294.388 754.689 293.977 755.082 293.421C755.569 293.894 756.059 294.365 756.548 294.836C757.787 296.034 759.659 295.153 759.854 293.574C760.223 293.476 760.567 293.309 760.87 293.071C762.824 293.917 764.926 294.382 767.075 294.47C768.618 294.533 769.52 292.741 768.799 291.476C768.314 290.626 767.713 289.864 767.02 289.201C768.096 289.529 769.206 289.765 770.34 289.917C770.953 289.998 771.82 289.492 772.065 288.931C773.004 286.772 772.923 284.522 771.843 282.422C771.801 282.339 771.754 282.259 771.709 282.179C771.597 281.901 771.476 281.626 771.344 281.357C772.673 279.974 772.788 277.919 772.072 276.199C772.359 275.734 772.469 275.174 772.274 274.668C771.718 273.211 770.916 271.865 769.904 270.709C770.001 270.523 770.086 270.325 770.158 270.112C770.727 268.388 770.068 266.308 768.737 265.107C767.9 264.351 766.938 263.898 765.911 263.608C765.479 262.845 764.923 262.157 764.275 261.578C764.25 261.523 764.225 261.468 764.196 261.413C763.188 259.518 761.351 258.502 759.382 258.267C759.305 257.526 758.804 256.818 758.076 256.588C757.875 255.947 757.577 255.334 757.166 254.778C756.519 253.902 755.446 253.489 754.434 254.064C753.879 254.378 753.348 254.74 752.851 255.139C752.627 255.035 752.374 254.967 752.088 254.946L752.016 254.941L750.369 254.858C749.679 254.553 748.991 254.233 748.302 253.922C747.887 253.581 747.425 253.296 746.921 253.084C746.349 252.846 745.765 252.711 745.179 252.666C744.703 252.511 744.224 252.375 743.736 252.268C742.59 252.018 741.391 251.878 740.202 251.89C740.178 251.583 740.166 251.273 740.168 250.958L740.171 250.801C740.197 249.793 739.391 248.989 738.441 248.846ZM739.594 329.461C739.758 329.496 739.923 329.524 740.089 329.544C740.039 329.667 739.989 329.79 739.94 329.914C739.807 329.989 739.671 330.06 739.536 330.127C739.576 329.9 739.6 329.672 739.594 329.461ZM748.174 326.918L748.285 327.122C748.303 327.155 748.321 327.188 748.338 327.221C748.103 327.202 747.866 327.207 747.632 327.234L747.633 327.209C747.663 327.199 747.693 327.19 747.721 327.176C747.883 327.098 748.033 327.012 748.174 326.918ZM743.537 317.616C742.06 317.702 740.808 317.928 739.464 318.573L739.349 318.629C738.162 319.217 736.198 320.303 736.363 321.86C736.41 322.303 736.732 322.769 737.24 322.734C738.631 322.639 739.426 321.24 740.368 320.367C741.318 319.488 742.485 318.584 743.636 317.979C743.798 317.894 743.734 317.625 743.557 317.616L743.537 317.616ZM750.237 297.1C750.591 297.111 750.473 297.455 750.291 297.168C750.276 297.145 750.257 297.121 750.237 297.1ZM731.127 274.197C734.48 274.284 737.854 276.259 740.366 278.254C742.551 279.991 744.438 282.056 746.109 284.282C746.539 285.39 746.908 286.522 747.219 287.662C747.425 288.415 747.553 289.176 747.725 289.935L747.779 290.168C747.914 290.42 748.014 290.691 748.088 290.971C747.783 291.275 747.388 291.493 746.953 291.597C746.813 291.63 746.697 291.702 746.605 291.798C746.255 291.215 745.949 290.6 745.771 289.948L745.764 289.918C745.091 288.819 744.361 287.754 743.577 286.726C741.416 283.886 739.037 281.298 736.176 279.145C734.007 277.513 731.582 276.234 729.004 275.403C729.635 274.895 730.351 274.493 731.127 274.197Z" fill="black"/>
<path fill-rule="evenodd" clip-rule="evenodd" d="M704.876 336.079C706.001 335.622 707.005 334.86 707.739 333.887C707.994 333.549 708.06 333.192 708.006 332.865C707.946 332.497 707.728 332.164 707.43 331.941C707.131 331.717 706.757 331.607 706.396 331.663C706.082 331.712 705.769 331.883 705.522 332.238L705.47 332.309C705.034 332.896 704.466 333.378 703.818 333.689C703.193 333.988 702.495 334.128 701.773 334.047C700.396 333.892 699.448 333.151 698.439 332.145C698.315 332.018 698.189 331.887 698.064 331.754C697.984 331.634 697.874 331.556 697.752 331.515C697.616 331.47 697.463 331.473 697.322 331.522C697.186 331.569 697.065 331.658 696.984 331.777C696.906 331.89 696.863 332.029 696.877 332.19C696.969 333.232 697.517 334.163 698.295 334.893C699.159 335.704 700.304 336.266 701.382 336.462C702.57 336.679 703.78 336.524 704.876 336.079ZM700.822 319.998C699.558 320.762 697.632 322.545 698.992 324.44C700.592 326.111 702.896 324.195 704.031 323.328C705.084 322.657 706.267 324.384 705.29 325.168C697.086 331.213 693.757 320.198 700.182 319.099C700.89 318.978 701.153 319.761 700.822 319.998ZM715.523 312.966C715.384 311.241 712.744 310.85 712.482 312.557C712.246 314.085 712.523 315.49 713.215 316.866C713.876 318.181 715.538 317.568 715.664 316.37C715.832 314.765 715.61 314.039 715.523 312.966ZM695.431 312.203C695.063 311.723 694.532 311.396 693.895 311.581C691.906 312.159 692.492 314.969 693.191 316.337C693.57 317.08 694.797 317.268 695.352 316.614C696.255 315.547 696.688 313.418 695.539 312.367C695.508 312.313 695.473 312.258 695.431 312.203ZM713.243 305.419L712.929 305.364C711.957 305.197 710.749 305.036 710.061 305.814C709.696 306.226 709.571 306.993 710.061 307.388C710.923 308.082 711.877 307.813 712.91 307.872C713.761 307.92 714.58 308.061 715.4 308.294C717.199 308.806 718.665 309.74 720.202 310.766C720.404 310.9 720.609 310.644 720.513 310.456C719.626 308.727 717.907 307.306 716.185 306.441C715.266 305.978 714.26 305.595 713.243 305.419ZM697.244 304.645L697.003 304.694C694.387 305.238 690.987 306.325 689.747 308.883C689.7 309.245 689.75 309.323 689.791 309.373L689.804 309.39C689.838 309.433 689.864 309.493 690.022 309.542C690.066 309.532 690.11 309.521 690.154 309.509C690.722 309.361 691.172 309.157 691.607 308.945L692.079 308.714C692.626 308.447 693.178 308.189 693.763 307.999C695.012 307.594 696.297 307.309 697.601 307.156C697.884 307.123 698.156 307.028 698.371 306.865C698.574 306.711 698.73 306.497 698.801 306.213C698.893 305.845 698.867 305.566 698.668 305.234C698.519 304.985 698.306 304.812 698.061 304.713C697.811 304.612 697.527 304.588 697.244 304.645Z" fill="black"/>
<path fill-rule="evenodd" clip-rule="evenodd" d="M715.731 337.123C714.376 333.964 711.419 331.642 708.014 330.794C705.514 330.172 702.89 330.192 700.341 330.438C699.006 330.567 697.574 330.672 696.315 331.165C695.24 331.587 694.365 332.384 693.706 333.32C692.922 334.428 692.389 335.697 692.015 336.997C691.962 337.182 691.912 337.368 691.865 337.556C692.028 338.537 692.374 339.372 693.287 339.989C694.178 340.591 695.241 340.837 696.301 340.925C696.405 340.875 696.505 340.824 696.598 340.772C698.249 339.831 699.412 337.607 701.496 337.908C703.357 338.177 704.582 340.506 705.688 341.873C709.239 342.284 712.788 341.222 715.678 339.201C715.825 338.51 715.833 337.812 715.731 337.123ZM689.451 334.726C689.736 333.933 690.093 333.165 690.517 332.441C691.92 330.047 694.072 328.139 696.628 327.049C702.673 324.473 710.494 326.289 715.376 330.513C717.043 331.958 718.73 334.08 719.239 336.362C719.392 336.392 719.535 336.471 719.654 336.582C723.181 334.373 726.813 332.246 729.655 329.183C731.719 326.957 733.155 324.323 734.034 321.429C734.106 321.191 734.492 321.225 734.48 321.489C734.477 321.551 734.473 321.612 734.47 321.674C734.507 321.561 734.681 321.619 734.694 321.729C735.167 325.245 735.759 328.973 735.214 332.507C734.888 334.616 733.925 336.16 732.638 337.828C731.259 339.615 729.699 341.277 728.102 342.871C727.09 343.883 726.032 345.05 724.792 345.792C723.349 346.654 721.713 347.309 720.174 347.974C718.608 348.653 717.019 349.28 715.399 349.823C712.162 350.913 708.816 351.667 705.412 351.997C702.686 352.26 699.571 352.547 696.959 351.527C694.956 350.745 693.34 349.331 692.058 347.631C690.663 345.778 689.56 343.669 688.95 341.444C688.316 339.133 689.318 335.099 689.451 334.726Z" fill="black"/>
<path fill-rule="evenodd" clip-rule="evenodd" d="M686.711 321.489C687.838 322.995 689.927 323.475 691.853 323.309C696.009 322.911 697.317 318.214 697.453 314.564C694.666 315.344 697.688 309.819 688.163 309.212C684.805 308.933 685.731 310.951 684.248 312.426C684.278 315.521 684.796 318.883 686.711 321.489ZM706.503 317.933C708.957 329.366 722.391 326.647 723.802 316.34C722.499 315.425 722.843 313.165 721.224 312.346C718.658 310.714 715.45 310.784 712.537 310.822C708.812 311.077 707.751 312.612 705.838 314.287C705.93 315.406 706.195 316.732 706.503 317.933ZM681.389 307.318C681.527 307.295 681.665 307.274 681.803 307.254C681.91 307.193 682.037 307.146 682.184 307.118C682.519 307.033 682.852 306.976 683.185 306.945C687.96 305.876 699.006 307.394 699.462 311.449C700.982 311.954 702.298 311.502 704.06 311.547C705.402 305.967 728.593 306.754 729.709 310.119C729.713 310.117 729.717 310.116 729.722 310.115C730.793 309.785 732.373 309.865 733.6 309.812C736.219 309.758 738.841 309.99 741.404 310.54C746.203 311.299 752.752 312.187 749.414 318.151C749.414 318.152 749.413 318.153 749.412 318.154L749.412 318.153C748.837 318.74 747.86 318.268 747.824 317.473C748.946 314.648 746.412 314.309 744.462 313.497C739.61 311.762 734.67 311.522 729.652 312.059C729.275 312.501 728.702 312.887 728.096 313.088C724.741 313.643 726.509 316.119 724.388 316.48C724.778 325.114 714.245 329.826 708.142 324.151C705.705 321.78 705.124 318.268 704.559 315.102C704.261 315.035 704.071 314.873 703.96 314.657C703.241 313.944 702.79 313.284 701.369 313.088C699.949 312.893 698.855 313.286 698.707 313.406C698.67 313.481 698.63 313.556 698.583 313.631C698.518 313.743 698.43 313.832 698.33 313.902C699.733 322.499 693.026 327.937 686.255 323.478C683.313 320.723 682.691 316.507 682.568 312.743C682.17 312.504 681.917 312.04 682.055 311.456C682.246 310.652 681.799 309.955 681.089 309.606C680.166 309.151 680.329 307.493 681.389 307.318Z" fill="black"/>
</g>
</svg>
