<svg id="Fill_Outline" height="512" viewBox="0 0 64 64" width="512" xmlns="http://www.w3.org/2000/svg" data-name="Fill Outline"><path d="m49 24a23.9 23.9 0 0 1 -16.9 7h-21.1a8 8 0 0 0 -8 8 18 18 0 0 0 18 18h6a26 26 0 0 0 26-26v-7z" fill="#57b7eb"/><path d="m36 43h-6a18 18 0 0 1 -16.95-12h-2.05a8 8 0 0 0 -8 8 18 18 0 0 0 18 18h6a26 26 0 0 0 25.22-19.69 25.84 25.84 0 0 1 -16.22 5.69z" fill="#4891d3"/><path d="m57 18h4a0 0 0 0 1 0 0 6 6 0 0 1 -6 6h-4a0 0 0 0 1 0 0 6 6 0 0 1 6-6z" fill="#aae1f9"/><path d="m41 18h4a6 6 0 0 1 6 6 0 0 0 0 1 0 0h-4a6 6 0 0 1 -6-6 0 0 0 0 1 0 0z" fill="#aae1f9" transform="matrix(-1 0 0 -1 92 42)"/><path d="m23 50.05-5.71-1.86a18 18 0 0 1 -12.2-14.57 8 8 0 0 0 -2.09 5.38 18 18 0 0 0 18 18h6a26 26 0 0 0 23-13.78 26 26 0 0 1 -27 6.83z" fill="#aae1f9"/><path d="m28 54h-6a18 18 0 0 1 -18-18c0-.33 0-.64.06-1a7.94 7.94 0 0 0 -1.06 4 18 18 0 0 0 18 18h6a26 26 0 0 0 23-13.78 27.35 27.35 0 0 1 -3.44 3 25.91 25.91 0 0 1 -18.56 7.78z" fill="#57b7eb"/><path d="m22 7h2a0 0 0 0 1 0 0v4a6 6 0 0 1 -6 6h-2a0 0 0 0 1 0 0v-4a6 6 0 0 1 6-6z" fill="#c4f236"/><path d="m38 60.06-5.5-9.53a5 5 0 0 0 -6.83-1.83l-1.73 1 4.5 7.8a7 7 0 0 0 9.56 2.56z" fill="#57b7eb"/><path d="m29.44 54.5-3.45-6-2 1.18 4.5 7.8a7 7 0 0 0 9.51 2.58l-1.26-2.18a7 7 0 0 1 -7.3-3.38z" fill="#4891d3"/><path d="m56 22h-2a2 2 0 0 1 -1.91-1.44 5.92 5.92 0 0 0 -1.09 3.44h4a6 6 0 0 0 5.77-4.37 6 6 0 0 1 -4.77 2.37z" fill="#57b7eb"/><path d="m48 22a6 6 0 0 1 -5.65-4h-1.35a6 6 0 0 0 6 6h4a6 6 0 0 0 -.35-2z" fill="#57b7eb"/><path d="m21 14a3 3 0 0 1 -3-3v-2.46a6 6 0 0 0 -2 4.46v4h2a6 6 0 0 0 5.55-3.72 4.92 4.92 0 0 1 -2.55.72z" fill="#a1d51c"/><g fill="#2d72bc"><path d="m53 27a1 1 0 0 0 -1 1v3a25.05 25.05 0 0 1 -2.82 11.58 25.14 25.14 0 0 1 -11.63 6.89 1 1 0 0 0 .26 2h.26a27.16 27.16 0 0 0 6.69-2.8 25.19 25.19 0 0 1 -6.58 4.76 1 1 0 0 0 .44 1.9 1 1 0 0 0 .45-.11 26.86 26.86 0 0 0 14.93-24.22v-3a1 1 0 0 0 -1-1z"/><path d="m61 17h-4a7 7 0 0 0 -6 3.41 7 7 0 0 0 -6-3.41h-4a1 1 0 0 0 -1 1 7 7 0 0 0 6.41 7 22.75 22.75 0 0 1 -14.31 5h-21.1a8.91 8.91 0 0 0 -6.36 2.65c-.1.1-.19.21-.29.32l-.07.08a9 9 0 0 0 -2.28 5.95 19 19 0 0 0 19 19h2.94a1 1 0 0 0 0-2h-2.94a17 17 0 0 1 -17-17 7 7 0 0 1 .61-2.86 18.86 18.86 0 0 0 12.39 13l5.71 1.86c.33.11.66.19 1 .28l3.86 6.72a8 8 0 0 0 4.86 3.73 8.25 8.25 0 0 0 2.08.27 8 8 0 0 0 4-1.07 1 1 0 0 0 .37-1.37l-8-13.86a1 1 0 0 0 -1.74 1l7.46 12.92a5.88 5.88 0 0 1 -3.64.17 6 6 0 0 1 -3.66-2.79l-4.5-7.8a1 1 0 0 0 -1.36-.36 1 1 0 0 0 -.25.21l-5.57-1.81a16.87 16.87 0 0 1 -11.45-13.24 6.94 6.94 0 0 1 4.83-2h21.1a24.75 24.75 0 0 0 17.3-7h5.6a7 7 0 0 0 7-7 1 1 0 0 0 -1-1zm-18.9 2h2.9a5 5 0 0 1 4.9 4h-2.9a5 5 0 0 1 -4.9-4zm12.9 4h-2.9a5 5 0 0 1 4.9-4h2.9a5 5 0 0 1 -4.9 4z"/><circle cx="11" cy="37" r="1"/><path d="m21 20a3 3 0 0 0 -3 3v5a1 1 0 0 0 2 0v-5a1 1 0 0 1 2 0 1 1 0 0 0 2 0 3 3 0 0 0 -3-3z"/><path d="m12 22a1 1 0 0 0 1-1 1 1 0 0 1 2 0v5a1 1 0 0 0 2 0v-5a3.39 3.39 0 0 0 -.07-.64 1 1 0 0 0 .07-.36v-2h1a7 7 0 0 0 7-7v-4a1 1 0 0 0 -1-1h-2a7 7 0 0 0 -7 7v4a1.17 1.17 0 0 0 .05.27c0 .24-.05.48-.05.73v.18a3 3 0 0 0 -4 2.82 1 1 0 0 0 1 1zm10-14h1v3a5 5 0 0 1 -5 5h-.58a5 5 0 0 1 2.63-2.61 1 1 0 1 0 -.78-1.84 7.1 7.1 0 0 0 -2.27 1.57v-.12a5 5 0 0 1 5-5z"/><circle cx="23" cy="27" r="1"/><circle cx="12" cy="25" r="1"/><circle cx="26" cy="18" r="1"/><circle cx="12" cy="15" r="1"/><circle cx="8" cy="21" r="1"/><circle cx="27" cy="23" r="1"/></g></svg>