<?xml version="1.0" encoding="iso-8859-1"?>
<!-- Generator: Adobe Illustrator 19.0.0, SVG Export Plug-In . SVG Version: 6.00 Build 0)  -->
<svg version="1.1" id="Capa_1" xmlns="http://www.w3.org/2000/svg" xmlns:xlink="http://www.w3.org/1999/xlink" x="0px" y="0px"
	 viewBox="0 0 512 512" style="enable-background:new 0 0 512 512;" xml:space="preserve">
<path style="fill:#FFFBA1;" d="M256,7.5L196,256l60,248.5c137.243,0,248.5-111.257,248.5-248.5S393.243,7.5,256,7.5z"/>
<path style="fill:#FFFEEB;" d="M7.5,256c0,137.243,111.257,248.5,248.5,248.5V7.5C118.757,7.5,7.5,118.757,7.5,256z"/>
<path style="fill:#06F5DD;" d="M396.199,88.42l-49.481,52.056l-22.407-92.07C350.892,57.148,375.219,70.849,396.199,88.42z"/>
<path style="fill:#00D4BE;" d="M396.199,88.42C444.057,128.501,474.5,188.692,474.5,256l-124.25,30l6.468-175.524
	C370.597,104.315,383.799,96.91,396.199,88.42z"/>
<path style="fill:#00B3A0;" d="M380.25,256h94.25c0,67.308-30.443,127.499-78.301,167.58l-69.481-12.056L380.25,256z"/>
<path style="fill:#008F80;" d="M356.718,401.524c13.879,6.161,27.081,13.566,39.481,22.056
	c-20.98,17.571-45.307,31.272-71.888,40.014L356.718,401.524z"/>
<path style="fill:#00D4BE;" d="M380.25,256c0,54.352-8.731,104.619-23.532,145.524L256,380.25L226,226L380.25,256z"/>
<path style="fill:#00B3A0;" d="M356.718,401.524c-8.828,24.398-19.818,45.463-32.407,62.07C302.818,470.662,279.859,474.5,256,474.5
	l-30-47.125l30-47.125C291.855,380.25,325.93,387.857,356.718,401.524z"/>
<path style="fill:#06F5DD;" d="M356.718,110.476L226,101.75L256,256h124.25C380.25,201.648,371.519,151.381,356.718,110.476z"/>
<path style="fill:#8CFFF3;" d="M256,131.75V37.5c23.859,0,46.818,3.838,68.311,10.906c12.589,16.607,23.578,37.672,32.407,62.07
	C325.93,124.143,291.855,131.75,256,131.75z"/>
<path style="fill:#FFFFFF;" d="M115.801,88.42l49.481,52.056l22.407-92.07C161.108,57.148,136.781,70.849,115.801,88.42z"/>
<path style="fill:#DBFFF8;" d="M115.801,88.42C67.943,128.501,37.5,188.692,37.5,256l124.25,30l-6.468-175.524
	C141.403,104.315,128.201,96.91,115.801,88.42z"/>
<path style="fill:#8CFFF3;" d="M131.75,256H37.5c0,67.308,30.443,127.499,78.301,167.58l69.481-12.056L131.75,256z"/>
<g>
	<path style="fill:#06F5DD;" d="M155.282,401.524c-13.879,6.161-27.081,13.566-39.481,22.056
		c20.98,17.571,45.307,31.272,71.888,40.014L155.282,401.524z"/>
	<path style="fill:#06F5DD;" d="M193.875,236l-62.125,20c0,54.352,8.731,104.619,23.532,145.524L256,380.25V256L193.875,236z"/>
</g>
<path style="fill:#00D4BE;" d="M155.282,401.524c8.828,24.398,19.818,45.463,32.407,62.07C209.182,470.662,232.141,474.5,256,474.5
	v-94.25C220.145,380.25,186.07,387.857,155.282,401.524z"/>
<path style="fill:#8CFFF3;" d="M155.282,110.476C140.481,151.381,131.75,201.648,131.75,256H256V131.75L155.282,110.476z"/>
<path style="fill:#DBFFF8;" d="M256,131.75V37.5c-23.859,0-46.818,3.838-68.311,10.906c-12.589,16.607-23.578,37.672-32.407,62.07
	C186.07,124.143,220.145,131.75,256,131.75z"/>
<path d="M437.02,74.98C388.667,26.629,324.38,0,256,0S123.333,26.629,74.98,74.98C26.629,123.332,0,187.62,0,256
	s26.629,132.668,74.98,181.02C123.333,485.371,187.62,512,256,512s132.667-26.629,181.02-74.98C485.371,388.668,512,324.38,512,256
	S485.371,123.332,437.02,74.98z M256,497C123.112,497,15,388.888,15,256S123.112,15,256,15s241,108.112,241,241S388.888,497,256,497
	z"/>
<path d="M415.806,96.194C373.12,53.508,316.367,30,256,30S138.88,53.508,96.194,96.194S30,195.634,30,256
	c0,28.04,5.087,55.428,15.121,81.402c1.492,3.863,5.833,5.789,9.699,4.294c3.864-1.492,5.786-5.835,4.293-9.698
	c-8.468-21.923-13.148-44.932-13.969-68.498h79.165c0.716,48.513,8.371,94.793,21.655,134.065
	c-10.163,4.852-20.039,10.393-29.569,16.61c-17.814-15.708-33.118-34.528-45.003-55.943c-2.01-3.622-6.576-4.929-10.197-2.918
	c-3.622,2.01-4.928,6.575-2.918,10.197c13.633,24.563,31.461,45.943,52.299,63.449c0.251,0.244,0.519,0.462,0.797,0.665
	c21.585,17.965,46.363,31.789,73.035,40.713c0.587,0.286,1.209,0.484,1.844,0.608C208.464,478.166,231.96,482,256,482
	c60.367,0,117.12-23.508,159.806-66.194S482,316.366,482,256S458.492,138.88,415.806,96.194z M466.852,248.5h-79.161
	c-0.716-48.513-8.371-94.793-21.655-134.065c10.138-4.84,19.99-10.366,29.499-16.564C437.581,135.016,464.749,188.621,466.852,248.5
	z M319.725,457.156c-17.84,5.664-36.699,9.01-56.225,9.696v-78.978c28.993,0.887,57.255,6.914,83.711,17.751
	C339.554,425.323,330.324,442.752,319.725,457.156z M360.877,411.723c7.671,3.718,15.162,7.862,22.451,12.412
	c-12.259,9.306-25.559,17.307-39.698,23.788C350.009,436.916,355.772,424.779,360.877,411.723z M192.246,457.117
	c-10.587-14.396-19.807-31.812-27.457-51.491c26.456-10.837,54.719-16.864,83.711-17.751v78.99
	C229.16,466.177,210.259,462.837,192.246,457.117z M263.5,372.869V263.5h109.192c-0.701,46.451-7.901,90.62-20.38,128.006
	C324.231,380.084,294.249,373.755,263.5,372.869z M263.5,248.5V139.131c30.749-0.886,60.731-7.215,88.812-18.637
	c12.48,37.386,19.68,81.555,20.38,128.006H263.5z M192.275,54.844c17.84-5.664,36.699-9.01,56.225-9.696v78.978
	c-28.993-0.887-57.255-6.914-83.711-17.751C172.446,86.677,181.676,69.248,192.275,54.844z M151.123,100.277
	c-7.671-3.718-15.162-7.862-22.451-12.412c12.259-9.306,25.559-17.307,39.698-23.788C161.991,75.084,156.228,87.221,151.123,100.277
	z M319.725,54.844c10.599,14.404,19.829,31.833,27.487,51.531c-26.456,10.837-54.718,16.864-83.711,17.751V45.148
	C283.026,45.833,301.885,49.179,319.725,54.844z M343.63,64.078c14.138,6.481,27.439,14.481,39.698,23.787
	c-7.289,4.55-14.78,8.693-22.451,12.412C355.772,87.221,350.009,75.084,343.63,64.078z M248.5,139.131V248.5H139.308
	c0.701-46.451,7.901-90.62,20.38-128.006C187.769,131.916,217.751,138.245,248.5,139.131z M116.465,97.871
	c9.509,6.198,19.361,11.724,29.499,16.564c-13.284,39.272-20.938,85.552-21.655,134.065H45.148
	C47.251,188.621,74.419,135.016,116.465,97.871z M139.308,263.5H248.5v109.369c-30.749,0.886-60.731,7.215-88.812,18.637
	C147.209,354.12,140.009,309.951,139.308,263.5z M151.123,411.723c5.101,13.048,10.861,25.178,17.235,36.179
	c-14.07-6.432-27.403-14.389-39.745-23.732C135.921,419.607,143.432,415.451,151.123,411.723z M395.535,414.129
	c-9.509-6.198-19.361-11.724-29.499-16.564c13.284-39.272,20.938-85.552,21.655-134.065h79.161
	C464.749,323.379,437.581,376.984,395.535,414.129z"/>
<g>
</g>
<g>
</g>
<g>
</g>
<g>
</g>
<g>
</g>
<g>
</g>
<g>
</g>
<g>
</g>
<g>
</g>
<g>
</g>
<g>
</g>
<g>
</g>
<g>
</g>
<g>
</g>
<g>
</g>
</svg>
