<svg width="250" height="250" viewBox="0 0 475 462" fill="none" xmlns="http://www.w3.org/2000/svg">
                <path d="M237.5 459.5C367.22 459.5 472.5 357.263 472.5 231C472.5 104.737 367.22 2.5 237.5 2.5C107.78 2.5 2.5 104.737 2.5 231C2.5 357.263 107.78 459.5 237.5 459.5Z" fill="white" stroke="black" stroke-width="5"/>
            <mask id="mask0_7_20597" style="mask-type:alpha" maskUnits="userSpaceOnUse" x="5" y="5" width="465" height="452">
            <path d="M467.5 231C467.5 354.369 364.593 454.5 237.5 454.5C110.407 454.5 7.5 354.369 7.5 231C7.5 107.631 110.407 7.5 237.5 7.5C364.593 7.5 467.5 107.631 467.5 231Z" fill="white" stroke="black" stroke-width="5"/>
            </mask>
            <g mask="url(#mask0_7_20597)">
            <path fill-rule="evenodd" clip-rule="evenodd" d="M380.863 514.831C388.383 514.48 385.358 501.756 384.819 497.083C378.865 480.016 380.265 461.396 377.923 443.507C376.465 426.808 374.59 410.16 373.014 393.473C369.918 359.601 347.683 290.645 322.308 279.556C319.112 265.988 305.91 253.324 289.207 253.324C277.814 240.279 264.102 231.098 246.514 232.951C239.246 233.271 232.197 240.728 225.233 242.168C221.334 242.688 186.728 241.35 179.796 245.332C174.968 247.731 170.609 252.162 172.029 257.805C174.294 264.641 167.254 257.244 152.569 264.54C122.624 281.938 140.518 305.212 141.311 305.934C122.624 331.085 106.291 351.49 98.7334 382.232C93.8356 405.055 94.3869 428.617 90.2833 451.558C88.8343 459.512 86.6115 467.195 84.2062 474.919C81.5993 485.028 80.3317 510.225 78.8948 510.45C76.2775 511.079 80.4075 516.278 83.1809 516.282C160.073 528.62 238.177 516.793 315.483 514.861C337.269 514.128 359.078 513.959 380.863 514.831Z" fill="#D08B5B"/>
            <path fill-rule="evenodd" clip-rule="evenodd" d="M225.33 264.316C225.33 272.232 253.745 301.647 263.551 299.707C270.088 298.413 279.966 289.976 293.183 274.395V264.316L290.329 253.343C306.499 253.895 319.184 266.294 322.308 279.556C347.429 290.535 369.473 358.228 372.915 392.447L373.014 393.474C374.59 410.16 376.465 426.808 377.923 443.507C380.265 461.396 378.865 480.017 384.819 497.084L384.854 497.374C385.475 502.261 388.232 514.487 380.863 514.831C359.078 513.959 337.269 514.128 315.483 514.861C238.177 516.794 160.073 528.621 83.1809 516.282C80.4075 516.278 76.2775 511.079 78.8948 510.451C80.3317 510.225 81.5993 485.029 84.2062 474.919L84.701 473.322C86.9144 466.134 88.9342 458.964 90.2833 451.558C94.3869 428.617 93.8356 405.056 98.7334 382.232C106.291 351.49 122.624 331.085 141.311 305.934C140.518 305.213 122.624 281.938 152.569 264.541C167.254 257.244 174.294 264.641 172.029 257.805C170.609 252.163 174.968 247.731 179.796 245.333C186.728 241.35 221.334 242.689 225.233 242.169C227.044 241.794 228.862 241.012 230.687 240.055L230.37 241.075C227.01 251.97 225.33 259.717 225.33 264.316Z" fill="#9E7CC1"/>
            <path fill-rule="evenodd" clip-rule="evenodd" d="M264.321 308.154C264.357 307.813 264.832 307.814 264.868 308.154L265.411 313.223C266.072 319.415 266.708 325.594 267.169 331.815C267.743 339.572 268.128 347.327 268.313 355.101C268.959 382.177 269.087 409.268 269.142 436.35C272.928 436.097 276.714 435.852 280.503 435.616C283.073 435.455 285.644 435.301 288.214 435.15L294.769 434.765L297.468 434.605C299.292 434.496 301.364 434.052 302.639 435.615C303.149 436.24 303.405 437.053 302.929 437.796C301.832 439.509 300.146 439.449 298.239 439.523C296.44 439.593 294.641 439.662 292.842 439.729C288.986 439.874 285.131 440.011 281.274 440.115C277.227 440.225 273.182 440.314 269.136 440.381C269.095 451.814 268.606 463.234 268.077 474.654L267.838 479.794C267.191 493.692 266.495 507.603 265.506 521.483C265.425 522.619 263.763 522.617 263.683 521.483C262.569 505.852 261.835 490.187 261.106 474.535C260.578 463.187 260.27 451.835 260.124 440.482C259.589 440.486 259.055 440.493 258.52 440.495C243.335 440.559 228.154 440.623 212.969 440.485C212.995 440.514 213.02 440.543 213.036 440.581C214.135 443.091 214.24 446.293 214.213 448.986C214.182 452.075 213.752 455.126 213.017 458.129C210.382 468.889 203.587 478.527 195.847 486.495L195.594 486.754C193.769 488.62 191.674 490.495 190.553 492.872C189.408 495.299 189.011 498.138 188.446 500.745L188.38 501.045L186.171 510.916C185.469 514.052 185.269 518.624 182.704 520.886C180.31 522.997 177.139 521.895 176.013 519.177C175.133 517.056 176.009 514.727 176.53 512.607L180.612 496.008C181.283 493.302 182.016 490.577 183.463 488.145C184.946 485.655 187.12 483.849 189.338 482.002C193.538 478.504 197.394 474.499 200.655 470.163C203.915 465.829 206.701 461.051 208.654 456.027C209.632 453.512 210.434 450.899 210.987 448.265C211.512 445.765 211.508 443.177 212.07 440.704C212.108 440.533 212.257 440.416 212.428 440.364C212.388 440.254 212.45 440.104 212.609 440.095L225.028 439.323C236.067 438.634 247.105 437.927 258.134 437.12L260.083 436.984C259.932 421.836 260.06 406.686 260.343 391.532C260.602 377.636 260.608 363.737 261.035 349.843C261.247 342.947 261.705 336.068 262.215 329.186C262.736 322.148 263.571 315.17 264.321 308.154ZM147.716 388.725C147.583 387.953 148.587 387.475 149.049 388.181C154.338 396.244 156.887 405.002 157.962 414.438C158.911 422.765 158.631 431.213 158.159 439.562C157.654 448.467 157.066 457.37 156.471 466.271L155.557 479.92L153.264 514.137C153.099 516.584 152.525 518.81 150.347 519.948C150.071 520.17 149.783 520.37 149.448 520.543C148.271 521.152 146.71 520.845 146.03 519.676L146.303 519.85C146.54 519.995 146.273 519.793 145.502 519.244L144.847 518.424C144.371 517.733 144.067 517.052 143.945 516.23C143.755 514.952 144.001 513.551 144.087 512.266L145.591 489.829C146.76 472.386 148.125 454.948 149.155 437.497C149.634 429.363 149.97 421.221 149.742 413.073C149.516 404.97 149.089 396.73 147.716 388.725ZM193.462 238.526L193.755 238.478C204.259 236.791 215.68 237.106 225.279 242.004C225.358 242.044 225.322 242.172 225.233 242.168L222.143 242.049C212.362 241.678 202.611 241.459 192.994 243.682L192.009 243.912C188.546 244.729 184.929 245.729 182.147 247.942C179.488 250.057 178.164 253.32 176.891 256.324L176.721 256.721C175.429 259.687 173.794 262.501 170.963 264.356C167.296 266.759 162.885 266.464 158.68 266.791C151.277 267.366 145.224 272.557 142.212 278.908C140.389 282.754 139.611 287.066 139.457 291.272C139.378 293.413 139.367 295.638 139.662 297.765C139.756 298.445 140.625 300.923 141.068 300.863C142.053 300.731 142.953 301.228 143.26 301.989C145.693 299.716 148.195 297.508 150.779 295.38C157.218 290.075 164.153 285.268 171.457 281.136C177.031 277.983 182.911 274.859 189 272.497C188.517 272.487 188.042 272.58 187.581 272.811C187.38 272.913 187.179 272.669 187.339 272.507C189.256 270.555 191.553 270.277 193.869 270.798C194.363 270.646 194.858 270.499 195.354 270.359C195.602 270.289 195.724 270.619 195.523 270.746L194.954 271.097C197.48 271.916 199.961 273.525 201.925 274.795C207.565 278.442 212.531 282.9 217.564 287.275L218.479 288.068C222.909 291.895 227.452 295.613 232.486 298.683C235.121 300.29 237.888 301.776 240.791 302.882C243.281 303.831 247.335 304.428 248.501 306.973C249.538 308.191 249.105 309.746 247.891 310.566C245.843 312.745 241.748 311.337 239.308 310.429C236.367 309.335 233.518 308.019 230.8 306.477C225.525 303.481 220.661 299.755 216.129 295.793C211.397 291.654 206.933 287.258 202.33 282.989C200.336 281.139 198.387 279.246 196.39 277.4L195.387 276.48C194.367 275.556 192.915 274.114 191.362 273.242C188.437 274.93 185.466 276.548 182.567 278.28C178.52 280.697 174.592 283.289 170.725 285.965C163.28 291.118 156.225 296.89 149.676 303.076C137.664 314.421 127.43 327.377 118.49 341.094L117.811 342.14C112.731 349.991 107.927 358.096 104.521 366.772C100.773 376.319 98.9498 386.358 97.9596 396.493C96.9767 406.554 96.6452 416.667 95.5469 426.719C94.4205 437.028 92.2011 447.11 89.6767 457.173L89.0747 459.559C86.7905 468.571 84.4329 477.584 83.2588 486.809C82.632 491.736 82.2549 496.732 82.3402 501.699C82.4258 506.696 83.2374 511.581 83.8922 516.525C84.1432 518.419 82.2164 520 80.4924 520.251C78.5096 520.539 76.8062 519.315 76.1899 517.534C74.2686 511.979 73.9196 505.839 73.9799 500.009C74.0406 494.091 74.8215 488.211 75.9203 482.394C78.0812 470.953 81.4161 459.748 84.2058 448.444C86.6644 438.48 88.3145 428.499 89.204 418.292C90.1273 407.702 90.6802 397.076 92.3645 386.563C94.0271 376.184 97.1553 366.27 101.873 356.805C106.168 348.188 111.523 340.078 117.137 332.216C123.954 322.67 131.441 313.586 139.81 305.309C139.059 305.277 138.287 305.043 137.578 304.615C135.409 303.306 134.399 300.746 134.088 298.409C133.362 292.941 133.537 287.233 134.991 281.887C137.336 273.263 143.422 265.601 152.242 262.492C154.513 261.692 156.926 261.4 159.332 261.343C161.615 261.288 164.109 261.576 166.312 260.875C169.819 259.76 171.322 255.765 172.638 252.737L172.699 252.598C174.387 248.739 176.413 245.431 180.07 243.022C183.971 240.45 188.859 239.281 193.462 238.526ZM293.261 253.788C296.417 252.728 300.363 253.69 303.45 254.615C306.889 255.646 310.066 257.545 312.791 259.801C315.665 262.18 318.04 265.117 319.719 268.398L319.879 268.715C321.412 271.758 323.157 275.937 322.385 279.281C322.362 279.376 322.337 279.467 322.308 279.556C328.571 282.538 334.354 286.273 339.39 291.007C345.255 296.519 350.22 302.792 354.422 309.568C371.111 336.483 374.049 368.807 376.02 399.501L376.512 407.283C377.582 424.088 378.834 440.854 382.088 457.427L382.325 458.624C385.803 475.976 390.782 493.461 390.277 511.262C390.126 516.595 381.978 516.559 381.742 511.262C380.852 491.323 376.042 472.073 372.785 452.446C367.055 417.916 369.926 382.317 361.806 348.133C358.619 334.718 353.683 321.705 346.634 309.731C343.152 303.815 339.168 298.099 334.501 292.995C330.486 288.604 326.313 284.378 321.622 280.686C320.122 282.139 317.126 281.399 316.344 279.281C315.806 277.825 315.963 276.124 315.618 274.599C315.297 273.184 314.856 271.781 314.267 270.449C313.095 267.794 311.373 265.244 309.386 263.094C307.24 260.771 304.773 258.841 302.012 257.248C299.232 255.643 296.193 255.164 293.261 253.992C293.162 253.952 293.153 253.824 293.261 253.788ZM305.524 438.328C305.528 438.188 305.699 438.122 305.804 438.215C306.911 439.2 307.58 440.614 308.394 441.826C309.333 443.223 310.319 444.591 311.354 445.924C313.426 448.595 315.733 451.112 318.058 453.579C320.221 455.873 322.525 458.07 324.916 460.14C327.507 462.385 330.41 464.387 332.763 466.872C337.674 472.057 338.468 479.173 339.504 485.855L339.618 486.578C340.249 490.544 340.816 494.52 341.326 498.502C341.574 500.439 341.822 502.377 342.024 504.319L342.086 504.934C342.266 506.835 342.315 508.764 341.186 510.425C339.978 512.202 337.232 512.825 335.599 511.121C332.793 508.194 333.319 502.994 332.954 499.229C332.653 496.115 332.311 493.005 331.928 489.899L331.733 488.347C331.281 484.814 330.915 481.211 330.08 477.74C329.343 474.683 327.94 472.375 325.637 470.161C323.317 467.93 320.907 465.847 318.766 463.445C316.495 460.897 314.446 458.164 312.6 455.313C311.022 452.874 309.756 450.22 308.597 447.569L308.404 447.127C307.284 444.542 305.436 441.176 305.524 438.328ZM346.032 327.277C346.057 326.917 346.608 326.911 346.616 327.277C346.685 330.379 346.752 333.48 346.819 336.582C347.354 361.575 347.024 386.626 349.616 411.533C350.839 423.277 353.09 434.848 355.695 446.371C357.028 452.267 358.426 458.149 359.755 464.046C361.05 469.793 362.439 475.568 363.466 481.368C364.475 487.069 365.379 492.814 365.785 498.588L365.835 499.341C366.01 502.138 366.843 506.252 365.251 508.731C363.526 511.417 360.223 511.465 358.375 508.901C356.639 506.495 357.07 502.213 356.764 499.341C356.452 496.416 356.123 493.488 355.748 490.569C355.018 484.875 354.056 479.194 353.055 473.54C350.971 461.763 347.948 450.135 345.716 438.378C343.429 426.33 341.804 414.196 341.735 401.93C341.667 389.559 343.021 377.212 343.704 364.869C344.398 352.332 345.187 339.805 346.032 327.277ZM223.984 249.541C224.678 247.281 227.126 245.869 229.514 246.503C231.703 247.085 233.51 249.655 232.654 251.853C231.72 254.252 230.088 256.298 228.713 258.478C227.442 260.493 225.588 262.08 224.294 264.059L225.72 265.546C226.434 266.288 227.15 267.026 227.873 267.751L230.361 270.244C232.299 272.182 234.249 274.109 236.254 275.979C242.149 281.48 248.138 286.8 254.74 291.511C256.243 292.583 257.758 293.649 259.315 294.647L259.896 295.019C260.964 295.696 262.156 296.361 263.446 296.246C266.582 295.968 269.416 292.746 271.571 290.741L271.683 290.637C277.024 285.722 281.968 280.348 286.292 274.569C287.251 273.285 288.181 271.98 289.086 270.659C286.996 268.297 287.495 263.686 287.38 260.822C287.299 258.808 287.292 256.794 287.281 254.778L287.275 254.372C287.25 253.067 287.189 251.816 288.064 250.742C288.115 250.68 288.221 250.682 288.286 250.715C289.484 251.323 289.854 252.34 290.365 253.481L290.419 253.6C291.041 254.969 291.637 256.352 292.24 257.729C292.872 259.172 293.451 260.635 294.037 262.095C294.311 262.774 294.571 263.455 294.826 264.141C294.981 264.578 295.142 265.014 295.307 265.449L295.346 265.482C295.564 265.661 295.749 265.85 295.908 266.045C296.577 266.369 297.108 266.958 297.357 267.825C297.9 269.711 296.777 271.249 295.775 272.746C291.705 278.828 287.066 284.624 281.909 289.882C279.347 292.494 276.653 294.989 273.847 297.355L273.357 297.766C270.837 299.861 268.101 301.845 264.735 302.335C260.797 302.909 257.592 301.014 254.577 298.831L254.276 298.612C251.418 296.519 248.617 294.352 245.903 292.086C240.371 287.466 235.108 282.505 230.437 277.062C225.893 271.767 221.402 265.848 218.601 259.477C218.431 259.089 218.88 258.683 219.231 259.007C220.599 260.267 221.916 261.595 223.216 262.94C223.252 260.96 222.875 258.963 223.085 256.971C223.341 254.548 223.267 251.873 223.984 249.541Z" fill="black"/>
            <path fill-rule="evenodd" clip-rule="evenodd" d="M315.075 164.496C314.152 152.925 315.582 140.796 310.979 129.797C302.955 111.548 280.452 105.463 263.007 98.5157C256.019 96.5138 232.502 96.234 224.319 93.5845C205.799 87.588 201.374 80.4432 186.658 91.8608C184.174 93.8112 182.619 95.931 181.486 98.8273L181.532 98.8398C181.208 100.047 181.555 101.252 182.285 102.172C175.904 108.495 173.234 117.974 176.508 126.39C187.192 148.292 186.689 160.134 183.247 183.679C178.752 205.66 189.024 213.689 206.036 225.65C205.344 226.951 205.2 228.682 206.103 229.83C225.775 256.629 262.867 269.424 294.648 255.822C307.548 250.256 313.307 236.938 316.594 224.921C320.422 211.466 321.599 197.287 318.482 183.581C317.225 177.242 315.587 170.949 315.075 164.496Z" fill="#D08B5B"/>
            <path fill-rule="evenodd" clip-rule="evenodd" d="M174.175 131.67L185.872 139.224L227.742 96.4338L213.809 85.8027C213.809 85.8027 188.53 103.914 183.56 108.694C178.589 113.474 174.175 131.67 174.175 131.67Z" fill="#9E7CC1"/>
            <path fill-rule="evenodd" clip-rule="evenodd" d="M201.601 36.2917C203.989 35.9441 205.793 37.3803 206.65 39.4046L206.695 39.5136C206.971 40.2024 207.278 40.8723 207.608 41.531C213.583 38.6893 222.11 39.4195 225.891 45.1744C228.59 49.2846 226.943 54.1625 225.926 58.5211L225.258 61.3929C226.549 62.1892 227.523 63.6153 227.477 65.092L227.471 65.2057L227.2 69.2104C228.062 68.3636 228.85 67.4414 229.553 66.4591C230.038 65.5971 230.562 64.7503 231.125 63.9297C234.437 59.1007 241.872 63.2974 239.139 68.469C238.615 69.4664 238.024 70.4111 237.392 71.322C236.677 72.6657 236.091 74.047 235.641 75.466C236.933 76.0117 237.927 77.2237 238.032 79.0529C238.277 83.3249 235.963 86.8893 232.282 89.1288C231.199 89.7875 230.081 89.9155 229.067 89.6708C228.889 89.9042 228.71 90.1375 228.539 90.3746C230.007 91.5301 231.331 92.8475 232.468 94.3079C235.893 93.811 239.337 93.5777 242.781 93.5702C246.989 91.5715 252.029 91.6129 256.552 92.362C259.464 92.8437 262.26 93.7809 265.125 94.4547C268.146 95.1623 271.213 95.1886 274.269 95.6704C278.12 96.2764 281.498 98.0002 283.622 100.752C285.956 100.819 288.409 101.745 290.444 103.002C295.181 105.931 299.89 108.9 304.616 111.847C306.429 112.979 307.107 114.785 306.774 116.8L306.751 116.929L306.592 117.764L306.966 118.279C308.412 120.258 309.985 122.332 310.921 124.517C312.653 126.937 314.217 129.474 315.603 132.09C317.471 135.605 319.012 139.331 320.057 143.155C320.317 144.123 320.577 145.097 320.748 146.084C320.993 147.476 320.616 148.556 320.41 149.893C320.154 151.586 320.061 153.303 319.789 155C319.606 156.126 318.62 156.679 317.587 156.709C317.976 159.573 318.255 162.456 318.523 165.317C318.9 169.404 319.156 173.503 319.377 177.602C320.519 179.209 322.852 180.481 324.537 180.922C326.871 181.528 329.317 180.869 331.522 180.098C332.908 179.612 334.046 181.302 333.37 182.431C331.247 185.977 326.704 185.962 323.264 184.392C321.808 183.73 320.53 182.77 319.583 181.52C319.641 182.71 319.703 183.899 319.766 185.092L319.823 186.173C320.523 198.794 322.033 211.849 319.587 224.346C315.351 245.992 296.873 262.473 274.3 263.753C262.455 264.425 252.591 261.033 247.686 259.141C242.781 257.249 244.687 253.392 248.092 254.494C253.958 256.394 264.734 259.224 274.378 258.002C297.107 255.122 316.38 244.109 314.4 196.677C314.119 189.951 313.254 183.222 313.068 176.496C312.889 169.92 312.955 163.341 312.656 156.769L312.557 154.527C312.44 151.907 312.315 149.275 312.113 146.652C311.868 145.636 311.666 144.604 311.367 143.607C310.556 140.893 309.496 138.255 308.18 135.737C307.889 135.951 307.562 136.106 307.209 136.166C304.526 136.632 302.01 136.501 299.498 135.417C298.326 134.916 297.293 134.25 296.33 133.426C295.872 133.038 295.565 132.662 295.324 132.27C294.109 132.289 292.894 131.935 292.133 131.088C291.265 130.123 291.121 129.126 291.461 128.203L291.496 128.111L291.411 128.081C290.386 130.652 288.343 132.914 286.103 134.442C282.562 136.866 278.132 137.566 273.884 137.63C269.194 137.698 264.248 136.998 259.62 136.282C258.397 136.094 257.181 135.88 255.989 135.59C255.943 135.635 255.896 135.688 255.846 135.733C251.874 139.418 246.287 140.366 241.247 138.262C238.335 137.047 235.893 135.089 233.734 132.846C233.703 134.02 233.641 135.195 233.536 136.358L233.493 136.82C233.278 138.986 232.864 141.283 231.175 142.847C228.446 145.38 224.486 144.363 221.337 142.715C221.341 142.794 221.341 142.877 221.341 142.96C222.191 145.76 223.045 148.564 223.899 151.368L224.083 151.965C224.705 153.956 225.386 155.95 225.573 158.034C225.93 162.016 223.197 165.949 218.631 164.613C216.236 163.915 214.317 161.963 212.476 160.399L211.316 159.426C214.317 168.938 216.398 178.788 216.592 188.713C216.604 189.251 216.126 189.658 215.598 189.677C214.364 189.726 213.036 189.488 211.793 189.01C211.723 189.007 211.654 189.003 211.58 188.992C209.46 188.694 207.491 187.953 205.756 186.857C206.156 188.088 206.334 189.409 206.23 190.791C206.202 191.126 205.663 191.242 205.585 190.874C204.583 186.097 198.818 182.488 193.848 183.402C188.513 184.385 184.584 188.833 183.621 193.896C182.588 199.335 184.564 205.624 188.226 209.821C189.911 211.755 192.128 213.37 194.76 213.777C195.964 213.961 197.214 213.897 198.383 213.566C198.88 213.423 199.346 213.223 199.819 213.035C200.51 212.764 201.318 212.723 201.97 212.437C203.45 211.793 204.937 213.114 204.187 214.586C203.535 215.869 202.949 216.735 201.865 217.397C202.743 218.436 203.539 219.882 203.834 220.269C205.34 222.242 206.87 224.105 208.586 225.908C210.333 227.737 212.24 229.408 214.255 230.955L215.102 231.604C217.043 233.096 218.733 234.479 220.102 236.619C221.182 238.309 219.784 240.602 217.761 240.575C211.432 240.489 206.831 235.099 203.554 230.39C203.088 229.717 202.65 229.005 202.242 228.275C202.095 228.505 201.931 228.719 201.749 228.915L202.11 229.856C203.182 232.626 198.565 234.436 197.226 231.851C196.251 229.976 195.121 228.192 193.863 226.506C193.122 226.404 192.396 225.968 191.992 225.403C190.971 223.969 189.825 222.52 188.859 220.992C188.323 220.499 187.771 220.025 187.209 219.562C187.045 219.701 186.878 219.84 186.719 219.987C186.013 221.549 185.139 222.975 184.056 224.319L183.824 224.606C181.748 227.141 179.045 229.736 175.7 230.356C174.679 230.545 173.697 229.314 174.602 228.527C176.943 226.487 179.711 225.098 181.87 222.821C182.933 221.699 183.91 220.464 184.75 219.169L184.941 218.869C185.081 218.647 185.224 218.425 185.372 218.199C184.397 217.556 183.423 216.908 182.448 216.261C179.766 218.483 176.272 219.499 173.305 221.34L173.01 221.526C170.327 223.265 167.5 219.419 169.651 217.307C172.022 214.988 174.002 212.223 176.102 209.645C175.114 207.882 174.647 205.796 174.472 203.688C174.403 203.092 174.349 202.495 174.295 201.898C172.788 201.92 171.274 201.42 169.993 200.558L169.508 200.223C167.951 200.705 166.316 200.938 164.751 200.897C161.071 200.791 159.564 196.715 161.867 194.137C164.216 191.502 168.327 190.926 171.585 192.206C171.69 192.153 171.798 192.097 171.903 192.04C171.748 191.348 171.782 190.72 171.959 190.168L171.908 189.831C171.191 188.766 170.721 187.549 170.542 186.264C170.401 185.246 170.429 184.237 170.672 183.231C170.753 182.897 170.921 182.55 171.05 182.201C170.785 181.553 170.629 180.883 170.581 180.209C170.507 180.124 170.433 180.036 170.363 179.941C168.747 177.741 169.073 175.09 170.612 173.31C170.619 173.197 170.63 173.084 170.646 172.971C170.555 172.775 170.473 172.576 170.397 172.376C168.894 170.906 167.791 169.137 167.997 166.946C168.118 165.656 168.664 164.495 169.492 163.628C169.345 163.207 169.331 162.719 169.509 162.313C168.188 158.908 168.355 154.807 169.306 150.999C169.096 150.42 168.987 149.791 169.011 149.125C169.119 146.298 171.643 143.701 174.633 143.735C174.993 143.738 175.33 143.783 175.653 143.85L175.658 143.783C175.772 142.934 176.013 142.15 176.364 141.447C176.192 141.386 176.032 141.299 175.891 141.184C173.976 142.174 171.949 142.932 169.823 143.448C168.26 143.827 166.66 142.105 167.631 140.683C168.082 140.023 168.579 139.431 169.115 138.89C168.353 138.894 167.58 138.944 166.797 139.041C165.392 139.218 163.823 138.289 162.911 137.031C161.777 138.1 160.64 139.166 159.502 140.231C156.621 142.937 152.269 140.946 151.814 137.378C150.956 137.156 150.157 136.779 149.454 136.241C144.911 138.153 140.023 139.203 135.026 139.403C131.438 139.546 129.342 135.496 131.019 132.635C132.145 130.716 133.543 128.992 135.154 127.494C132.654 128.235 130.072 128.77 127.435 129.112C126.01 129.297 123.995 128.153 123.425 126.884C121.243 122.006 121.429 116.921 123.941 112.175C124.038 111.987 124.147 111.806 124.252 111.625C124.512 110.997 124.795 110.376 125.102 109.766C122.011 106.642 121.743 101.997 123.409 98.1094C122.741 97.0593 122.485 95.7946 122.939 94.6504C124.232 91.357 126.096 88.3158 128.449 85.7037C128.223 85.2821 128.025 84.8342 127.859 84.3525C126.535 80.4569 128.068 75.7558 131.163 73.0421C133.108 71.3333 135.344 70.3095 137.732 69.6546C138.738 67.9307 140.031 66.3763 141.537 65.0664C141.595 64.9422 141.654 64.818 141.72 64.6938C144.065 60.4105 148.336 58.1146 152.913 57.5839C153.092 55.909 154.257 54.3093 155.949 53.7899C156.415 52.3408 157.11 50.9557 158.065 49.6986C159.568 47.7188 162.065 46.7854 164.417 48.0839C165.706 48.7953 166.941 49.612 168.098 50.5153C168.618 50.2791 169.207 50.1262 169.872 50.0775L170.039 50.0674L173.868 49.8793C175.471 49.1905 177.071 48.4678 178.674 47.764C179.637 46.9924 180.713 46.3487 181.885 45.8707C183.213 45.3325 184.572 45.0276 185.935 44.926C187.042 44.576 188.156 44.2673 189.29 44.0264C191.953 43.4619 194.741 43.1457 197.505 43.172C197.562 42.4784 197.59 41.7765 197.585 41.0663L197.579 40.7105C197.517 38.4333 199.392 36.6154 201.601 36.2917ZM198.919 218.481C198.538 218.56 198.154 218.624 197.769 218.67C197.886 218.948 198.002 219.227 198.115 219.505C198.425 219.675 198.74 219.836 199.054 219.987C198.961 219.475 198.907 218.959 198.919 218.481ZM178.971 212.735L178.713 213.196C178.671 213.271 178.63 213.346 178.589 213.419C179.137 213.378 179.688 213.389 180.231 213.449L180.23 213.393C180.16 213.37 180.09 213.349 180.023 213.317C179.648 213.143 179.3 212.947 178.971 212.735ZM189.752 191.713C193.187 191.907 196.097 192.417 199.221 193.874L199.489 194.001C202.25 195.33 206.816 197.784 206.431 201.303C206.323 202.304 205.573 203.358 204.393 203.279C201.159 203.065 199.311 199.903 197.121 197.931C194.912 195.943 192.198 193.9 189.523 192.533C189.144 192.341 189.293 191.732 189.705 191.713L189.752 191.713ZM174.174 145.346C173.351 145.372 173.627 146.148 174.05 145.5C174.085 145.447 174.128 145.395 174.174 145.346ZM218.606 93.5845C210.81 93.7832 202.965 98.2452 197.125 102.755C192.044 106.679 187.657 111.346 183.773 116.377C182.773 118.882 181.915 121.44 181.19 124.016C180.713 125.717 180.414 127.437 180.014 129.154L179.89 129.68C179.576 130.249 179.342 130.861 179.172 131.494C179.88 132.182 180.798 132.675 181.809 132.909C182.135 132.984 182.406 133.147 182.62 133.363C183.433 132.046 184.145 130.657 184.559 129.183L184.574 129.115C186.138 126.632 187.837 124.225 189.658 121.901C194.683 115.483 200.215 109.634 206.866 104.768C211.91 101.079 217.547 98.1884 223.542 96.3102C222.075 95.1626 220.409 94.2548 218.606 93.5845Z" fill="black"/>
            <path fill-rule="evenodd" clip-rule="evenodd" d="M279.639 233.439C277.023 232.407 274.689 230.685 272.983 228.485C272.39 227.721 272.236 226.913 272.361 226.175C272.501 225.345 273.008 224.592 273.701 224.087C274.396 223.581 275.265 223.331 276.105 223.458C276.835 223.569 277.562 223.956 278.137 224.758L278.257 224.918C279.271 226.245 280.593 227.335 282.099 228.037C283.551 228.713 285.174 229.029 286.854 228.846C290.054 228.496 292.26 226.822 294.604 224.549C294.894 224.262 295.185 223.966 295.477 223.665C295.662 223.392 295.918 223.217 296.202 223.125C296.518 223.023 296.875 223.029 297.202 223.139C297.517 223.246 297.799 223.447 297.988 223.716C298.168 223.971 298.27 224.287 298.237 224.649C298.022 227.005 296.749 229.108 294.94 230.759C292.932 232.592 290.269 233.861 287.763 234.305C285.001 234.796 282.187 234.444 279.639 233.439ZM289.065 197.095C292.003 198.823 296.48 202.851 293.319 207.134C289.599 210.911 284.242 206.581 281.603 204.623C279.155 203.105 276.405 207.008 278.676 208.78C297.75 222.441 305.491 197.547 290.551 195.064C288.906 194.79 288.296 196.561 289.065 197.095ZM254.884 181.204C255.208 177.306 261.345 176.421 261.956 180.278C262.502 183.733 261.859 186.907 260.25 190.018C258.713 192.99 254.849 191.604 254.557 188.897C254.165 185.27 254.682 183.629 254.884 181.204ZM301.599 179.478C302.454 178.394 303.69 177.654 305.17 178.072C309.794 179.38 308.431 185.73 306.807 188.822C305.925 190.5 303.072 190.926 301.783 189.448C299.682 187.038 298.676 182.224 301.347 179.85C301.419 179.727 301.5 179.603 301.599 179.478ZM260.185 164.148L260.915 164.024C263.175 163.646 265.985 163.283 267.583 165.04C268.431 165.972 268.723 167.704 267.583 168.596C265.579 170.166 263.363 169.557 260.96 169.69C258.981 169.8 257.078 170.117 255.171 170.644C250.988 171.801 247.579 173.913 244.006 176.231C243.537 176.535 243.059 175.955 243.282 175.531C245.345 171.623 249.342 168.413 253.346 166.456C255.482 165.412 257.821 164.545 260.185 164.148ZM297.383 162.397L297.942 162.508C304.027 163.738 311.931 166.195 314.813 171.977C314.922 172.794 314.806 172.969 314.712 173.084L314.681 173.122C314.603 173.22 314.541 173.354 314.175 173.466C314.073 173.442 313.97 173.417 313.867 173.391C312.546 173.056 311.501 172.595 310.489 172.116L309.393 171.594C308.12 170.99 306.836 170.408 305.476 169.979C302.572 169.063 299.586 168.418 296.553 168.073C295.896 167.998 295.263 167.784 294.764 167.416C294.29 167.067 293.928 166.584 293.763 165.941C293.549 165.11 293.61 164.48 294.071 163.73C294.418 163.167 294.914 162.776 295.484 162.552C296.065 162.324 296.726 162.27 297.383 162.397Z" fill="black"/>
            <path fill-rule="evenodd" clip-rule="evenodd" d="M254.402 235.797C257.552 228.658 264.427 223.411 272.343 221.493C278.156 220.088 284.256 220.133 290.182 220.691C293.287 220.981 296.617 221.218 299.543 222.334C302.041 223.287 304.077 225.088 305.608 227.202C307.431 229.707 308.67 232.574 309.541 235.513C309.664 235.931 309.78 236.352 309.889 236.775C309.51 238.993 308.707 240.88 306.584 242.274C304.512 243.635 302.04 244.192 299.575 244.39C299.334 244.278 299.1 244.163 298.886 244.044C295.046 241.918 292.343 236.892 287.496 237.572C283.17 238.18 280.323 243.444 277.751 246.532C269.494 247.462 261.243 245.062 254.524 240.495C254.183 238.932 254.163 237.355 254.402 235.797ZM315.501 230.382C314.84 228.588 314.008 226.852 313.022 225.216C309.762 219.805 304.757 215.495 298.816 213.03C284.762 207.209 266.577 211.313 255.226 220.86C251.349 224.124 247.429 228.92 246.244 234.079C245.89 234.147 245.555 234.325 245.28 234.576C237.08 229.582 228.635 224.776 222.027 217.853C217.228 212.823 213.891 206.87 211.847 200.329C211.68 199.79 210.782 199.869 210.809 200.465C210.817 200.604 210.825 200.743 210.833 200.883C210.747 200.627 210.343 200.758 210.312 201.007C209.212 208.954 207.837 217.379 209.103 225.366C209.861 230.133 212.099 233.622 215.091 237.39C218.297 241.429 221.926 245.186 225.637 248.788C227.992 251.075 230.451 253.712 233.335 255.389C236.688 257.337 240.492 258.818 244.071 260.321C247.712 261.855 251.407 263.271 255.172 264.5C262.699 266.964 270.478 268.667 278.393 269.413C284.73 270.008 291.973 270.657 298.047 268.351C302.702 266.583 306.459 263.389 309.439 259.545C312.684 255.359 315.249 250.591 316.667 245.562C318.14 240.339 315.811 231.224 315.501 230.382Z" fill="black"/>
            <path fill-rule="evenodd" clip-rule="evenodd" d="M321.872 200.464C319.253 203.868 314.396 204.953 309.916 204.578C300.255 203.679 297.214 193.064 296.898 184.814C303.376 186.577 296.35 174.091 318.496 172.718C326.303 172.089 324.151 176.65 327.6 179.982C327.529 186.976 326.326 194.576 321.872 200.464ZM275.855 192.427C270.151 218.268 238.916 212.121 235.635 188.828C238.665 186.759 237.867 181.652 241.631 179.801C247.596 176.114 255.053 176.271 261.828 176.358C270.487 176.934 272.954 180.403 277.402 184.189C277.188 186.718 276.571 189.714 275.855 192.427ZM334.246 168.438C333.925 168.387 333.605 168.338 333.284 168.293C333.034 168.155 332.74 168.05 332.399 167.986C331.618 167.794 330.844 167.665 330.07 167.596C318.969 165.179 293.287 168.611 292.227 177.775C288.692 178.916 285.633 177.894 281.535 177.996C278.416 165.385 224.496 167.165 221.902 174.768C221.893 174.765 221.883 174.763 221.873 174.76C219.381 174.014 215.708 174.194 212.856 174.076C206.766 173.952 200.67 174.477 194.712 175.72C183.555 177.435 168.328 179.443 176.087 192.921C176.089 192.923 176.09 192.925 176.092 192.928L176.093 192.927C177.43 194.253 179.7 193.185 179.784 191.39C177.176 185.005 183.068 184.238 187.602 182.403C198.882 178.483 210.367 177.939 222.034 179.152C222.912 180.152 224.244 181.023 225.652 181.48C233.452 182.732 229.341 188.33 234.272 189.144C233.366 208.656 257.856 219.307 272.045 206.481C277.711 201.122 279.061 193.185 280.375 186.03C281.069 185.879 281.511 185.512 281.769 185.025C283.439 183.412 284.489 181.923 287.792 181.48C291.095 181.037 293.637 181.926 293.981 182.198C294.068 182.367 294.161 182.536 294.269 182.705C294.42 182.958 294.625 183.159 294.859 183.318C291.597 202.748 307.191 215.037 322.933 204.959C329.773 198.735 331.218 189.205 331.504 180.7C332.431 180.158 333.018 179.109 332.697 177.791C332.255 175.973 333.292 174.399 334.944 173.608C337.091 172.582 336.711 168.833 334.246 168.438Z" fill="black"/>
            </g>
            </svg>