<svg width="200" height="400" viewBox="0 0 434 626" fill="none" xmlns="http://www.w3.org/2000/svg">
<path fill-rule="evenodd" clip-rule="evenodd" d="M265 592C334.588 592 391 535.588 391 466C391 396.412 334.588 340 265 340C195.412 340 139 396.412 139 466C139 535.588 195.412 592 265 592Z" fill="#F7DC3D"/>
<path fill-rule="evenodd" clip-rule="evenodd" d="M12.552 341.87C14.4662 341.321 16.8577 341.179 18.9519 341.079C26.3537 340.644 33.9012 344.168 41.1588 345.757C44.3358 346.541 47.6998 347.465 51.0995 348.153C54.1177 348.562 57.238 348.869 60.3752 349.064C62.9109 349.14 65.8615 348.946 66.7273 351.608C71.8242 352.595 76.336 353.005 81.1946 352.166C80.7396 350.62 80.4803 349.004 80.9509 347.339C80.7134 346.945 80.3902 346.411 80.2175 346.051H80.8015C89.3294 342.642 98.5512 340.314 107.124 336.782C118.313 332.755 134.793 324.974 147.721 319.661C146.845 314.868 146.52 309.998 146.892 305.263L146.372 304.844C146.202 303.914 145.936 302.8 145.456 301.957C144.846 300.341 144.832 298.135 144.589 296.309C144.084 292.736 143.747 287.357 144.666 283.115C145.068 277.363 148.951 272.929 153.138 269.372C158.278 264.295 163.425 259.342 168.444 254.069C196.218 225.794 198.415 190.181 241.894 179.358L241.916 179.189C242.258 178.808 242.398 178.505 242.789 179.108C244.224 178.559 246.014 178.605 247.217 177.676C249.351 175.732 250.865 173.488 251.855 170.824C252.618 165.789 252.078 158.03 256.495 154.808C261.401 151.874 287.468 149.784 289.716 156.2C291.111 157.508 291.745 159.17 292.181 161.205C293.633 163.948 294.55 166.99 296.013 169.776C299.123 176.023 301.139 174.639 306.631 176.067C307.227 174.74 309.037 175.007 310.355 175.2C326.326 177.441 345.797 183.557 352.634 198.547L352.052 198.473C363.855 220.617 356.201 248.779 354.09 272.246C352.382 293.105 354.335 314.064 358.976 333.521C364.672 354.163 364.998 377.252 353.697 395.936C352.549 398.074 351.15 401.096 348.675 399.755C347.319 400.779 345.796 401.486 343.692 402.102C343.112 402.522 342.511 403.228 341.904 403.529C341.876 403.57 340.898 403.007 340.847 402.992C338.999 405.626 237.552 414.425 227.024 415.791C217.749 416.908 205.494 419.759 197.935 413.078C191.689 411.296 185.153 406.656 180.161 402.05C177.132 445.918 175.457 535.761 172.754 536.387C171.571 536.787 169.975 537.266 168.636 537.65C168.628 540.801 168.393 544.382 168.641 547.481C169.056 550.98 170.107 555.112 170.583 558.791C172.628 558.654 173.229 560.702 173.467 562.094C175.232 573.586 175.18 582.852 175.053 595.485C154.298 607.693 129.973 614.407 106.619 622.297C104.382 623.975 99.5346 622.16 96.9517 621.706C87.9845 619.943 77.7952 614.728 80.0587 605.165C81.716 597.966 88.6744 593.823 94.532 589.587C100.94 584.951 107.696 580.318 113.59 574.798C118.318 570.35 121.849 566.899 125.792 561.88C127.541 559.546 129.406 555.71 131.758 553.99C129.273 551.045 134.295 553.805 136.196 553.975C137.315 548.718 138.699 543.67 140.36 538.627L138.746 538.7C133.446 533.757 130.475 510.029 130.106 502.989C127.449 457.099 127.512 404.207 138.17 365.56C130.074 370.538 121.197 374.696 113.147 379.619C108.07 382.589 102.92 386.712 97.2291 388.152C96.8585 389.215 95.5016 389.629 94.7612 388.588C93.7426 388.713 92.4303 388.291 92.3181 387.828C91.2765 385.7 89.7671 383.408 89.9487 381.096C89.9489 381.096 91.3464 377.859 91.3464 377.859C88.2153 379.13 84.8109 381.805 81.4684 382.05C74.7171 404.562 61.4152 391.951 48.6153 383.189C40.8905 377.799 32.4405 371.847 24.3109 366.1C17.4135 360.621 3.94771 355.421 10.5488 344.568" fill="#D08B5B"/>
<path fill-rule="evenodd" clip-rule="evenodd" d="M307.213 177.942C307.537 177.288 307.928 176.656 308.529 176.532C316.103 177.277 323.604 179.339 330.564 182.525C356.294 189.943 360.005 220.025 356.911 242.821C356.88 243.236 356.733 244.11 356.511 245.426C355.423 251.885 352.539 268.996 352.818 294.839C352.929 305.161 355.407 315.95 357.872 326.682C360.331 337.384 362.776 348.029 362.848 358.1C362.981 376.614 353.779 393.535 350.201 397.762C343.35 405.857 330.813 388.412 316.81 368.93C301.773 348.006 285.046 324.732 271.857 328.214C264.391 330.186 227.146 326.88 214.944 323.559C214.123 323.336 214.245 313.543 214.345 305.454C214.417 299.682 214.478 294.778 214.178 294.839C202.138 297.265 182.727 288.908 175.839 285.942C174.658 285.434 173.846 285.084 173.501 284.974C165.431 282.397 156.826 280.78 149.202 284.184C149.377 281.543 150.397 279.016 151.82 276.783C153.576 276.348 154.883 274.867 156.132 273.451C156.572 272.953 157.004 272.463 157.446 272.03C159.321 270.019 161.213 268.023 163.104 266.028C166.648 262.291 170.192 258.553 173.622 254.71C181.167 246.603 187.254 236.747 193.35 226.878C205.396 207.378 217.473 187.825 240.884 181.612C243.214 201.106 268.184 204.217 283.23 197.545L283.801 197.327L284.364 197.108C293.575 193.502 303.791 188.081 307.01 178.364L307.146 178.077L307.213 177.942ZM148.256 294.839C148.023 292.361 148.448 290.144 150.462 288.711C152.873 290.43 155.457 291.858 158.196 292.984C158.187 293.299 158.341 293.636 158.48 293.884C154.875 294.17 151.121 295.1 148.591 297.725C148.468 296.765 148.348 295.802 148.256 294.839Z" fill="#9E7CC1"/>
<path fill-rule="evenodd" clip-rule="evenodd" d="M131.463 554.829L131.123 555.306C118.702 572.711 104.96 585.812 90.3764 592.522L89.8863 592.745L89.841 592.771C85.6828 595.197 82.2318 599.043 80.8782 602.992C79.2938 607.614 80.6341 611.972 85.1338 615.158L85.2711 615.254L85.2942 615.27C90.9579 618.967 97.6421 621.266 104.208 621.725L104.451 621.741L104.769 621.761L105.041 621.593C106.783 620.52 108.457 619.903 112.036 618.878L113.544 618.447L114.166 618.265L114.476 618.173C115.781 617.782 116.657 617.484 117.574 617.113L117.865 616.993L118.84 616.665C136.352 610.742 153.65 603.955 170.674 596.338L171.675 595.889L173.209 595.197L173.245 594.593C174.024 581.357 173.992 570.792 172.882 560.839L172.846 560.515L170.849 560.703C171.141 564.584 167.253 567.867 163.58 566.629L163.469 566.59L163.417 566.573L163.264 566.525C162.229 566.193 161.369 565.71 159.839 564.671L158.706 563.895L158.418 563.702L158.209 563.564C158.108 563.498 158.01 563.435 157.91 563.372L157.77 563.284C151.481 559.353 144.712 556.703 137.838 555.577C137.27 555.473 136.684 555.385 136.044 555.305L135.336 555.221L134.608 555.144L132.349 554.924L131.463 554.829ZM15.3798 341.382L14.9297 341.863C13.4399 343.456 12.3098 345.017 11.5949 346.627C10.703 348.636 10.5144 350.625 11.1792 352.549L11.2324 352.698L11.2448 352.726C12.3633 355.289 14.9849 357.556 20.0035 360.862L20.766 361.36C21.5702 361.88 23.74 363.279 24.3956 363.713L24.6845 363.905C25.8646 364.693 26.7523 365.33 27.4618 365.91L27.5788 366.007L29.2564 367.172L32.7083 369.571L35.2694 371.354L37.0317 372.582C43.7667 377.279 50.2681 381.837 56.6192 386.318L56.9419 386.536L57.1959 386.711L57.5603 386.965L58.0748 387.329L59.7836 388.551L60.125 388.792L60.462 389.029L60.8027 389.265L61.1476 389.501L61.4867 389.729C64.9601 392.053 67.5196 393.202 70.2458 393.362C72.1862 393.475 74.0152 392.997 75.7164 391.868L75.8377 391.786L75.8907 391.75L76.0736 391.586L76.2264 391.446L76.3762 391.306L76.5236 391.165C77.3048 390.412 78.0149 389.596 79.1302 388.217L80.0692 387.049L80.4444 386.588L80.7211 386.251L80.9189 386.014C81.529 385.287 81.993 384.781 82.5168 384.272L82.6903 384.105L83.8755 382.977L82.3311 382.435C76.1024 380.247 71.0099 373.293 68.9174 365.333L68.8434 365.046L68.8279 365.003C68.4498 363.94 68.3135 362.851 68.2763 361.073L68.2582 359.717L68.2495 359.271L68.2415 358.97L68.2316 358.674C68.1518 356.546 67.9166 355.334 67.243 353.992L67.1575 353.825L67.1292 353.771L67.0946 353.721C67.0526 353.66 67.0478 353.651 67.0652 353.619L67.42 353.019L66.9994 352.481C66.8132 352.243 66.6084 352.009 66.3695 351.757L66.265 351.648L66.0319 351.407L65.7005 351.355C55.2799 349.71 44.5838 347.284 31.839 343.815L30.556 343.464L29.9174 343.293L29.4861 343.178L29.059 343.066C24.8442 341.972 22.2697 341.55 19.3257 341.588L19.0759 341.592C18.8031 341.597 18.5716 341.612 18.1773 341.648L17.7698 341.685L17.5823 341.7L17.4022 341.714C16.7397 341.759 16.3873 341.734 16.0424 341.618L16.0007 341.604L15.3798 341.382Z" fill="white"/>
<path fill-rule="evenodd" clip-rule="evenodd" d="M302.709 174.691C296.188 173.109 295.074 157.498 291.137 159.721C288.861 161.697 292.584 165.427 293.243 167.658L293.532 168.225C294.868 170.823 296.378 173.413 299.011 174.912C300.703 176.691 305.761 174.944 305.017 177.778C302.42 186.318 288.638 192.232 280.515 194.891C267.889 199.628 247.464 198.025 244.498 182.147C251.423 180.881 256.543 168.401 252.275 163.205C252.129 168.252 250.749 173.461 246.782 176.881L246.563 177.082C245.865 177.718 244.961 178.477 244.06 178.336C243.182 177.114 241.476 177.809 240.974 179.099C201.544 185.907 192.76 228.381 167.928 253.382C162.968 258.598 157.783 263.592 152.665 268.649C147.437 272.792 143.738 278.567 143.48 285.348C143.013 289.119 143.244 292.894 143.744 296.671L143.779 297.013C144.01 299.354 144.148 301.868 145.264 303.946C145.456 304.651 145.378 305.541 145.988 306.038C145.722 310.348 145.975 314.735 146.705 319.032L144.803 319.88C123.869 329.192 102.693 337.969 80.8644 344.95C78.9989 344.612 79.1511 346.778 80.0543 347.763C79.8161 348.921 79.7902 350.126 80.0698 351.271C76.0726 351.845 72.0126 351.368 68.0669 350.64C66.8188 347.895 63.5024 348.042 60.9382 347.964C57.7526 347.765 54.5726 347.454 51.41 347.013C43.6176 345.274 35.9655 342.987 28.2481 340.976C23.0838 339.525 17.5147 339.594 12.3341 340.93C11.454 341.915 10.6412 342.967 9.95529 344.084C5.21967 351.417 9.88589 358.138 16.4964 361.99C27.102 369.498 37.7104 376.997 48.3633 384.436L49.1373 384.987C61.8117 394.047 76.0705 405.515 82.8394 383.464C85.1145 383.197 87.1082 381.672 89.2278 380.772C88.6576 383.419 90.3603 386.092 91.5342 388.36C92.0397 389.653 93.4214 390.079 94.6973 390.067C95.7897 391.137 97.8398 390.716 98.5542 389.446C104.348 387.79 109.135 383.922 114.264 380.917C121.556 376.494 129.205 372.723 136.602 368.487C124.314 419.299 127.32 472.228 130.59 523.951L130.613 524.418C131.018 531.97 132.752 535.542 139.023 540.171C137.931 543.499 136.953 546.841 136.208 550.264C135.945 551.059 134.734 550.311 134.724 551.402C132.496 550.881 127.968 551.438 129.548 554.516C125.075 558.265 122.046 563.344 118.125 567.619C111.219 575.885 102.192 582.038 93.3409 588.101C72.9939 598.455 71.8277 616.4 95.6338 622.53L95.8725 622.585C99.1508 623.373 103.099 625.175 106.277 623.658C111.031 622.744 115.749 620.893 120.4 619.484C139.129 613.294 157.447 606.047 175.195 597.717C175.839 597.415 176.203 596.723 176.22 596.031C176.022 590.316 177.576 558.998 171.642 558.324C170.317 551.926 170.109 545.321 170.35 538.79C172.274 538.186 174.221 537.603 176.214 537.225C178.15 536.616 181.177 536.479 182.473 534.913C182.939 534.745 183.281 534.329 183.211 533.672C182.162 523.858 181.368 514.018 180.788 504.166C178.802 471.123 179.476 437.977 181.738 404.971C186.398 408.996 191.709 412.52 197.621 414.395C200.884 417.66 206.117 418.361 210.571 418.756C216.3 419.11 221.927 417.968 227.58 417.257C237.18 416.05 246.712 417.118 256.242 418.302L259.499 418.708C282.83 421.263 308.044 421.792 329.789 411.833C333.884 412.196 338.966 407.777 341.52 404.824C342.648 405.519 343.756 404.161 344.655 403.446C346.138 402.996 347.821 402.35 349.167 401.406C352.582 402.522 354.424 398.094 355.721 395.687C376.308 360.479 353.381 325.432 355.105 288.096C354.061 258.825 367.43 228.329 354.509 200.255C351.895 188.375 336.608 180.164 325.101 177.145C321.393 176.533 307.355 171.465 305.809 175.727C305.078 174.768 303.829 174.696 302.709 174.691ZM131.939 555.888C133.869 556.094 135.75 556.213 137.657 556.562C144.617 557.703 151.256 560.394 157.238 564.133C159.175 565.34 160.904 566.86 163.127 567.532C167.695 569.188 172.184 565.075 171.849 560.628C173.123 571.803 172.904 583.302 172.243 594.534C154.376 602.606 136.108 609.804 117.509 616.057C113.32 617.809 108.361 618.371 104.514 620.741C97.9549 620.328 91.3523 618.028 85.843 614.432C76.7046 608.099 82.7714 598.055 90.3469 593.636C107.023 586.12 121.218 570.911 131.939 555.888ZM168.477 539.361C168.826 542.674 166.306 547.834 166.661 554.437C166.935 556.498 167.579 558.658 167.355 560.728C166.329 568.405 158.004 558.649 154.565 557.58C149.681 554.897 144.375 553.071 138.921 552.072C138.954 550.302 140.128 549.595 140.282 547.846C140.503 545.268 140.492 542.791 140.608 540.189C147.702 543.41 160.953 541.132 168.477 539.361ZM130.258 555.387C130.381 555.469 130.512 555.539 130.646 555.602C129.66 556.794 128.806 558.117 127.637 559.143L128.134 558.371C128.8 557.341 129.482 556.315 130.258 555.387ZM350.567 280.698C350.925 282.149 351.576 283.513 352.551 284.673C347.515 325.448 373.423 359.441 349.603 397.353C349.302 397.493 349.027 397.667 348.763 397.885C348.623 397.792 348.483 397.694 348.345 397.596C337.18 377.865 321.287 360.846 308.624 341.965C306.193 337.226 302.192 332.455 300.66 326.979C326.108 316.944 336.274 302.302 350.567 280.698ZM15.6627 342.547C16.7418 342.932 17.9424 342.614 19.0939 342.593C23.1821 342.506 27.1773 343.572 31.0874 344.648C42.4599 347.754 53.8925 350.505 65.5439 352.344C65.7794 352.587 66.0045 352.836 66.2089 353.097C66.0071 353.439 65.9761 353.866 66.269 354.29C68.0267 357.643 66.6059 361.749 67.8829 365.338C69.733 372.605 74.6543 380.801 81.9985 383.38C79.5488 385.711 77.7939 388.711 75.2707 390.96C69.0698 395.205 62.2406 388.878 57.1782 385.486C47.5399 378.686 37.8763 371.934 28.1862 365.209C23.845 361.616 14.2416 357.087 12.1643 352.326C10.8335 348.676 13.2558 345.121 15.6627 342.547ZM82.0863 351.812C86.235 360.262 88.63 369.245 91.0258 378.318C88.5339 379.002 86.2386 380.075 83.7891 380.796C80.3392 381.571 75.4684 374.913 73.7387 372.269C71.9554 369.314 70.7069 366.066 70.1278 362.663C69.6391 359.331 70.1597 355.87 68.7083 352.783C73.2026 353.242 77.7619 353.338 82.0863 351.812ZM328.729 334.377C324.833 333.287 333.696 342.089 334.206 343.028C339.969 349.823 345.249 357 350.488 364.199L352.076 366.384C352.229 366.605 353.281 368.158 352.52 367.961C352.451 367.942 352.418 368.034 352.474 368.072C357.319 368.928 331.065 334.975 328.729 334.377ZM233.751 330.222C233.436 329.274 234.932 328.869 235.247 329.811L236.24 332.798C239.988 344.084 243.712 355.385 248.192 366.407C248.567 367.332 247.068 367.735 246.696 366.82C241.824 354.826 237.843 342.501 233.751 330.222ZM190.186 326.271C191.552 332.745 195.004 338.583 197.097 344.772C193.167 343.907 190.139 340.249 187.848 337.103L187.779 336.998C186.698 335.337 185.442 332.741 182.988 333.914C179.262 336.075 181.931 343.741 182 347.375C182.473 352.356 184.094 357.015 185.199 361.854C182.359 359.915 181.543 356.093 180.159 353.114L174.831 340.349C170.914 334.989 172.733 351.039 172.935 352.554C173.254 355.881 174.657 359.228 174.107 362.579C171.898 360.205 170.506 357.222 169.337 354.195C167.715 349.986 166.235 345.722 164.692 341.484C164.159 340.127 162.136 340.603 162.429 342.099C162.529 346.908 162.608 351.717 162.684 356.526L162.742 360.133C162.752 360.816 163.091 362.814 161.908 362.262C155.697 355.751 154.105 342.733 154.913 333.986C167.122 334.28 179.579 332.699 190.186 326.271ZM81.5396 350.56C81.5897 350.719 81.6474 350.877 81.7051 351.036C81.67 351.044 81.6324 351.051 81.5973 351.06C81.5747 350.892 81.5546 350.726 81.5396 350.56ZM352.509 350.56C353.863 349.561 331.101 320.371 332.575 328.798C338.926 336.302 346.331 342.878 352.509 350.56ZM151.482 286.059C172.77 281.065 191.517 299.723 212.895 296.904C212.647 303.587 212.303 310.314 212.438 317C184.049 319.339 187.279 331.406 154.598 330.191C150.374 327.366 148.64 310.053 148.997 304.826C148.724 298.646 154.048 295.872 159.352 294.788C161.269 295.944 164.707 292.496 161.861 291.283C158.116 290.157 154.611 288.388 151.482 286.059ZM308.529 176.532C316.103 177.277 323.604 179.339 330.565 182.524C356.295 189.943 360.005 220.025 356.911 242.821C355.629 260.156 350.679 277.111 340.272 291.208C312.566 333.409 266.676 326.726 223.209 321.145C221.643 320.056 218.987 320.829 217.478 319.391C217.635 319.336 217.778 319.261 217.899 319.168C217.174 318.603 216.612 317.611 216.445 316.557L216.132 316.588C215.825 310.043 216.07 303.626 215.971 297.133C230.254 293.221 245.571 291.221 260.046 287.325C261.692 288.471 263.589 287.152 265.196 286.529C269.362 284.759 273.566 283.078 277.8 281.477L278.859 281.079C281.62 280.045 284.378 278.986 287.112 277.881L288.137 277.465C289.703 276.825 293.659 274.457 295.367 275.935L295.229 276.232C294.216 278.44 290.726 286.61 295.017 284.994C298.501 282.551 300.307 265.51 303.758 265.36C304.945 268.532 305.795 271.825 305.99 275.216C306.06 275.979 307.064 276.623 307.667 275.91C311.761 270.526 305.578 264.662 305.413 258.98C305.023 252.372 307.95 246.189 309.408 239.865L309.498 239.429C310.353 235.326 311.683 230.351 311.33 226.671L310.481 229.866C309.629 233.062 308.756 236.259 307.755 239.41C305.27 247.281 300.784 255.39 303.277 263.812C298.276 263.979 297.43 271.864 295.551 275.465C292.512 271.525 271.122 280.971 266.241 282.487L265.3 281.42C250.014 264.107 238.979 252.391 215.286 266.085C219.379 252.898 219.774 238.891 220.473 225.197C220.233 222.591 221.741 215.719 219.615 214.297C219.246 214.351 218.887 214.462 218.548 214.611L218.549 215.96C218.539 218.575 218.416 222.911 217.319 223.896L216.815 229.074C215.496 242.536 214 255.989 209.975 268.963C200.313 274.358 191.496 281.114 183.203 288.402L182.258 288.058C172.01 284.31 159.679 279.507 149.202 284.184C149.377 281.543 150.397 279.016 151.821 276.783C154.194 276.195 155.748 273.694 157.447 272.03C162.832 266.251 168.361 260.605 173.623 254.709C196.074 230.584 205.626 190.969 240.884 181.612C243.215 201.106 268.184 204.217 283.23 197.545L283.801 197.327C293.155 193.721 303.725 188.279 307.01 178.364L307.147 178.077C307.484 177.378 307.887 176.665 308.529 176.532ZM302.98 287.469C302.953 287.439 302.9 287.48 302.923 287.513C307.307 293.008 310.874 300.502 306.517 307.066C305.712 308.544 307.594 309.964 308.799 308.837C314.846 301.978 308.137 292.681 302.98 287.469ZM150.462 288.711C152.873 290.43 155.458 291.858 158.196 292.984C158.187 293.299 158.341 293.636 158.48 293.883C154.875 294.169 151.122 295.1 148.592 297.725C148.469 296.765 148.348 295.802 148.256 294.839C148.023 292.361 148.448 290.144 150.462 288.711ZM316.226 264.421L316.198 264.288C316.178 264.138 315.95 264.128 315.957 264.288C316.04 266.252 317.471 267.65 318.683 269.048C320.481 271.123 322.28 273.198 324.079 275.272C327.087 278.887 331.518 282.521 330.522 287.758C330.503 289.618 332.837 290.017 333.784 288.649C337.549 281.476 325.696 275.373 321.7 270.745C319.824 268.742 316.867 267.268 316.226 264.421ZM259.787 285.956C259.73 286.046 259.69 286.142 259.669 286.242C259.038 286.308 258.409 286.38 257.78 286.457L259.787 285.956ZM354.072 269.18C353.959 269.929 353.854 270.68 353.753 271.432L353.654 272.184L353.638 272.119C353.587 271.924 353.49 271.754 353.363 271.618L353.32 271.575C353.581 270.78 353.832 269.982 354.072 269.18ZM181.015 261.421C179.504 261.26 186.348 266.176 186.727 266.784C187.278 267.263 187.923 266.412 187.334 265.997C185.208 264.498 183.112 262.96 181.015 261.421ZM194.33 246.961C193.279 246.531 192.565 248.28 193.562 248.767C197.193 250.541 201.033 251.796 204.379 254.131C204.525 254.233 204.709 253.994 204.57 253.885L204.168 253.567C201.087 251.123 198.008 248.466 194.33 246.961ZM352.818 224.859C351.803 229.632 346.313 231.2 342.051 232.472L340.72 232.978C336.957 234.417 333.059 236.035 330.351 239.075C329.29 242.503 336.862 236.531 337.919 236.228C343.089 233.026 352.431 232.482 352.818 224.859ZM240.729 180.288C240.7 180.53 240.686 180.778 240.679 181.026C240.36 181.026 240.044 181.029 239.726 181.039C240.097 180.822 240.437 180.574 240.729 180.288Z" fill="black"/>
<path fill-rule="evenodd" clip-rule="evenodd" d="M227.022 106.109C227.616 98.4103 226.695 90.3414 229.661 83.0242C234.833 70.8836 249.335 66.8356 260.578 62.2135C265.082 60.8817 280.238 60.6955 285.512 58.9329C297.448 54.9435 300.3 50.1903 309.784 57.7861C311.385 59.0837 312.387 60.494 313.118 62.4208L313.088 62.4291C313.296 63.2323 313.073 64.0339 312.603 64.6461C316.715 68.8523 318.436 75.1584 316.326 80.7576C309.44 95.3281 309.764 103.206 311.982 118.87C314.88 133.494 308.259 138.836 297.295 146.792C297.742 147.658 297.834 148.81 297.252 149.574C284.574 167.402 260.669 175.914 240.187 166.865C231.873 163.162 228.161 154.302 226.043 146.308C223.575 137.356 222.817 127.924 224.826 118.805C225.636 114.588 226.692 110.401 227.022 106.109Z" fill="#D08B5B"/>
<path fill-rule="evenodd" clip-rule="evenodd" d="M317.829 84.2702L310.29 89.2957L283.306 60.8284L292.286 53.7559C292.286 53.7559 308.577 65.8047 311.781 68.9847C314.984 72.1646 317.829 84.2702 317.829 84.2702Z" fill="#9E7CC1"/>
<path fill-rule="evenodd" clip-rule="evenodd" d="M300.153 20.8175C298.614 20.5863 297.452 21.5417 296.899 22.8884L296.87 22.961C296.692 23.4192 296.495 23.8649 296.282 24.3031C292.431 22.4126 286.936 22.8984 284.499 26.727C282.76 29.4613 283.82 32.7065 284.476 35.6062L284.906 37.5167C284.075 38.0465 283.447 38.9952 283.477 39.9776L283.48 40.0533L283.655 42.7175C283.1 42.1541 282.592 41.5406 282.139 40.8871C281.826 40.3137 281.488 39.7503 281.126 39.2044C278.991 35.9918 274.199 38.7837 275.961 42.2242C276.299 42.8878 276.679 43.5163 277.087 44.1223C277.547 45.0162 277.925 45.9351 278.215 46.8792C277.382 47.2422 276.741 48.0485 276.674 49.2655C276.516 52.1075 278.008 54.4788 280.38 55.9687C281.078 56.4069 281.799 56.492 282.452 56.3293C282.567 56.4845 282.682 56.6397 282.792 56.7975C281.846 57.5662 280.993 58.4426 280.26 59.4142C278.053 59.0836 275.833 58.9284 273.614 58.9234C270.901 57.5938 267.653 57.6213 264.738 58.1196C262.861 58.4401 261.06 59.0636 259.213 59.5118C257.266 59.9826 255.289 60.0001 253.32 60.3206C250.838 60.7238 248.661 61.8706 247.292 63.701C245.788 63.7461 244.207 64.3621 242.895 65.1984C239.843 67.1465 236.807 69.1222 233.762 71.0828C232.593 71.8355 232.156 73.0372 232.371 74.3775L232.386 74.4632L232.488 75.0191L232.247 75.3612C231.315 76.6782 230.301 78.0577 229.698 79.5113C228.582 81.1213 227.574 82.809 226.68 84.5493C225.477 86.8881 224.483 89.367 223.81 91.9111C223.643 92.5546 223.475 93.2031 223.365 93.8592C223.207 94.7857 223.45 95.5043 223.583 96.3932C223.748 97.52 223.808 98.6619 223.983 99.7912C224.101 100.54 224.736 100.908 225.402 100.928C225.152 102.834 224.971 104.752 224.799 106.655C224.556 109.374 224.391 112.101 224.248 114.828C223.513 115.897 222.009 116.743 220.923 117.036C219.419 117.439 217.842 117.001 216.421 116.488C215.528 116.165 214.795 117.289 215.23 118.04C216.599 120.399 219.526 120.389 221.743 119.345C222.682 118.904 223.505 118.266 224.116 117.434C224.078 118.226 224.038 119.017 223.998 119.811L223.961 120.53C223.51 128.926 222.537 137.611 224.113 145.925C226.843 160.325 238.752 171.29 253.3 172.142C260.934 172.589 267.291 170.332 270.452 169.074C273.614 167.815 272.385 165.248 270.19 165.982C266.41 167.246 259.465 169.129 253.25 168.316C238.601 166.399 226.18 159.073 227.456 127.518C227.637 123.043 228.194 118.566 228.314 114.092C228.43 109.717 228.387 105.34 228.58 100.968L228.644 99.4764C228.719 97.7334 228.8 95.9823 228.93 94.2373C229.088 93.5612 229.218 92.8751 229.41 92.2116C229.933 90.4062 230.617 88.6509 231.465 86.9757C231.653 87.1184 231.863 87.2211 232.09 87.2612C233.82 87.5717 235.441 87.484 237.06 86.7629C237.816 86.4298 238.481 85.9866 239.102 85.4382C239.397 85.1803 239.595 84.9299 239.75 84.6695C240.533 84.682 241.316 84.4467 241.807 83.8833C242.366 83.2411 242.459 82.5778 242.24 81.9638L242.217 81.9026L242.272 81.8826C242.933 83.5928 244.249 85.0977 245.693 86.1143C247.975 87.7269 250.83 88.1926 253.568 88.2352C256.59 88.2803 259.778 87.8145 262.761 87.3388C263.549 87.2136 264.333 87.0709 265.101 86.878C265.131 86.9081 265.161 86.9432 265.193 86.9732C267.753 89.4246 271.354 90.0556 274.602 88.6559C276.479 87.8471 278.053 86.545 279.444 85.0526C279.464 85.8339 279.504 86.6151 279.572 87.3889L279.6 87.6961C279.738 89.1372 280.005 90.6658 281.093 91.7058C282.852 93.3909 285.404 92.7149 287.434 91.6181C287.431 91.6707 287.431 91.7258 287.431 91.7809C286.883 93.6439 286.333 95.5093 285.782 97.3748L285.664 97.7722C285.263 99.0968 284.824 100.423 284.704 101.809C284.474 104.459 286.235 107.075 289.178 106.186C290.721 105.722 291.958 104.423 293.145 103.383L293.892 102.736C291.958 109.063 290.617 115.616 290.492 122.219C290.484 122.578 290.792 122.848 291.132 122.861C291.928 122.893 292.784 122.735 293.584 122.417C293.63 122.415 293.675 122.412 293.722 122.405C295.088 122.207 296.357 121.714 297.476 120.985C297.218 121.804 297.103 122.683 297.17 123.602C297.188 123.825 297.536 123.902 297.586 123.657C298.231 120.479 301.947 118.078 305.15 118.686C308.588 119.34 311.121 122.3 311.741 125.668C312.407 129.286 311.133 133.47 308.773 136.262C307.687 137.549 306.259 138.623 304.562 138.894C303.786 139.016 302.981 138.974 302.227 138.753C301.907 138.658 301.607 138.526 301.302 138.4C300.856 138.22 300.336 138.193 299.915 138.002C298.962 137.574 298.004 138.453 298.486 139.432C298.907 140.286 299.285 140.862 299.983 141.302C299.417 141.994 298.904 142.955 298.714 143.213C297.743 144.525 296.757 145.765 295.651 146.964C294.525 148.181 293.297 149.293 291.998 150.322L291.452 150.754C290.201 151.746 289.112 152.666 288.23 154.09C287.534 155.215 288.435 156.74 289.738 156.722C293.817 156.665 296.782 153.079 298.894 149.946C299.195 149.498 299.477 149.025 299.74 148.539C299.835 148.692 299.94 148.835 300.058 148.965L299.825 149.591C299.135 151.434 302.11 152.638 302.973 150.918C303.601 149.671 304.329 148.484 305.14 147.362C305.618 147.295 306.086 147.004 306.346 146.628C307.004 145.674 307.742 144.71 308.366 143.694C308.711 143.366 309.066 143.05 309.429 142.742C309.534 142.835 309.642 142.928 309.744 143.025C310.2 144.064 310.763 145.013 311.461 145.907L311.611 146.098C312.948 147.785 314.69 149.511 316.846 149.924C317.504 150.049 318.137 149.23 317.554 148.707C316.045 147.35 314.261 146.426 312.87 144.911C312.184 144.164 311.555 143.342 311.014 142.481L310.89 142.282C310.8 142.134 310.708 141.986 310.613 141.836C311.241 141.408 311.869 140.977 312.497 140.546C314.226 142.024 316.477 142.701 318.39 143.925L318.58 144.049C320.309 145.206 322.131 142.647 320.744 141.242C319.216 139.7 317.941 137.86 316.587 136.145C317.223 134.972 317.525 133.584 317.638 132.182C317.682 131.785 317.717 131.388 317.752 130.991C318.723 131.006 319.698 130.673 320.524 130.1L320.837 129.877C321.84 130.197 322.894 130.352 323.902 130.325C326.275 130.255 327.245 127.543 325.762 125.828C324.248 124.075 321.598 123.692 319.498 124.543C319.431 124.508 319.361 124.471 319.293 124.433C319.393 123.972 319.371 123.554 319.257 123.187L319.29 122.963C319.752 122.255 320.055 121.445 320.17 120.59C320.261 119.913 320.243 119.241 320.086 118.573C320.034 118.35 319.926 118.119 319.843 117.887C320.014 117.456 320.114 117.01 320.145 116.562C320.193 116.505 320.24 116.447 320.285 116.384C321.327 114.92 321.117 113.157 320.125 111.972C320.121 111.897 320.114 111.822 320.104 111.747C320.162 111.616 320.215 111.484 320.263 111.351C321.232 110.373 321.943 109.196 321.811 107.738C321.733 106.88 321.381 106.108 320.847 105.531C320.942 105.251 320.951 104.927 320.836 104.656C321.687 102.391 321.58 99.6627 320.967 97.1294C321.102 96.7438 321.172 96.3256 321.157 95.8824C321.087 94.0019 319.461 92.2742 317.534 92.2967C317.302 92.2987 317.085 92.329 316.876 92.3733L316.873 92.3285C316.8 91.7641 316.644 91.2425 316.418 90.7745C316.529 90.7342 316.632 90.6764 316.723 90.5995C317.957 91.2585 319.264 91.7623 320.634 92.1056C321.641 92.358 322.672 91.2125 322.046 90.2665C321.756 89.8275 321.435 89.4334 321.09 89.0733C321.581 89.0761 322.079 89.1094 322.584 89.1742C323.489 89.2919 324.5 88.6734 325.088 87.8371C325.819 88.5482 326.552 89.2568 327.285 89.9655C329.142 91.7658 331.947 90.4412 332.24 88.0674C332.793 87.9197 333.308 87.6693 333.761 87.3112C336.689 88.5833 339.839 89.2819 343.06 89.4146C345.372 89.5098 346.723 86.8154 345.642 84.9124C344.917 83.6354 344.016 82.4885 342.977 81.4919C344.589 81.9852 346.253 82.3408 347.952 82.5687C348.87 82.6914 350.169 81.9301 350.537 81.0863C351.943 77.8411 351.823 74.4582 350.204 71.3007C350.141 71.1755 350.071 71.0553 350.004 70.9351C349.836 70.5169 349.653 70.1038 349.456 69.6981C351.448 67.6198 351.62 64.5299 350.547 61.9432C350.977 61.2446 351.142 60.4033 350.85 59.642C350.016 57.451 348.815 55.4278 347.299 53.69C347.444 53.4096 347.572 53.1116 347.679 52.7911C348.532 50.1995 347.544 47.072 345.55 45.2666C344.296 44.1298 342.855 43.4487 341.316 43.013C340.668 41.8661 339.834 40.832 338.864 39.9606C338.826 39.878 338.789 39.7953 338.746 39.7127C337.235 36.8632 334.482 35.3357 331.532 34.9827C331.417 33.8684 330.666 32.8042 329.575 32.4586C329.275 31.4946 328.827 30.5731 328.211 29.7368C327.243 28.4197 325.634 27.7987 324.118 28.6626C323.287 29.1358 322.491 29.6792 321.745 30.2801C321.41 30.123 321.031 30.0213 320.602 29.9888L320.494 29.9822L318.027 29.857C316.993 29.3987 315.963 28.918 314.929 28.4497C314.309 27.9364 313.615 27.5082 312.86 27.1902C312.004 26.8321 311.128 26.6293 310.25 26.5617C309.537 26.3288 308.818 26.1235 308.088 25.9632C306.371 25.5876 304.575 25.3773 302.793 25.3948C302.756 24.9334 302.738 24.4664 302.742 23.9939L302.745 23.7572C302.785 22.2423 301.577 21.0329 300.153 20.8175ZM301.882 142.024C302.127 142.076 302.375 142.119 302.623 142.149C302.548 142.334 302.473 142.519 302.4 142.705C302.2 142.817 301.997 142.925 301.795 143.025C301.855 142.685 301.89 142.342 301.882 142.024ZM314.738 138.201L314.905 138.507C314.931 138.557 314.958 138.607 314.984 138.656C314.631 138.628 314.276 138.636 313.926 138.676L313.927 138.638C313.972 138.623 314.017 138.609 314.06 138.588C314.302 138.472 314.526 138.342 314.738 138.201ZM307.79 124.215C305.576 124.344 303.701 124.684 301.687 125.653L301.514 125.738C299.735 126.622 296.792 128.254 297.04 130.595C297.11 131.261 297.593 131.963 298.354 131.91C300.438 131.767 301.629 129.664 303.041 128.352C304.464 127.03 306.214 125.67 307.938 124.761C308.181 124.633 308.085 124.228 307.82 124.215L307.79 124.215ZM317.829 93.3684C318.36 93.3859 318.182 93.9018 317.909 93.4711C317.887 93.436 317.859 93.401 317.829 93.3684ZM289.194 58.9329C294.218 59.0651 299.274 62.0336 303.038 65.0342C306.312 67.6446 309.14 70.7495 311.643 74.0961C312.287 75.7628 312.84 77.4643 313.308 79.1782C313.615 80.31 313.808 81.4544 314.066 82.5962L314.146 82.9463C314.348 83.3249 314.499 83.7323 314.608 84.1532C314.152 84.6109 313.56 84.9387 312.909 85.0942C312.699 85.1443 312.524 85.2527 312.386 85.3964C311.862 84.5205 311.404 83.596 311.137 82.616L311.127 82.5707C310.119 80.9183 309.024 79.3172 307.85 77.771C304.612 73.5017 301.046 69.6105 296.76 66.3728C293.509 63.9189 289.876 61.9958 286.013 60.7463C286.958 59.9828 288.032 59.3789 289.194 58.9329Z" fill="black"/>
<path fill-rule="evenodd" clip-rule="evenodd" d="M243.727 151.782C245.575 152.317 247.557 152.364 249.44 151.813C251.148 151.312 252.902 150.211 254.159 148.753C255.275 147.459 255.999 145.885 255.97 144.206C255.967 144.014 255.898 143.854 255.793 143.73C255.679 143.596 255.52 143.504 255.35 143.464C255.175 143.423 254.99 143.438 254.832 143.509C254.69 143.574 254.567 143.684 254.491 143.844C254.298 144.098 254.105 144.347 253.912 144.59C252.359 146.505 250.855 147.936 248.519 148.45C247.252 148.728 245.987 148.605 244.825 148.18C243.582 147.725 242.459 146.925 241.578 145.901C241.18 145.438 240.71 145.25 240.251 145.246C239.73 145.243 239.216 145.484 238.828 145.87C238.447 146.25 238.192 146.766 238.169 147.305C238.149 147.779 238.303 148.273 238.715 148.714C240.07 150.168 241.827 151.233 243.727 151.782ZM243.784 127.796C241.891 128.945 239.006 131.625 241.043 134.475C243.44 136.987 246.893 134.107 248.594 132.804C250.171 131.794 251.944 134.391 250.48 135.57C238.187 144.658 233.198 128.097 242.827 126.445C243.887 126.263 244.281 127.44 243.784 127.796ZM261.498 122.739C262.106 122.35 262.822 122.217 263.616 122.577C264.236 122.859 265.323 123.797 266.08 125.031C266.598 125.875 266.965 126.866 266.889 127.897C266.871 128.137 266.96 128.313 267.099 128.444C267.21 128.547 267.369 128.623 267.557 128.647C267.716 128.667 267.894 128.649 268.039 128.603C268.314 128.518 268.46 128.339 268.515 128.194C269.045 126.788 268.816 125.22 268.222 123.805C267.421 121.896 265.965 120.297 265.012 119.781C263.38 118.898 261.455 118.858 259.821 119.757C258.429 120.522 257.56 121.758 256.695 123.017C256.511 123.285 256.328 123.551 256.139 123.812C255.761 124.335 255.724 124.854 255.87 125.299C256.032 125.792 256.446 126.208 256.963 126.426C257.441 126.627 257.996 126.655 258.487 126.449C258.901 126.274 259.282 125.933 259.523 125.356C259.928 124.383 260.604 123.309 261.498 122.739V122.739ZM230.588 124.903C231.005 125.12 231.331 125.185 231.793 125.047C232.049 124.97 232.302 124.823 232.499 124.626C232.695 124.43 232.837 124.187 232.892 123.917C233.027 123.25 233.392 122.626 233.913 122.219C234.358 121.871 234.919 121.687 235.542 121.791C236.214 121.903 236.855 122.334 237.296 122.841C237.443 123.011 237.559 123.204 237.675 123.395C237.892 123.754 238.104 124.087 238.403 124.35C238.517 124.45 238.688 124.519 238.854 124.519C238.921 124.519 238.99 124.508 239.055 124.488C239.724 123.817 239.852 123.309 239.831 122.804C239.808 122.275 239.599 121.739 239.262 121.24C238.47 120.067 236.967 119.106 235.952 118.888C234.563 118.59 233.183 118.948 232.077 119.723C230.939 120.52 230.095 121.758 229.832 123.153C229.769 123.489 229.796 123.852 229.924 124.166C230.049 124.473 230.267 124.737 230.588 124.903ZM258.434 110.239C259.268 111.051 260.254 111.176 261.253 111.288C261.807 111.351 262.25 111.401 262.686 111.499C263.884 111.769 265.068 112.176 266.148 112.762C267.277 113.374 268.507 114.112 269.392 115.058C269.603 115.283 269.801 115.519 270 115.756C270.181 115.971 270.356 116.179 270.54 116.38C270.751 116.61 270.952 116.851 271.151 117.091C271.275 117.294 271.299 117.344 271.324 117.396C271.361 117.474 271.405 117.562 271.454 117.655C271.522 117.784 271.602 117.924 271.685 118.052C271.824 118.285 271.899 118.349 271.963 118.378C272.07 118.425 272.171 118.448 272.27 118.436C272.362 118.424 272.449 118.38 272.534 118.307C272.962 117.946 273.089 117.354 273.076 116.724C273.056 115.77 272.703 114.713 272.378 114.063C271.623 112.553 270.574 110.983 269.314 109.857C267.875 108.57 266.302 107.596 264.494 106.925C263.371 106.508 262.071 106.125 260.847 106.174C259.966 106.209 259.125 106.47 258.431 107.123C258.004 107.524 257.8 108.094 257.8 108.664C257.8 109.245 258.012 109.829 258.434 110.239ZM228.892 117.667C228.945 117.754 229.019 117.814 229.1 117.85C229.186 117.888 229.281 117.898 229.373 117.883C229.464 117.868 229.551 117.826 229.62 117.763C229.686 117.703 229.736 117.622 229.759 117.524C230.312 115.096 231.387 113.29 233.681 112.125C234.81 111.552 236.108 111.188 237.336 110.898C237.693 110.813 238.07 110.759 238.45 110.703C239.641 110.53 240.84 110.331 241.616 109.37C242.084 108.791 242.28 108.051 242.169 107.374C242.065 106.736 241.691 106.152 241.013 105.802C239.325 104.93 237.227 105.785 235.522 106.514C235.396 106.568 235.272 106.621 235.15 106.672C233.483 107.375 231.962 108.302 230.713 109.629C229.721 110.681 228.802 112.237 228.432 113.838C228.124 115.169 228.196 116.529 228.892 117.667Z" fill="black"/>
<path fill-rule="evenodd" clip-rule="evenodd" d="M266.124 153.544C264.094 148.794 259.663 145.304 254.562 144.028C250.815 143.093 246.883 143.123 243.064 143.494C241.064 143.687 238.917 143.845 237.032 144.587C235.421 145.221 234.109 146.419 233.123 147.825C231.948 149.492 231.149 151.4 230.588 153.355C230.509 153.633 230.434 153.913 230.364 154.194C230.608 155.67 231.126 156.925 232.494 157.853C233.829 158.758 235.422 159.129 237.011 159.26C237.166 159.186 237.317 159.109 237.455 159.03C239.93 157.615 241.672 154.272 244.796 154.725C247.583 155.129 249.419 158.631 251.076 160.685C256.398 161.304 261.715 159.708 266.045 156.669C266.265 155.629 266.278 154.58 266.124 153.544M226.747 149.941C227.173 148.748 227.709 147.593 228.344 146.504C230.446 142.905 233.671 140.037 237.5 138.398C246.558 134.525 258.278 137.255 265.593 143.606C268.092 145.778 270.618 148.968 271.382 152.401C271.61 152.446 271.826 152.564 272.003 152.731C277.288 149.409 282.73 146.212 286.989 141.606C290.082 138.26 292.233 134.299 293.55 129.948C293.658 129.589 294.237 129.642 294.219 130.038C294.214 130.131 294.209 130.223 294.204 130.316C294.259 130.146 294.52 130.233 294.54 130.399C295.248 135.685 296.135 141.29 295.318 146.604C294.83 149.775 293.388 152.097 291.459 154.603C289.393 157.29 287.054 159.789 284.663 162.186C283.145 163.707 281.56 165.462 279.702 166.578C277.541 167.874 275.089 168.859 272.783 169.859C270.436 170.879 268.055 171.822 265.628 172.639C260.777 174.278 255.764 175.411 250.662 175.907C246.578 176.303 241.91 176.735 237.996 175.201C234.996 174.025 232.574 171.9 230.653 169.342C228.562 166.558 226.909 163.385 225.995 160.04C225.046 156.565 226.547 150.501 226.747 149.941" fill="black"/>
</svg>
