<svg width="1080" height="380" viewBox="0 0 1080 380" fill="none" xmlns="http://www.w3.org/2000/svg">
<rect width="1080" height="380" rx="15" fill="#181F2C"/>
<mask id="mask0_36_20158" style="mask-type:alpha" maskUnits="userSpaceOnUse" x="0" y="0" width="1080" height="380">
<rect width="1080" height="380" rx="15" fill="#181F2C"/>
</mask>
<g mask="url(#mask0_36_20158)">
<path d="M941.678 416.094C962.454 405.667 971.255 381.191 961.335 361.426C951.415 341.661 926.532 334.091 905.756 344.518C884.98 354.945 876.179 379.421 886.099 399.186C896.019 418.951 920.902 426.521 941.678 416.094Z" fill="#334155"/>
<path d="M959.516 453.593C1071 397.644 1144.89 319.46 1124.57 278.966C1104.25 238.472 997.4 251.001 885.919 306.951C774.439 362.901 700.541 441.084 720.864 481.578C741.188 522.072 848.036 509.543 959.516 453.593Z" stroke="#334155" stroke-width="20"/>
<path d="M874.371 450.431C976.208 514.303 1080.41 534.671 1107.11 495.923C1133.81 457.175 1072.9 373.985 971.064 310.113C869.227 246.24 765.027 225.872 738.326 264.62C711.625 303.368 772.534 386.558 874.371 450.431Z" stroke="#334155" stroke-width="20"/>
<path d="M837.572 377.109C827.928 496.932 858.231 595.483 905.256 597.23C952.28 598.976 998.218 503.257 1007.86 383.434C1017.51 263.611 987.204 165.06 940.179 163.314C893.155 161.567 847.216 257.287 837.572 377.109Z" stroke="#334155" stroke-width="20"/>
<path d="M225.501 215.743C239.859 215.743 251.498 204.217 251.498 190C251.498 175.782 239.859 164.256 225.501 164.256C211.143 164.256 199.503 175.782 199.503 190C199.503 204.217 211.143 215.743 225.501 215.743Z" fill="#61DAFB"/>
<path d="M225.5 242.742C302.544 242.742 365 219.129 365 190C365 160.871 302.544 137.257 225.5 137.257C148.456 137.257 86 160.871 86 190C86 219.129 148.456 242.742 225.5 242.742Z" stroke="#61DAFB" stroke-width="10"/>
<path d="M179.373 216.371C217.894 282.44 269.775 324.193 295.25 309.628C320.726 295.064 310.15 229.698 271.628 163.629C233.106 97.5595 181.226 55.8068 155.75 70.3713C130.275 84.9357 140.851 150.302 179.373 216.371Z" stroke="#61DAFB" stroke-width="10"/>
<path d="M179.372 163.629C140.851 229.698 130.274 295.064 155.75 309.629C181.226 324.193 233.106 282.44 271.628 216.371C310.15 150.302 320.726 84.9359 295.25 70.3714C269.775 55.8069 217.894 97.5597 179.372 163.629Z" stroke="#61DAFB" stroke-width="10"/>
<path d="M510.922 97.75H533.516C538.641 97.75 542.969 98.5312 546.5 100.094C550.062 101.656 552.766 103.969 554.609 107.031C556.484 110.062 557.422 113.797 557.422 118.234C557.422 121.359 556.781 124.219 555.5 126.812C554.25 129.375 552.438 131.562 550.062 133.375C547.719 135.156 544.906 136.484 541.625 137.359L539.094 138.344H517.859L517.766 130.984H533.797C537.047 130.984 539.75 130.422 541.906 129.297C544.062 128.141 545.688 126.594 546.781 124.656C547.875 122.719 548.422 120.578 548.422 118.234C548.422 115.609 547.906 113.312 546.875 111.344C545.844 109.375 544.219 107.859 542 106.797C539.812 105.703 536.984 105.156 533.516 105.156H519.969V166H510.922V97.75ZM550.812 166L534.219 135.062L543.641 135.016L560.469 165.438V166H550.812ZM589.812 166.938C586.281 166.938 583.078 166.344 580.203 165.156C577.359 163.938 574.906 162.234 572.844 160.047C570.812 157.859 569.25 155.266 568.156 152.266C567.062 149.266 566.516 145.984 566.516 142.422V140.453C566.516 136.328 567.125 132.656 568.344 129.438C569.562 126.188 571.219 123.438 573.312 121.188C575.406 118.938 577.781 117.234 580.438 116.078C583.094 114.922 585.844 114.344 588.688 114.344C592.312 114.344 595.438 114.969 598.062 116.219C600.719 117.469 602.891 119.219 604.578 121.469C606.266 123.688 607.516 126.312 608.328 129.344C609.141 132.344 609.547 135.625 609.547 139.188V143.078H571.672V136H600.875V135.344C600.75 133.094 600.281 130.906 599.469 128.781C598.688 126.656 597.438 124.906 595.719 123.531C594 122.156 591.656 121.469 588.688 121.469C586.719 121.469 584.906 121.891 583.25 122.734C581.594 123.547 580.172 124.766 578.984 126.391C577.797 128.016 576.875 130 576.219 132.344C575.562 134.688 575.234 137.391 575.234 140.453V142.422C575.234 144.828 575.562 147.094 576.219 149.219C576.906 151.312 577.891 153.156 579.172 154.75C580.484 156.344 582.062 157.594 583.906 158.5C585.781 159.406 587.906 159.859 590.281 159.859C593.344 159.859 595.938 159.234 598.062 157.984C600.188 156.734 602.047 155.062 603.641 152.969L608.891 157.141C607.797 158.797 606.406 160.375 604.719 161.875C603.031 163.375 600.953 164.594 598.484 165.531C596.047 166.469 593.156 166.938 589.812 166.938ZM649.578 157.328V131.219C649.578 129.219 649.172 127.484 648.359 126.016C647.578 124.516 646.391 123.359 644.797 122.547C643.203 121.734 641.234 121.328 638.891 121.328C636.703 121.328 634.781 121.703 633.125 122.453C631.5 123.203 630.219 124.188 629.281 125.406C628.375 126.625 627.922 127.938 627.922 129.344H619.25C619.25 127.531 619.719 125.734 620.656 123.953C621.594 122.172 622.938 120.562 624.688 119.125C626.469 117.656 628.594 116.5 631.062 115.656C633.562 114.781 636.344 114.344 639.406 114.344C643.094 114.344 646.344 114.969 649.156 116.219C652 117.469 654.219 119.359 655.812 121.891C657.438 124.391 658.25 127.531 658.25 131.312V154.938C658.25 156.625 658.391 158.422 658.672 160.328C658.984 162.234 659.438 163.875 660.031 165.25V166H650.984C650.547 165 650.203 163.672 649.953 162.016C649.703 160.328 649.578 158.766 649.578 157.328ZM651.078 135.25L651.172 141.344H642.406C639.938 141.344 637.734 141.547 635.797 141.953C633.859 142.328 632.234 142.906 630.922 143.688C629.609 144.469 628.609 145.453 627.922 146.641C627.234 147.797 626.891 149.156 626.891 150.719C626.891 152.312 627.25 153.766 627.969 155.078C628.688 156.391 629.766 157.438 631.203 158.219C632.672 158.969 634.469 159.344 636.594 159.344C639.25 159.344 641.594 158.781 643.625 157.656C645.656 156.531 647.266 155.156 648.453 153.531C649.672 151.906 650.328 150.328 650.422 148.797L654.125 152.969C653.906 154.281 653.312 155.734 652.344 157.328C651.375 158.922 650.078 160.453 648.453 161.922C646.859 163.359 644.953 164.562 642.734 165.531C640.547 166.469 638.078 166.938 635.328 166.938C631.891 166.938 628.875 166.266 626.281 164.922C623.719 163.578 621.719 161.781 620.281 159.531C618.875 157.25 618.172 154.703 618.172 151.891C618.172 149.172 618.703 146.781 619.766 144.719C620.828 142.625 622.359 140.891 624.359 139.516C626.359 138.109 628.766 137.047 631.578 136.328C634.391 135.609 637.531 135.25 641 135.25H651.078ZM692.188 159.812C694.25 159.812 696.156 159.391 697.906 158.547C699.656 157.703 701.094 156.547 702.219 155.078C703.344 153.578 703.984 151.875 704.141 149.969H712.391C712.234 152.969 711.219 155.766 709.344 158.359C707.5 160.922 705.078 163 702.078 164.594C699.078 166.156 695.781 166.938 692.188 166.938C688.375 166.938 685.047 166.266 682.203 164.922C679.391 163.578 677.047 161.734 675.172 159.391C673.328 157.047 671.938 154.359 671 151.328C670.094 148.266 669.641 145.031 669.641 141.625V139.656C669.641 136.25 670.094 133.031 671 130C671.938 126.938 673.328 124.234 675.172 121.891C677.047 119.547 679.391 117.703 682.203 116.359C685.047 115.016 688.375 114.344 692.188 114.344C696.156 114.344 699.625 115.156 702.594 116.781C705.562 118.375 707.891 120.562 709.578 123.344C711.297 126.094 712.234 129.219 712.391 132.719H704.141C703.984 130.625 703.391 128.734 702.359 127.047C701.359 125.359 699.984 124.016 698.234 123.016C696.516 121.984 694.5 121.469 692.188 121.469C689.531 121.469 687.297 122 685.484 123.062C683.703 124.094 682.281 125.5 681.219 127.281C680.188 129.031 679.438 130.984 678.969 133.141C678.531 135.266 678.312 137.438 678.312 139.656V141.625C678.312 143.844 678.531 146.031 678.969 148.188C679.406 150.344 680.141 152.297 681.172 154.047C682.234 155.797 683.656 157.203 685.438 158.266C687.25 159.297 689.5 159.812 692.188 159.812ZM743.375 115.281V121.938H715.953V115.281H743.375ZM725.234 102.953H733.906V153.438C733.906 155.156 734.172 156.453 734.703 157.328C735.234 158.203 735.922 158.781 736.766 159.062C737.609 159.344 738.516 159.484 739.484 159.484C740.203 159.484 740.953 159.422 741.734 159.297C742.547 159.141 743.156 159.016 743.562 158.922L743.609 166C742.922 166.219 742.016 166.422 740.891 166.609C739.797 166.828 738.469 166.938 736.906 166.938C734.781 166.938 732.828 166.516 731.047 165.672C729.266 164.828 727.844 163.422 726.781 161.453C725.75 159.453 725.234 156.766 725.234 153.391V102.953Z" fill="#61DAFB"/>
<path d="M515.297 196.449L509.648 212H507.34L513.844 194.938H515.332L515.297 196.449ZM520.031 212L514.371 196.449L514.336 194.938H515.824L522.352 212H520.031ZM519.738 205.684V207.535H510.152V205.684H519.738ZM537.75 207.02V194.938H540V207.02C540 208.145 539.77 209.094 539.309 209.867C538.848 210.641 538.211 211.23 537.398 211.637C536.594 212.035 535.668 212.234 534.621 212.234C533.574 212.234 532.645 212.055 531.832 211.695C531.02 211.336 530.383 210.789 529.922 210.055C529.461 209.32 529.23 208.395 529.23 207.277H531.492C531.492 207.996 531.625 208.586 531.891 209.047C532.156 209.508 532.523 209.848 532.992 210.066C533.469 210.285 534.012 210.395 534.621 210.395C535.215 210.395 535.746 210.27 536.215 210.02C536.691 209.762 537.066 209.383 537.34 208.883C537.613 208.375 537.75 207.754 537.75 207.02ZM550.98 209.832V203.305C550.98 202.805 550.879 202.371 550.676 202.004C550.48 201.629 550.184 201.34 549.785 201.137C549.387 200.934 548.895 200.832 548.309 200.832C547.762 200.832 547.281 200.926 546.867 201.113C546.461 201.301 546.141 201.547 545.906 201.852C545.68 202.156 545.566 202.484 545.566 202.836H543.398C543.398 202.383 543.516 201.934 543.75 201.488C543.984 201.043 544.32 200.641 544.758 200.281C545.203 199.914 545.734 199.625 546.352 199.414C546.977 199.195 547.672 199.086 548.438 199.086C549.359 199.086 550.172 199.242 550.875 199.555C551.586 199.867 552.141 200.34 552.539 200.973C552.945 201.598 553.148 202.383 553.148 203.328V209.234C553.148 209.656 553.184 210.105 553.254 210.582C553.332 211.059 553.445 211.469 553.594 211.812V212H551.332C551.223 211.75 551.137 211.418 551.074 211.004C551.012 210.582 550.98 210.191 550.98 209.832ZM551.355 204.312L551.379 205.836H549.188C548.57 205.836 548.02 205.887 547.535 205.988C547.051 206.082 546.645 206.227 546.316 206.422C545.988 206.617 545.738 206.863 545.566 207.16C545.395 207.449 545.309 207.789 545.309 208.18C545.309 208.578 545.398 208.941 545.578 209.27C545.758 209.598 546.027 209.859 546.387 210.055C546.754 210.242 547.203 210.336 547.734 210.336C548.398 210.336 548.984 210.195 549.492 209.914C550 209.633 550.402 209.289 550.699 208.883C551.004 208.477 551.168 208.082 551.191 207.699L552.117 208.742C552.062 209.07 551.914 209.434 551.672 209.832C551.43 210.23 551.105 210.613 550.699 210.98C550.301 211.34 549.824 211.641 549.27 211.883C548.723 212.117 548.105 212.234 547.418 212.234C546.559 212.234 545.805 212.066 545.156 211.73C544.516 211.395 544.016 210.945 543.656 210.383C543.305 209.812 543.129 209.176 543.129 208.473C543.129 207.793 543.262 207.195 543.527 206.68C543.793 206.156 544.176 205.723 544.676 205.379C545.176 205.027 545.777 204.762 546.48 204.582C547.184 204.402 547.969 204.312 548.836 204.312H551.355ZM560.227 210.043L563.695 199.32H565.91L561.352 212H559.898L560.227 210.043ZM557.332 199.32L560.906 210.102L561.152 212H559.699L555.105 199.32H557.332ZM575.285 209.832V203.305C575.285 202.805 575.184 202.371 574.98 202.004C574.785 201.629 574.488 201.34 574.09 201.137C573.691 200.934 573.199 200.832 572.613 200.832C572.066 200.832 571.586 200.926 571.172 201.113C570.766 201.301 570.445 201.547 570.211 201.852C569.984 202.156 569.871 202.484 569.871 202.836H567.703C567.703 202.383 567.82 201.934 568.055 201.488C568.289 201.043 568.625 200.641 569.062 200.281C569.508 199.914 570.039 199.625 570.656 199.414C571.281 199.195 571.977 199.086 572.742 199.086C573.664 199.086 574.477 199.242 575.18 199.555C575.891 199.867 576.445 200.34 576.844 200.973C577.25 201.598 577.453 202.383 577.453 203.328V209.234C577.453 209.656 577.488 210.105 577.559 210.582C577.637 211.059 577.75 211.469 577.898 211.812V212H575.637C575.527 211.75 575.441 211.418 575.379 211.004C575.316 210.582 575.285 210.191 575.285 209.832ZM575.66 204.312L575.684 205.836H573.492C572.875 205.836 572.324 205.887 571.84 205.988C571.355 206.082 570.949 206.227 570.621 206.422C570.293 206.617 570.043 206.863 569.871 207.16C569.699 207.449 569.613 207.789 569.613 208.18C569.613 208.578 569.703 208.941 569.883 209.27C570.062 209.598 570.332 209.859 570.691 210.055C571.059 210.242 571.508 210.336 572.039 210.336C572.703 210.336 573.289 210.195 573.797 209.914C574.305 209.633 574.707 209.289 575.004 208.883C575.309 208.477 575.473 208.082 575.496 207.699L576.422 208.742C576.367 209.07 576.219 209.434 575.977 209.832C575.734 210.23 575.41 210.613 575.004 210.98C574.605 211.34 574.129 211.641 573.574 211.883C573.027 212.117 572.41 212.234 571.723 212.234C570.863 212.234 570.109 212.066 569.461 211.73C568.82 211.395 568.32 210.945 567.961 210.383C567.609 209.812 567.434 209.176 567.434 208.473C567.434 207.793 567.566 207.195 567.832 206.68C568.098 206.156 568.48 205.723 568.98 205.379C569.48 205.027 570.082 204.762 570.785 204.582C571.488 204.402 572.273 204.312 573.141 204.312H575.66ZM590.285 207.688C590.285 207.289 590.223 206.938 590.098 206.633C589.98 206.32 589.77 206.039 589.465 205.789C589.168 205.539 588.754 205.301 588.223 205.074C587.699 204.848 587.035 204.617 586.23 204.383C585.387 204.133 584.625 203.855 583.945 203.551C583.266 203.238 582.684 202.883 582.199 202.484C581.715 202.086 581.344 201.629 581.086 201.113C580.828 200.598 580.699 200.008 580.699 199.344C580.699 198.68 580.836 198.066 581.109 197.504C581.383 196.941 581.773 196.453 582.281 196.039C582.797 195.617 583.41 195.289 584.121 195.055C584.832 194.82 585.625 194.703 586.5 194.703C587.781 194.703 588.867 194.949 589.758 195.441C590.656 195.926 591.34 196.562 591.809 197.352C592.277 198.133 592.512 198.969 592.512 199.859H590.262C590.262 199.219 590.125 198.652 589.852 198.16C589.578 197.66 589.164 197.27 588.609 196.988C588.055 196.699 587.352 196.555 586.5 196.555C585.695 196.555 585.031 196.676 584.508 196.918C583.984 197.16 583.594 197.488 583.336 197.902C583.086 198.316 582.961 198.789 582.961 199.32C582.961 199.68 583.035 200.008 583.184 200.305C583.34 200.594 583.578 200.863 583.898 201.113C584.227 201.363 584.641 201.594 585.141 201.805C585.648 202.016 586.254 202.219 586.957 202.414C587.926 202.688 588.762 202.992 589.465 203.328C590.168 203.664 590.746 204.043 591.199 204.465C591.66 204.879 592 205.352 592.219 205.883C592.445 206.406 592.559 207 592.559 207.664C592.559 208.359 592.418 208.988 592.137 209.551C591.855 210.113 591.453 210.594 590.93 210.992C590.406 211.391 589.777 211.699 589.043 211.918C588.316 212.129 587.504 212.234 586.605 212.234C585.816 212.234 585.039 212.125 584.273 211.906C583.516 211.688 582.824 211.359 582.199 210.922C581.582 210.484 581.086 209.945 580.711 209.305C580.344 208.656 580.16 207.906 580.16 207.055H582.41C582.41 207.641 582.523 208.145 582.75 208.566C582.977 208.98 583.285 209.324 583.676 209.598C584.074 209.871 584.523 210.074 585.023 210.207C585.531 210.332 586.059 210.395 586.605 210.395C587.395 210.395 588.062 210.285 588.609 210.066C589.156 209.848 589.57 209.535 589.852 209.129C590.141 208.723 590.285 208.242 590.285 207.688ZM600.188 210.453C600.703 210.453 601.18 210.348 601.617 210.137C602.055 209.926 602.414 209.637 602.695 209.27C602.977 208.895 603.137 208.469 603.176 207.992H605.238C605.199 208.742 604.945 209.441 604.477 210.09C604.016 210.73 603.41 211.25 602.66 211.648C601.91 212.039 601.086 212.234 600.188 212.234C599.234 212.234 598.402 212.066 597.691 211.73C596.988 211.395 596.402 210.934 595.934 210.348C595.473 209.762 595.125 209.09 594.891 208.332C594.664 207.566 594.551 206.758 594.551 205.906V205.414C594.551 204.562 594.664 203.758 594.891 203C595.125 202.234 595.473 201.559 595.934 200.973C596.402 200.387 596.988 199.926 597.691 199.59C598.402 199.254 599.234 199.086 600.188 199.086C601.18 199.086 602.047 199.289 602.789 199.695C603.531 200.094 604.113 200.641 604.535 201.336C604.965 202.023 605.199 202.805 605.238 203.68H603.176C603.137 203.156 602.988 202.684 602.73 202.262C602.48 201.84 602.137 201.504 601.699 201.254C601.27 200.996 600.766 200.867 600.188 200.867C599.523 200.867 598.965 201 598.512 201.266C598.066 201.523 597.711 201.875 597.445 202.32C597.188 202.758 597 203.246 596.883 203.785C596.773 204.316 596.719 204.859 596.719 205.414V205.906C596.719 206.461 596.773 207.008 596.883 207.547C596.992 208.086 597.176 208.574 597.434 209.012C597.699 209.449 598.055 209.801 598.5 210.066C598.953 210.324 599.516 210.453 600.188 210.453ZM609.844 201.312V212H607.676V199.32H609.785L609.844 201.312ZM613.805 199.25L613.793 201.266C613.613 201.227 613.441 201.203 613.277 201.195C613.121 201.18 612.941 201.172 612.738 201.172C612.238 201.172 611.797 201.25 611.414 201.406C611.031 201.562 610.707 201.781 610.441 202.062C610.176 202.344 609.965 202.68 609.809 203.07C609.66 203.453 609.562 203.875 609.516 204.336L608.906 204.688C608.906 203.922 608.98 203.203 609.129 202.531C609.285 201.859 609.523 201.266 609.844 200.75C610.164 200.227 610.57 199.82 611.062 199.531C611.562 199.234 612.156 199.086 612.844 199.086C613 199.086 613.18 199.105 613.383 199.145C613.586 199.176 613.727 199.211 613.805 199.25ZM618.164 199.32V212H615.984V199.32H618.164ZM615.82 195.957C615.82 195.605 615.926 195.309 616.137 195.066C616.355 194.824 616.676 194.703 617.098 194.703C617.512 194.703 617.828 194.824 618.047 195.066C618.273 195.309 618.387 195.605 618.387 195.957C618.387 196.293 618.273 196.582 618.047 196.824C617.828 197.059 617.512 197.176 617.098 197.176C616.676 197.176 616.355 197.059 616.137 196.824C615.926 196.582 615.82 196.293 615.82 195.957ZM623.812 201.758V216.875H621.633V199.32H623.625L623.812 201.758ZM632.355 205.555V205.801C632.355 206.723 632.246 207.578 632.027 208.367C631.809 209.148 631.488 209.828 631.066 210.406C630.652 210.984 630.141 211.434 629.531 211.754C628.922 212.074 628.223 212.234 627.434 212.234C626.629 212.234 625.918 212.102 625.301 211.836C624.684 211.57 624.16 211.184 623.73 210.676C623.301 210.168 622.957 209.559 622.699 208.848C622.449 208.137 622.277 207.336 622.184 206.445V205.133C622.277 204.195 622.453 203.355 622.711 202.613C622.969 201.871 623.309 201.238 623.73 200.715C624.16 200.184 624.68 199.781 625.289 199.508C625.898 199.227 626.602 199.086 627.398 199.086C628.195 199.086 628.902 199.242 629.52 199.555C630.137 199.859 630.656 200.297 631.078 200.867C631.5 201.438 631.816 202.121 632.027 202.918C632.246 203.707 632.355 204.586 632.355 205.555ZM630.176 205.801V205.555C630.176 204.922 630.109 204.328 629.977 203.773C629.844 203.211 629.637 202.719 629.355 202.297C629.082 201.867 628.73 201.531 628.301 201.289C627.871 201.039 627.359 200.914 626.766 200.914C626.219 200.914 625.742 201.008 625.336 201.195C624.938 201.383 624.598 201.637 624.316 201.957C624.035 202.27 623.805 202.629 623.625 203.035C623.453 203.434 623.324 203.848 623.238 204.277V207.312C623.395 207.859 623.613 208.375 623.895 208.859C624.176 209.336 624.551 209.723 625.02 210.02C625.488 210.309 626.078 210.453 626.789 210.453C627.375 210.453 627.879 210.332 628.301 210.09C628.73 209.84 629.082 209.5 629.355 209.07C629.637 208.641 629.844 208.148 629.977 207.594C630.109 207.031 630.176 206.434 630.176 205.801ZM640.43 199.32V200.984H633.574V199.32H640.43ZM635.895 196.238H638.062V208.859C638.062 209.289 638.129 209.613 638.262 209.832C638.395 210.051 638.566 210.195 638.777 210.266C638.988 210.336 639.215 210.371 639.457 210.371C639.637 210.371 639.824 210.355 640.02 210.324C640.223 210.285 640.375 210.254 640.477 210.23L640.488 212C640.316 212.055 640.09 212.105 639.809 212.152C639.535 212.207 639.203 212.234 638.812 212.234C638.281 212.234 637.793 212.129 637.348 211.918C636.902 211.707 636.547 211.355 636.281 210.863C636.023 210.363 635.895 209.691 635.895 208.848V196.238ZM651.281 194V212H649.102V194H651.281ZM657.117 199.32V212H654.938V199.32H657.117ZM654.773 195.957C654.773 195.605 654.879 195.309 655.09 195.066C655.309 194.824 655.629 194.703 656.051 194.703C656.465 194.703 656.781 194.824 657 195.066C657.227 195.309 657.34 195.605 657.34 195.957C657.34 196.293 657.227 196.582 657 196.824C656.781 197.059 656.465 197.176 656.051 197.176C655.629 197.176 655.309 197.059 655.09 196.824C654.879 196.582 654.773 196.293 654.773 195.957ZM660.586 194H662.766V209.539L662.578 212H660.586V194ZM671.332 205.555V205.801C671.332 206.723 671.223 207.578 671.004 208.367C670.785 209.148 670.465 209.828 670.043 210.406C669.621 210.984 669.105 211.434 668.496 211.754C667.887 212.074 667.188 212.234 666.398 212.234C665.594 212.234 664.887 212.098 664.277 211.824C663.676 211.543 663.168 211.141 662.754 210.617C662.34 210.094 662.008 209.461 661.758 208.719C661.516 207.977 661.348 207.141 661.254 206.211V205.133C661.348 204.195 661.516 203.355 661.758 202.613C662.008 201.871 662.34 201.238 662.754 200.715C663.168 200.184 663.676 199.781 664.277 199.508C664.879 199.227 665.578 199.086 666.375 199.086C667.172 199.086 667.879 199.242 668.496 199.555C669.113 199.859 669.629 200.297 670.043 200.867C670.465 201.438 670.785 202.121 671.004 202.918C671.223 203.707 671.332 204.586 671.332 205.555ZM669.152 205.801V205.555C669.152 204.922 669.094 204.328 668.977 203.773C668.859 203.211 668.672 202.719 668.414 202.297C668.156 201.867 667.816 201.531 667.395 201.289C666.973 201.039 666.453 200.914 665.836 200.914C665.289 200.914 664.812 201.008 664.406 201.195C664.008 201.383 663.668 201.637 663.387 201.957C663.105 202.27 662.875 202.629 662.695 203.035C662.523 203.434 662.395 203.848 662.309 204.277V207.102C662.434 207.648 662.637 208.176 662.918 208.684C663.207 209.184 663.59 209.594 664.066 209.914C664.551 210.234 665.148 210.395 665.859 210.395C666.445 210.395 666.945 210.277 667.359 210.043C667.781 209.801 668.121 209.469 668.379 209.047C668.645 208.625 668.84 208.137 668.965 207.582C669.09 207.027 669.152 206.434 669.152 205.801ZM676.242 201.312V212H674.074V199.32H676.184L676.242 201.312ZM680.203 199.25L680.191 201.266C680.012 201.227 679.84 201.203 679.676 201.195C679.52 201.18 679.34 201.172 679.137 201.172C678.637 201.172 678.195 201.25 677.812 201.406C677.43 201.562 677.105 201.781 676.84 202.062C676.574 202.344 676.363 202.68 676.207 203.07C676.059 203.453 675.961 203.875 675.914 204.336L675.305 204.688C675.305 203.922 675.379 203.203 675.527 202.531C675.684 201.859 675.922 201.266 676.242 200.75C676.562 200.227 676.969 199.82 677.461 199.531C677.961 199.234 678.555 199.086 679.242 199.086C679.398 199.086 679.578 199.105 679.781 199.145C679.984 199.176 680.125 199.211 680.203 199.25ZM689.215 209.832V203.305C689.215 202.805 689.113 202.371 688.91 202.004C688.715 201.629 688.418 201.34 688.02 201.137C687.621 200.934 687.129 200.832 686.543 200.832C685.996 200.832 685.516 200.926 685.102 201.113C684.695 201.301 684.375 201.547 684.141 201.852C683.914 202.156 683.801 202.484 683.801 202.836H681.633C681.633 202.383 681.75 201.934 681.984 201.488C682.219 201.043 682.555 200.641 682.992 200.281C683.438 199.914 683.969 199.625 684.586 199.414C685.211 199.195 685.906 199.086 686.672 199.086C687.594 199.086 688.406 199.242 689.109 199.555C689.82 199.867 690.375 200.34 690.773 200.973C691.18 201.598 691.383 202.383 691.383 203.328V209.234C691.383 209.656 691.418 210.105 691.488 210.582C691.566 211.059 691.68 211.469 691.828 211.812V212H689.566C689.457 211.75 689.371 211.418 689.309 211.004C689.246 210.582 689.215 210.191 689.215 209.832ZM689.59 204.312L689.613 205.836H687.422C686.805 205.836 686.254 205.887 685.77 205.988C685.285 206.082 684.879 206.227 684.551 206.422C684.223 206.617 683.973 206.863 683.801 207.16C683.629 207.449 683.543 207.789 683.543 208.18C683.543 208.578 683.633 208.941 683.812 209.27C683.992 209.598 684.262 209.859 684.621 210.055C684.988 210.242 685.438 210.336 685.969 210.336C686.633 210.336 687.219 210.195 687.727 209.914C688.234 209.633 688.637 209.289 688.934 208.883C689.238 208.477 689.402 208.082 689.426 207.699L690.352 208.742C690.297 209.07 690.148 209.434 689.906 209.832C689.664 210.23 689.34 210.613 688.934 210.98C688.535 211.34 688.059 211.641 687.504 211.883C686.957 212.117 686.34 212.234 685.652 212.234C684.793 212.234 684.039 212.066 683.391 211.73C682.75 211.395 682.25 210.945 681.891 210.383C681.539 209.812 681.363 209.176 681.363 208.473C681.363 207.793 681.496 207.195 681.762 206.68C682.027 206.156 682.41 205.723 682.91 205.379C683.41 205.027 684.012 204.762 684.715 204.582C685.418 204.402 686.203 204.312 687.07 204.312H689.59ZM696.961 201.312V212H694.793V199.32H696.902L696.961 201.312ZM700.922 199.25L700.91 201.266C700.73 201.227 700.559 201.203 700.395 201.195C700.238 201.18 700.059 201.172 699.855 201.172C699.355 201.172 698.914 201.25 698.531 201.406C698.148 201.562 697.824 201.781 697.559 202.062C697.293 202.344 697.082 202.68 696.926 203.07C696.777 203.453 696.68 203.875 696.633 204.336L696.023 204.688C696.023 203.922 696.098 203.203 696.246 202.531C696.402 201.859 696.641 201.266 696.961 200.75C697.281 200.227 697.688 199.82 698.18 199.531C698.68 199.234 699.273 199.086 699.961 199.086C700.117 199.086 700.297 199.105 700.5 199.145C700.703 199.176 700.844 199.211 700.922 199.25ZM706.699 210.688L710.227 199.32H712.547L707.461 213.957C707.344 214.27 707.188 214.605 706.992 214.965C706.805 215.332 706.562 215.68 706.266 216.008C705.969 216.336 705.609 216.602 705.188 216.805C704.773 217.016 704.277 217.121 703.699 217.121C703.527 217.121 703.309 217.098 703.043 217.051C702.777 217.004 702.59 216.965 702.48 216.934L702.469 215.176C702.531 215.184 702.629 215.191 702.762 215.199C702.902 215.215 703 215.223 703.055 215.223C703.547 215.223 703.965 215.156 704.309 215.023C704.652 214.898 704.941 214.684 705.176 214.379C705.418 214.082 705.625 213.672 705.797 213.148L706.699 210.688ZM704.109 199.32L707.402 209.164L707.965 211.449L706.406 212.246L701.742 199.32H704.109ZM723.691 212H721.523V197.984C721.523 197.07 721.688 196.301 722.016 195.676C722.352 195.043 722.832 194.566 723.457 194.246C724.082 193.918 724.824 193.754 725.684 193.754C725.934 193.754 726.184 193.77 726.434 193.801C726.691 193.832 726.941 193.879 727.184 193.941L727.066 195.711C726.902 195.672 726.715 195.645 726.504 195.629C726.301 195.613 726.098 195.605 725.895 195.605C725.434 195.605 725.035 195.699 724.699 195.887C724.371 196.066 724.121 196.332 723.949 196.684C723.777 197.035 723.691 197.469 723.691 197.984V212ZM726.387 199.32V200.984H719.52V199.32H726.387ZM728.227 205.801V205.531C728.227 204.617 728.359 203.77 728.625 202.988C728.891 202.199 729.273 201.516 729.773 200.938C730.273 200.352 730.879 199.898 731.59 199.578C732.301 199.25 733.098 199.086 733.98 199.086C734.871 199.086 735.672 199.25 736.383 199.578C737.102 199.898 737.711 200.352 738.211 200.938C738.719 201.516 739.105 202.199 739.371 202.988C739.637 203.77 739.77 204.617 739.77 205.531V205.801C739.77 206.715 739.637 207.562 739.371 208.344C739.105 209.125 738.719 209.809 738.211 210.395C737.711 210.973 737.105 211.426 736.395 211.754C735.691 212.074 734.895 212.234 734.004 212.234C733.113 212.234 732.312 212.074 731.602 211.754C730.891 211.426 730.281 210.973 729.773 210.395C729.273 209.809 728.891 209.125 728.625 208.344C728.359 207.562 728.227 206.715 728.227 205.801ZM730.395 205.531V205.801C730.395 206.434 730.469 207.031 730.617 207.594C730.766 208.148 730.988 208.641 731.285 209.07C731.59 209.5 731.969 209.84 732.422 210.09C732.875 210.332 733.402 210.453 734.004 210.453C734.598 210.453 735.117 210.332 735.562 210.09C736.016 209.84 736.391 209.5 736.688 209.07C736.984 208.641 737.207 208.148 737.355 207.594C737.512 207.031 737.59 206.434 737.59 205.801V205.531C737.59 204.906 737.512 204.316 737.355 203.762C737.207 203.199 736.98 202.703 736.676 202.273C736.379 201.836 736.004 201.492 735.551 201.242C735.105 200.992 734.582 200.867 733.98 200.867C733.387 200.867 732.863 200.992 732.41 201.242C731.965 201.492 731.59 201.836 731.285 202.273C730.988 202.703 730.766 203.199 730.617 203.762C730.469 204.316 730.395 204.906 730.395 205.531ZM744.656 201.312V212H742.488V199.32H744.598L744.656 201.312ZM748.617 199.25L748.605 201.266C748.426 201.227 748.254 201.203 748.09 201.195C747.934 201.18 747.754 201.172 747.551 201.172C747.051 201.172 746.609 201.25 746.227 201.406C745.844 201.562 745.52 201.781 745.254 202.062C744.988 202.344 744.777 202.68 744.621 203.07C744.473 203.453 744.375 203.875 744.328 204.336L743.719 204.688C743.719 203.922 743.793 203.203 743.941 202.531C744.098 201.859 744.336 201.266 744.656 200.75C744.977 200.227 745.383 199.82 745.875 199.531C746.375 199.234 746.969 199.086 747.656 199.086C747.812 199.086 747.992 199.105 748.195 199.145C748.398 199.176 748.539 199.211 748.617 199.25ZM756.562 194H758.742V209.539L758.555 212H756.562V194ZM767.309 205.555V205.801C767.309 206.723 767.199 207.578 766.98 208.367C766.762 209.148 766.441 209.828 766.02 210.406C765.598 210.984 765.082 211.434 764.473 211.754C763.863 212.074 763.164 212.234 762.375 212.234C761.57 212.234 760.863 212.098 760.254 211.824C759.652 211.543 759.145 211.141 758.73 210.617C758.316 210.094 757.984 209.461 757.734 208.719C757.492 207.977 757.324 207.141 757.23 206.211V205.133C757.324 204.195 757.492 203.355 757.734 202.613C757.984 201.871 758.316 201.238 758.73 200.715C759.145 200.184 759.652 199.781 760.254 199.508C760.855 199.227 761.555 199.086 762.352 199.086C763.148 199.086 763.855 199.242 764.473 199.555C765.09 199.859 765.605 200.297 766.02 200.867C766.441 201.438 766.762 202.121 766.98 202.918C767.199 203.707 767.309 204.586 767.309 205.555ZM765.129 205.801V205.555C765.129 204.922 765.07 204.328 764.953 203.773C764.836 203.211 764.648 202.719 764.391 202.297C764.133 201.867 763.793 201.531 763.371 201.289C762.949 201.039 762.43 200.914 761.812 200.914C761.266 200.914 760.789 201.008 760.383 201.195C759.984 201.383 759.645 201.637 759.363 201.957C759.082 202.27 758.852 202.629 758.672 203.035C758.5 203.434 758.371 203.848 758.285 204.277V207.102C758.41 207.648 758.613 208.176 758.895 208.684C759.184 209.184 759.566 209.594 760.043 209.914C760.527 210.234 761.125 210.395 761.836 210.395C762.422 210.395 762.922 210.277 763.336 210.043C763.758 209.801 764.098 209.469 764.355 209.047C764.621 208.625 764.816 208.137 764.941 207.582C765.066 207.027 765.129 206.434 765.129 205.801ZM777.809 209.07V199.32H779.988V212H777.914L777.809 209.07ZM778.219 206.398L779.121 206.375C779.121 207.219 779.031 208 778.852 208.719C778.68 209.43 778.398 210.047 778.008 210.57C777.617 211.094 777.105 211.504 776.473 211.801C775.84 212.09 775.07 212.234 774.164 212.234C773.547 212.234 772.98 212.145 772.465 211.965C771.957 211.785 771.52 211.508 771.152 211.133C770.785 210.758 770.5 210.27 770.297 209.668C770.102 209.066 770.004 208.344 770.004 207.5V199.32H772.172V207.523C772.172 208.094 772.234 208.566 772.359 208.941C772.492 209.309 772.668 209.602 772.887 209.82C773.113 210.031 773.363 210.18 773.637 210.266C773.918 210.352 774.207 210.395 774.504 210.395C775.426 210.395 776.156 210.219 776.695 209.867C777.234 209.508 777.621 209.027 777.855 208.426C778.098 207.816 778.219 207.141 778.219 206.398ZM785.648 199.32V212H783.469V199.32H785.648ZM783.305 195.957C783.305 195.605 783.41 195.309 783.621 195.066C783.84 194.824 784.16 194.703 784.582 194.703C784.996 194.703 785.312 194.824 785.531 195.066C785.758 195.309 785.871 195.605 785.871 195.957C785.871 196.293 785.758 196.582 785.531 196.824C785.312 197.059 784.996 197.176 784.582 197.176C784.16 197.176 783.84 197.059 783.621 196.824C783.41 196.582 783.305 196.293 783.305 195.957ZM791.484 194V212H789.305V194H791.484ZM802.957 209.539V194H805.137V212H803.145L802.957 209.539ZM794.426 205.801V205.555C794.426 204.586 794.543 203.707 794.777 202.918C795.02 202.121 795.359 201.438 795.797 200.867C796.242 200.297 796.77 199.859 797.379 199.555C797.996 199.242 798.684 199.086 799.441 199.086C800.238 199.086 800.934 199.227 801.527 199.508C802.129 199.781 802.637 200.184 803.051 200.715C803.473 201.238 803.805 201.871 804.047 202.613C804.289 203.355 804.457 204.195 804.551 205.133V206.211C804.465 207.141 804.297 207.977 804.047 208.719C803.805 209.461 803.473 210.094 803.051 210.617C802.637 211.141 802.129 211.543 801.527 211.824C800.926 212.098 800.223 212.234 799.418 212.234C798.676 212.234 797.996 212.074 797.379 211.754C796.77 211.434 796.242 210.984 795.797 210.406C795.359 209.828 795.02 209.148 794.777 208.367C794.543 207.578 794.426 206.723 794.426 205.801ZM796.605 205.555V205.801C796.605 206.434 796.668 207.027 796.793 207.582C796.926 208.137 797.129 208.625 797.402 209.047C797.676 209.469 798.023 209.801 798.445 210.043C798.867 210.277 799.371 210.395 799.957 210.395C800.676 210.395 801.266 210.242 801.727 209.938C802.195 209.633 802.57 209.23 802.852 208.73C803.133 208.23 803.352 207.688 803.508 207.102V204.277C803.414 203.848 803.277 203.434 803.098 203.035C802.926 202.629 802.699 202.27 802.418 201.957C802.145 201.637 801.805 201.383 801.398 201.195C801 201.008 800.527 200.914 799.98 200.914C799.387 200.914 798.875 201.039 798.445 201.289C798.023 201.531 797.676 201.867 797.402 202.297C797.129 202.719 796.926 203.211 796.793 203.773C796.668 204.328 796.605 204.922 796.605 205.555ZM810.867 199.32V212H808.688V199.32H810.867ZM808.523 195.957C808.523 195.605 808.629 195.309 808.84 195.066C809.059 194.824 809.379 194.703 809.801 194.703C810.215 194.703 810.531 194.824 810.75 195.066C810.977 195.309 811.09 195.605 811.09 195.957C811.09 196.293 810.977 196.582 810.75 196.824C810.531 197.059 810.215 197.176 809.801 197.176C809.379 197.176 809.059 197.059 808.84 196.824C808.629 196.582 808.523 196.293 808.523 195.957ZM816.516 202.027V212H814.348V199.32H816.398L816.516 202.027ZM816 205.18L815.098 205.145C815.105 204.277 815.234 203.477 815.484 202.742C815.734 202 816.086 201.355 816.539 200.809C816.992 200.262 817.531 199.84 818.156 199.543C818.789 199.238 819.488 199.086 820.254 199.086C820.879 199.086 821.441 199.172 821.941 199.344C822.441 199.508 822.867 199.773 823.219 200.141C823.578 200.508 823.852 200.984 824.039 201.57C824.227 202.148 824.32 202.855 824.32 203.691V212H822.141V203.668C822.141 203.004 822.043 202.473 821.848 202.074C821.652 201.668 821.367 201.375 820.992 201.195C820.617 201.008 820.156 200.914 819.609 200.914C819.07 200.914 818.578 201.027 818.133 201.254C817.695 201.48 817.316 201.793 816.996 202.191C816.684 202.59 816.438 203.047 816.258 203.562C816.086 204.07 816 204.609 816 205.18ZM835.828 199.32H837.797V211.73C837.797 212.848 837.57 213.801 837.117 214.59C836.664 215.379 836.031 215.977 835.219 216.383C834.414 216.797 833.484 217.004 832.43 217.004C831.992 217.004 831.477 216.934 830.883 216.793C830.297 216.66 829.719 216.43 829.148 216.102C828.586 215.781 828.113 215.348 827.73 214.801L828.867 213.512C829.398 214.152 829.953 214.598 830.531 214.848C831.117 215.098 831.695 215.223 832.266 215.223C832.953 215.223 833.547 215.094 834.047 214.836C834.547 214.578 834.934 214.195 835.207 213.688C835.488 213.188 835.629 212.57 835.629 211.836V202.109L835.828 199.32ZM827.098 205.801V205.555C827.098 204.586 827.211 203.707 827.438 202.918C827.672 202.121 828.004 201.438 828.434 200.867C828.871 200.297 829.398 199.859 830.016 199.555C830.633 199.242 831.328 199.086 832.102 199.086C832.898 199.086 833.594 199.227 834.188 199.508C834.789 199.781 835.297 200.184 835.711 200.715C836.133 201.238 836.465 201.871 836.707 202.613C836.949 203.355 837.117 204.195 837.211 205.133V206.211C837.125 207.141 836.957 207.977 836.707 208.719C836.465 209.461 836.133 210.094 835.711 210.617C835.297 211.141 834.789 211.543 834.188 211.824C833.586 212.098 832.883 212.234 832.078 212.234C831.32 212.234 830.633 212.074 830.016 211.754C829.406 211.434 828.883 210.984 828.445 210.406C828.008 209.828 827.672 209.148 827.438 208.367C827.211 207.578 827.098 206.723 827.098 205.801ZM829.266 205.555V205.801C829.266 206.434 829.328 207.027 829.453 207.582C829.586 208.137 829.785 208.625 830.051 209.047C830.324 209.469 830.672 209.801 831.094 210.043C831.516 210.277 832.02 210.395 832.605 210.395C833.324 210.395 833.918 210.242 834.387 209.938C834.855 209.633 835.227 209.23 835.5 208.73C835.781 208.23 836 207.688 836.156 207.102V204.277C836.07 203.848 835.938 203.434 835.758 203.035C835.586 202.629 835.359 202.27 835.078 201.957C834.805 201.637 834.465 201.383 834.059 201.195C833.652 201.008 833.176 200.914 832.629 200.914C832.035 200.914 831.523 201.039 831.094 201.289C830.672 201.531 830.324 201.867 830.051 202.297C829.785 202.719 829.586 203.211 829.453 203.773C829.328 204.328 829.266 204.922 829.266 205.555ZM516.41 237.07V227.32H518.59V240H516.516L516.41 237.07ZM516.82 234.398L517.723 234.375C517.723 235.219 517.633 236 517.453 236.719C517.281 237.43 517 238.047 516.609 238.57C516.219 239.094 515.707 239.504 515.074 239.801C514.441 240.09 513.672 240.234 512.766 240.234C512.148 240.234 511.582 240.145 511.066 239.965C510.559 239.785 510.121 239.508 509.754 239.133C509.387 238.758 509.102 238.27 508.898 237.668C508.703 237.066 508.605 236.344 508.605 235.5V227.32H510.773V235.523C510.773 236.094 510.836 236.566 510.961 236.941C511.094 237.309 511.27 237.602 511.488 237.82C511.715 238.031 511.965 238.18 512.238 238.266C512.52 238.352 512.809 238.395 513.105 238.395C514.027 238.395 514.758 238.219 515.297 237.867C515.836 237.508 516.223 237.027 516.457 236.426C516.699 235.816 516.82 235.141 516.82 234.398ZM529.277 236.637C529.277 236.324 529.207 236.035 529.066 235.77C528.934 235.496 528.656 235.25 528.234 235.031C527.82 234.805 527.195 234.609 526.359 234.445C525.656 234.297 525.02 234.121 524.449 233.918C523.887 233.715 523.406 233.469 523.008 233.18C522.617 232.891 522.316 232.551 522.105 232.16C521.895 231.77 521.789 231.312 521.789 230.789C521.789 230.289 521.898 229.816 522.117 229.371C522.344 228.926 522.66 228.531 523.066 228.188C523.48 227.844 523.977 227.574 524.555 227.379C525.133 227.184 525.777 227.086 526.488 227.086C527.504 227.086 528.371 227.266 529.09 227.625C529.809 227.984 530.359 228.465 530.742 229.066C531.125 229.66 531.316 230.32 531.316 231.047H529.148C529.148 230.695 529.043 230.355 528.832 230.027C528.629 229.691 528.328 229.414 527.93 229.195C527.539 228.977 527.059 228.867 526.488 228.867C525.887 228.867 525.398 228.961 525.023 229.148C524.656 229.328 524.387 229.559 524.215 229.84C524.051 230.121 523.969 230.418 523.969 230.73C523.969 230.965 524.008 231.176 524.086 231.363C524.172 231.543 524.32 231.711 524.531 231.867C524.742 232.016 525.039 232.156 525.422 232.289C525.805 232.422 526.293 232.555 526.887 232.688C527.926 232.922 528.781 233.203 529.453 233.531C530.125 233.859 530.625 234.262 530.953 234.738C531.281 235.215 531.445 235.793 531.445 236.473C531.445 237.027 531.328 237.535 531.094 237.996C530.867 238.457 530.535 238.855 530.098 239.191C529.668 239.52 529.152 239.777 528.551 239.965C527.957 240.145 527.289 240.234 526.547 240.234C525.43 240.234 524.484 240.035 523.711 239.637C522.938 239.238 522.352 238.723 521.953 238.09C521.555 237.457 521.355 236.789 521.355 236.086H523.535C523.566 236.68 523.738 237.152 524.051 237.504C524.363 237.848 524.746 238.094 525.199 238.242C525.652 238.383 526.102 238.453 526.547 238.453C527.141 238.453 527.637 238.375 528.035 238.219C528.441 238.062 528.75 237.848 528.961 237.574C529.172 237.301 529.277 236.988 529.277 236.637ZM539.555 240.234C538.672 240.234 537.871 240.086 537.152 239.789C536.441 239.484 535.828 239.059 535.312 238.512C534.805 237.965 534.414 237.316 534.141 236.566C533.867 235.816 533.73 234.996 533.73 234.105V233.613C533.73 232.582 533.883 231.664 534.188 230.859C534.492 230.047 534.906 229.359 535.43 228.797C535.953 228.234 536.547 227.809 537.211 227.52C537.875 227.23 538.562 227.086 539.273 227.086C540.18 227.086 540.961 227.242 541.617 227.555C542.281 227.867 542.824 228.305 543.246 228.867C543.668 229.422 543.98 230.078 544.184 230.836C544.387 231.586 544.488 232.406 544.488 233.297V234.27H535.02V232.5H542.32V232.336C542.289 231.773 542.172 231.227 541.969 230.695C541.773 230.164 541.461 229.727 541.031 229.383C540.602 229.039 540.016 228.867 539.273 228.867C538.781 228.867 538.328 228.973 537.914 229.184C537.5 229.387 537.145 229.691 536.848 230.098C536.551 230.504 536.32 231 536.156 231.586C535.992 232.172 535.91 232.848 535.91 233.613V234.105C535.91 234.707 535.992 235.273 536.156 235.805C536.328 236.328 536.574 236.789 536.895 237.188C537.223 237.586 537.617 237.898 538.078 238.125C538.547 238.352 539.078 238.465 539.672 238.465C540.438 238.465 541.086 238.309 541.617 237.996C542.148 237.684 542.613 237.266 543.012 236.742L544.324 237.785C544.051 238.199 543.703 238.594 543.281 238.969C542.859 239.344 542.34 239.648 541.723 239.883C541.113 240.117 540.391 240.234 539.555 240.234ZM549.188 229.312V240H547.02V227.32H549.129L549.188 229.312ZM553.148 227.25L553.137 229.266C552.957 229.227 552.785 229.203 552.621 229.195C552.465 229.18 552.285 229.172 552.082 229.172C551.582 229.172 551.141 229.25 550.758 229.406C550.375 229.562 550.051 229.781 549.785 230.062C549.52 230.344 549.309 230.68 549.152 231.07C549.004 231.453 548.906 231.875 548.859 232.336L548.25 232.688C548.25 231.922 548.324 231.203 548.473 230.531C548.629 229.859 548.867 229.266 549.188 228.75C549.508 228.227 549.914 227.82 550.406 227.531C550.906 227.234 551.5 227.086 552.188 227.086C552.344 227.086 552.523 227.105 552.727 227.145C552.93 227.176 553.07 227.211 553.148 227.25ZM563.461 227.32V240H561.281V227.32H563.461ZM561.117 223.957C561.117 223.605 561.223 223.309 561.434 223.066C561.652 222.824 561.973 222.703 562.395 222.703C562.809 222.703 563.125 222.824 563.344 223.066C563.57 223.309 563.684 223.605 563.684 223.957C563.684 224.293 563.57 224.582 563.344 224.824C563.125 225.059 562.809 225.176 562.395 225.176C561.973 225.176 561.652 225.059 561.434 224.824C561.223 224.582 561.117 224.293 561.117 223.957ZM569.109 230.027V240H566.941V227.32H568.992L569.109 230.027ZM568.594 233.18L567.691 233.145C567.699 232.277 567.828 231.477 568.078 230.742C568.328 230 568.68 229.355 569.133 228.809C569.586 228.262 570.125 227.84 570.75 227.543C571.383 227.238 572.082 227.086 572.848 227.086C573.473 227.086 574.035 227.172 574.535 227.344C575.035 227.508 575.461 227.773 575.812 228.141C576.172 228.508 576.445 228.984 576.633 229.57C576.82 230.148 576.914 230.855 576.914 231.691V240H574.734V231.668C574.734 231.004 574.637 230.473 574.441 230.074C574.246 229.668 573.961 229.375 573.586 229.195C573.211 229.008 572.75 228.914 572.203 228.914C571.664 228.914 571.172 229.027 570.727 229.254C570.289 229.48 569.91 229.793 569.59 230.191C569.277 230.59 569.031 231.047 568.852 231.562C568.68 232.07 568.594 232.609 568.594 233.18ZM585.516 227.32V228.984H578.66V227.32H585.516ZM580.98 224.238H583.148V236.859C583.148 237.289 583.215 237.613 583.348 237.832C583.48 238.051 583.652 238.195 583.863 238.266C584.074 238.336 584.301 238.371 584.543 238.371C584.723 238.371 584.91 238.355 585.105 238.324C585.309 238.285 585.461 238.254 585.562 238.23L585.574 240C585.402 240.055 585.176 240.105 584.895 240.152C584.621 240.207 584.289 240.234 583.898 240.234C583.367 240.234 582.879 240.129 582.434 239.918C581.988 239.707 581.633 239.355 581.367 238.863C581.109 238.363 580.98 237.691 580.98 236.848V224.238ZM593.32 240.234C592.438 240.234 591.637 240.086 590.918 239.789C590.207 239.484 589.594 239.059 589.078 238.512C588.57 237.965 588.18 237.316 587.906 236.566C587.633 235.816 587.496 234.996 587.496 234.105V233.613C587.496 232.582 587.648 231.664 587.953 230.859C588.258 230.047 588.672 229.359 589.195 228.797C589.719 228.234 590.312 227.809 590.977 227.52C591.641 227.23 592.328 227.086 593.039 227.086C593.945 227.086 594.727 227.242 595.383 227.555C596.047 227.867 596.59 228.305 597.012 228.867C597.434 229.422 597.746 230.078 597.949 230.836C598.152 231.586 598.254 232.406 598.254 233.297V234.27H588.785V232.5H596.086V232.336C596.055 231.773 595.938 231.227 595.734 230.695C595.539 230.164 595.227 229.727 594.797 229.383C594.367 229.039 593.781 228.867 593.039 228.867C592.547 228.867 592.094 228.973 591.68 229.184C591.266 229.387 590.91 229.691 590.613 230.098C590.316 230.504 590.086 231 589.922 231.586C589.758 232.172 589.676 232.848 589.676 233.613V234.105C589.676 234.707 589.758 235.273 589.922 235.805C590.094 236.328 590.34 236.789 590.66 237.188C590.988 237.586 591.383 237.898 591.844 238.125C592.312 238.352 592.844 238.465 593.438 238.465C594.203 238.465 594.852 238.309 595.383 237.996C595.914 237.684 596.379 237.266 596.777 236.742L598.09 237.785C597.816 238.199 597.469 238.594 597.047 238.969C596.625 239.344 596.105 239.648 595.488 239.883C594.879 240.117 594.156 240.234 593.32 240.234ZM602.953 229.312V240H600.785V227.32H602.895L602.953 229.312ZM606.914 227.25L606.902 229.266C606.723 229.227 606.551 229.203 606.387 229.195C606.23 229.18 606.051 229.172 605.848 229.172C605.348 229.172 604.906 229.25 604.523 229.406C604.141 229.562 603.816 229.781 603.551 230.062C603.285 230.344 603.074 230.68 602.918 231.07C602.77 231.453 602.672 231.875 602.625 232.336L602.016 232.688C602.016 231.922 602.09 231.203 602.238 230.531C602.395 229.859 602.633 229.266 602.953 228.75C603.273 228.227 603.68 227.82 604.172 227.531C604.672 227.234 605.266 227.086 605.953 227.086C606.109 227.086 606.289 227.105 606.492 227.145C606.695 227.176 606.836 227.211 606.914 227.25ZM612.34 240H610.172V225.984C610.172 225.07 610.336 224.301 610.664 223.676C611 223.043 611.48 222.566 612.105 222.246C612.73 221.918 613.473 221.754 614.332 221.754C614.582 221.754 614.832 221.77 615.082 221.801C615.34 221.832 615.59 221.879 615.832 221.941L615.715 223.711C615.551 223.672 615.363 223.645 615.152 223.629C614.949 223.613 614.746 223.605 614.543 223.605C614.082 223.605 613.684 223.699 613.348 223.887C613.02 224.066 612.77 224.332 612.598 224.684C612.426 225.035 612.34 225.469 612.34 225.984V240ZM615.035 227.32V228.984H608.168V227.32H615.035ZM624.926 237.832V231.305C624.926 230.805 624.824 230.371 624.621 230.004C624.426 229.629 624.129 229.34 623.73 229.137C623.332 228.934 622.84 228.832 622.254 228.832C621.707 228.832 621.227 228.926 620.812 229.113C620.406 229.301 620.086 229.547 619.852 229.852C619.625 230.156 619.512 230.484 619.512 230.836H617.344C617.344 230.383 617.461 229.934 617.695 229.488C617.93 229.043 618.266 228.641 618.703 228.281C619.148 227.914 619.68 227.625 620.297 227.414C620.922 227.195 621.617 227.086 622.383 227.086C623.305 227.086 624.117 227.242 624.82 227.555C625.531 227.867 626.086 228.34 626.484 228.973C626.891 229.598 627.094 230.383 627.094 231.328V237.234C627.094 237.656 627.129 238.105 627.199 238.582C627.277 239.059 627.391 239.469 627.539 239.812V240H625.277C625.168 239.75 625.082 239.418 625.02 239.004C624.957 238.582 624.926 238.191 624.926 237.832ZM625.301 232.312L625.324 233.836H623.133C622.516 233.836 621.965 233.887 621.48 233.988C620.996 234.082 620.59 234.227 620.262 234.422C619.934 234.617 619.684 234.863 619.512 235.16C619.34 235.449 619.254 235.789 619.254 236.18C619.254 236.578 619.344 236.941 619.523 237.27C619.703 237.598 619.973 237.859 620.332 238.055C620.699 238.242 621.148 238.336 621.68 238.336C622.344 238.336 622.93 238.195 623.438 237.914C623.945 237.633 624.348 237.289 624.645 236.883C624.949 236.477 625.113 236.082 625.137 235.699L626.062 236.742C626.008 237.07 625.859 237.434 625.617 237.832C625.375 238.23 625.051 238.613 624.645 238.98C624.246 239.34 623.77 239.641 623.215 239.883C622.668 240.117 622.051 240.234 621.363 240.234C620.504 240.234 619.75 240.066 619.102 239.73C618.461 239.395 617.961 238.945 617.602 238.383C617.25 237.812 617.074 237.176 617.074 236.473C617.074 235.793 617.207 235.195 617.473 234.68C617.738 234.156 618.121 233.723 618.621 233.379C619.121 233.027 619.723 232.762 620.426 232.582C621.129 232.402 621.914 232.312 622.781 232.312H625.301ZM635.578 238.453C636.094 238.453 636.57 238.348 637.008 238.137C637.445 237.926 637.805 237.637 638.086 237.27C638.367 236.895 638.527 236.469 638.566 235.992H640.629C640.59 236.742 640.336 237.441 639.867 238.09C639.406 238.73 638.801 239.25 638.051 239.648C637.301 240.039 636.477 240.234 635.578 240.234C634.625 240.234 633.793 240.066 633.082 239.73C632.379 239.395 631.793 238.934 631.324 238.348C630.863 237.762 630.516 237.09 630.281 236.332C630.055 235.566 629.941 234.758 629.941 233.906V233.414C629.941 232.562 630.055 231.758 630.281 231C630.516 230.234 630.863 229.559 631.324 228.973C631.793 228.387 632.379 227.926 633.082 227.59C633.793 227.254 634.625 227.086 635.578 227.086C636.57 227.086 637.438 227.289 638.18 227.695C638.922 228.094 639.504 228.641 639.926 229.336C640.355 230.023 640.59 230.805 640.629 231.68H638.566C638.527 231.156 638.379 230.684 638.121 230.262C637.871 229.84 637.527 229.504 637.09 229.254C636.66 228.996 636.156 228.867 635.578 228.867C634.914 228.867 634.355 229 633.902 229.266C633.457 229.523 633.102 229.875 632.836 230.32C632.578 230.758 632.391 231.246 632.273 231.785C632.164 232.316 632.109 232.859 632.109 233.414V233.906C632.109 234.461 632.164 235.008 632.273 235.547C632.383 236.086 632.566 236.574 632.824 237.012C633.09 237.449 633.445 237.801 633.891 238.066C634.344 238.324 634.906 238.453 635.578 238.453ZM648.328 240.234C647.445 240.234 646.645 240.086 645.926 239.789C645.215 239.484 644.602 239.059 644.086 238.512C643.578 237.965 643.188 237.316 642.914 236.566C642.641 235.816 642.504 234.996 642.504 234.105V233.613C642.504 232.582 642.656 231.664 642.961 230.859C643.266 230.047 643.68 229.359 644.203 228.797C644.727 228.234 645.32 227.809 645.984 227.52C646.648 227.23 647.336 227.086 648.047 227.086C648.953 227.086 649.734 227.242 650.391 227.555C651.055 227.867 651.598 228.305 652.02 228.867C652.441 229.422 652.754 230.078 652.957 230.836C653.16 231.586 653.262 232.406 653.262 233.297V234.27H643.793V232.5H651.094V232.336C651.062 231.773 650.945 231.227 650.742 230.695C650.547 230.164 650.234 229.727 649.805 229.383C649.375 229.039 648.789 228.867 648.047 228.867C647.555 228.867 647.102 228.973 646.688 229.184C646.273 229.387 645.918 229.691 645.621 230.098C645.324 230.504 645.094 231 644.93 231.586C644.766 232.172 644.684 232.848 644.684 233.613V234.105C644.684 234.707 644.766 235.273 644.93 235.805C645.102 236.328 645.348 236.789 645.668 237.188C645.996 237.586 646.391 237.898 646.852 238.125C647.32 238.352 647.852 238.465 648.445 238.465C649.211 238.465 649.859 238.309 650.391 237.996C650.922 237.684 651.387 237.266 651.785 236.742L653.098 237.785C652.824 238.199 652.477 238.594 652.055 238.969C651.633 239.344 651.113 239.648 650.496 239.883C649.887 240.117 649.164 240.234 648.328 240.234ZM663.176 236.637C663.176 236.324 663.105 236.035 662.965 235.77C662.832 235.496 662.555 235.25 662.133 235.031C661.719 234.805 661.094 234.609 660.258 234.445C659.555 234.297 658.918 234.121 658.348 233.918C657.785 233.715 657.305 233.469 656.906 233.18C656.516 232.891 656.215 232.551 656.004 232.16C655.793 231.77 655.688 231.312 655.688 230.789C655.688 230.289 655.797 229.816 656.016 229.371C656.242 228.926 656.559 228.531 656.965 228.188C657.379 227.844 657.875 227.574 658.453 227.379C659.031 227.184 659.676 227.086 660.387 227.086C661.402 227.086 662.27 227.266 662.988 227.625C663.707 227.984 664.258 228.465 664.641 229.066C665.023 229.66 665.215 230.32 665.215 231.047H663.047C663.047 230.695 662.941 230.355 662.73 230.027C662.527 229.691 662.227 229.414 661.828 229.195C661.438 228.977 660.957 228.867 660.387 228.867C659.785 228.867 659.297 228.961 658.922 229.148C658.555 229.328 658.285 229.559 658.113 229.84C657.949 230.121 657.867 230.418 657.867 230.73C657.867 230.965 657.906 231.176 657.984 231.363C658.07 231.543 658.219 231.711 658.43 231.867C658.641 232.016 658.938 232.156 659.32 232.289C659.703 232.422 660.191 232.555 660.785 232.688C661.824 232.922 662.68 233.203 663.352 233.531C664.023 233.859 664.523 234.262 664.852 234.738C665.18 235.215 665.344 235.793 665.344 236.473C665.344 237.027 665.227 237.535 664.992 237.996C664.766 238.457 664.434 238.855 663.996 239.191C663.566 239.52 663.051 239.777 662.449 239.965C661.855 240.145 661.188 240.234 660.445 240.234C659.328 240.234 658.383 240.035 657.609 239.637C656.836 239.238 656.25 238.723 655.852 238.09C655.453 237.457 655.254 236.789 655.254 236.086H657.434C657.465 236.68 657.637 237.152 657.949 237.504C658.262 237.848 658.645 238.094 659.098 238.242C659.551 238.383 660 238.453 660.445 238.453C661.039 238.453 661.535 238.375 661.934 238.219C662.34 238.062 662.648 237.848 662.859 237.574C663.07 237.301 663.176 236.988 663.176 236.637ZM668.227 238.852C668.227 238.484 668.34 238.176 668.566 237.926C668.801 237.668 669.137 237.539 669.574 237.539C670.012 237.539 670.344 237.668 670.57 237.926C670.805 238.176 670.922 238.484 670.922 238.852C670.922 239.211 670.805 239.516 670.57 239.766C670.344 240.016 670.012 240.141 669.574 240.141C669.137 240.141 668.801 240.016 668.566 239.766C668.34 239.516 668.227 239.211 668.227 238.852Z" fill="white"/>
</g>
</svg>
